{
.formatVersion = 3;
date = "2012-03-02 21:12:00 +0000";
familyName = CroissantOne;
featurePrefixes = (
{
code = "languagesystem latn dflt;
languagesystem latn MOL;
languagesystem latn ROM;";
name = LanguageSystems;
},
{
code = "lookup _liga__Standard_Ligatures_in_Latin_lookup_1 {
    sub f i by fi;
    sub f l by fl;
} _liga__Standard_Ligatures_in_Latin_lookup_1;";
name = _liga__Standard_Ligatures_in_Latin_lookup_1;
},
{
code = "lookup _locl__Localized_Forms_in_Latin_lookup_0 {
    sub scedilla by uni0219;
    sub uni0163 by uni021B;
} _locl__Localized_Forms_in_Latin_lookup_0;";
name = _locl__Localized_Forms_in_Latin_lookup_0;
}
);
features = (
{
code = "script latn;
language MOL ;
lookup _locl__Localized_Forms_in_Latin_lookup_0;
script latn;
language ROM ;
lookup _locl__Localized_Forms_in_Latin_lookup_0;";
tag = locl;
},
{
code = "script latn;
language MOL ;
lookup _liga__Standard_Ligatures_in_Latin_lookup_1;
script latn;
language ROM ;
lookup _liga__Standard_Ligatures_in_Latin_lookup_1;
script latn;
language dflt;
lookup _liga__Standard_Ligatures_in_Latin_lookup_1;";
tag = liga;
}
);
fontMaster = (
{
customParameters = (
{
name = typoAscender;
value = 1071;
},
{
name = typoDescender;
value = -344;
},
{
name = typoLineGap;
value = 0;
},
{
name = winAscent;
value = 1071;
},
{
name = winDescent;
value = 344;
},
{
name = hheaAscender;
value = 1071;
},
{
name = hheaDescender;
value = -344;
},
{
name = hheaLineGap;
value = 0;
}
);
id = "488cb3fc-7928-4381-9d20-07afbe5c7c4e";
metricValues = (
{
},
{
pos = 1;
},
{
pos = 3;
},
{
pos = 800;
},
{
pos = -200;
},
{
pos = 650;
},
{
pos = 600;
},
{
},
{
pos = 75;
},
{
pos = 650;
},
{
pos = 600;
},
{
},
{
pos = 350;
},
{
pos = 3;
},
{
pos = 300;
}
);
name = Regular;
visible = 1;
}
);
glyphs = (
{
category = Letter;
glyphname = exclam;
layers = (
{
layerId = "488cb3fc-7928-4381-9d20-07afbe5c7c4e";
name = Fore;
shapes = (
{
closed = 1;
nodes = (
(102,94,o),
(124.5,116.5,q),
(147,139,o),
(179,139,q),
(211,139,o),
(233.5,116.5,q),
(256,94,o),
(256,62,q),
(256,30,o),
(233.5,7.5,q),
(211,-15,o),
(179,-15,q),
(147,-15,o),
(124.5,7.5,q),
(102,30,o),
(102,62,q)
);
},
{
closed = 1;
nodes = (
(100,607,o),
(100,638.5,q),
(100,670,o),
(121.5,692.5,q),
(143,715,o),
(179,715,q),
(215,715,o),
(236.5,692.5,q),
(258,670,o),
(258,638.5,q),
(258,607,o),
(249.5,538,q),
(241,469,o),
(227,368.5,q),
(213,268,o),
(206,203,q),
(152,203,l),
(145,268,o),
(131,368.5,q),
(117,469,o),
(108.5,538,q)
);
}
);
width = 358;
}
);
unicode = 33;
},
{
category = Letter;
glyphname = quotedbl;
kernLeft = quotedbl.2;
kernRight = quotedbl;
layers = (
{
layerId = "488cb3fc-7928-4381-9d20-07afbe5c7c4e";
name = Fore;
shapes = (
{
closed = 1;
nodes = (
(85,682,o),
(85,703.5,q),
(85,725,o),
(104,745,q),
(123,765,o),
(156,765,q),
(189,765,o),
(208,745,q),
(227,725,o),
(227,703.5,q),
(227,682,o),
(219.5,646.5,q),
(212,611,o),
(199,558,q),
(186,505,o),
(180,475,q),
(132,475,l),
(126,505,o),
(113,558,q),
(100,611,o),
(92.5,646.5,q)
);
},
{
closed = 1;
nodes = (
(285,682,o),
(285,703.5,q),
(285,725,o),
(304,745,q),
(323,765,o),
(356,765,q),
(389,765,o),
(408,745,q),
(427,725,o),
(427,703.5,q),
(427,682,o),
(419.5,646.5,q),
(412,611,o),
(399,558,q),
(386,505,o),
(380,475,q),
(332,475,l),
(326,505,o),
(313,558,q),
(300,611,o),
(292.5,646.5,q)
);
}
);
width = 512;
}
);
unicode = 34;
},
{
category = Letter;
glyphname = numbersign;
layers = (
{
layerId = "488cb3fc-7928-4381-9d20-07afbe5c7c4e";
name = Fore;
shapes = (
{
closed = 1;
nodes = (
(132,480,l),
(262,480,l),
(331,700,l),
(391,700,l),
(322,480,l),
(502,480,l),
(571,700,l),
(631,700,l),
(562,480,l),
(692,480,l),
(673,420,l),
(543,420,l),
(499,280,l),
(629,280,l),
(610,220,l),
(480,220,l),
(411,0,l),
(351,0,l),
(420,220,l),
(240,220,l),
(171,0,l),
(111,0,l),
(180,220,l),
(50,220,l),
(69,280,l),
(199,280,l),
(243,420,l),
(114,420,l)
);
},
{
closed = 1;
nodes = (
(259,280,l),
(439,280,l),
(483,420,l),
(303,420,l)
);
}
);
width = 742;
}
);
unicode = 35;
},
{
category = Letter;
glyphname = dollar;
layers = (
{
layerId = "488cb3fc-7928-4381-9d20-07afbe5c7c4e";
name = Fore;
shapes = (
{
closed = 1;
nodes = (
(330,715,l),
(411,715,o),
(476.5,677.5,q),
(542,640,o),
(542,574,q),
(542,544,o),
(521,523,q),
(500,502,o),
(470,502,q),
(440,502,o),
(419,523.5,q),
(398,545,o),
(398,571.5,q),
(398,598,o),
(412,617,q),
(426,636,o),
(449,643,q),
(401,668,o),
(330,668,q),
(330,423,l),
(421,375,l),
(566,299,o),
(566,175,q),
(566,84,o),
(499.5,36,q),
(433,-12,o),
(330,-15,q),
(330,-100,l),
(300,-100,l),
(300,-14,l),
(213,-10,o),
(148.5,32,q),
(84,74,o),
(84,146,q),
(84,176,o),
(105,197,q),
(126,218,o),
(156,218,q),
(186,218,o),
(207,196.5,q),
(228,175,o),
(228,145.5,q),
(228,116,o),
(208.5,96,q),
(189,76,o),
(161,74,q),
(207,36,o),
(300,32,q),
(300,278,l),
(225,318,l),
(97,387,o),
(97,515,q),
(97,591,o),
(147.5,647.5,q),
(198,704,o),
(300,713,q),
(300,800,l),
(330,800,l)
);
},
{
closed = 1;
nodes = (
(446,199,o),
(373,239,q),
(330,262,l),
(330,32,l),
(384,36,o),
(415,64.5,q),
(446,93,o),
(446,138,q)
);
},
{
closed = 1;
nodes = (
(220,479,o),
(300,439,q),
(300,664,l),
(260,654,o),
(240,625,q),
(220,596,o),
(220,563,q)
);
}
);
width = 650;
}
);
unicode = 36;
},
{
category = Letter;
glyphname = percent;
layers = (
{
layerId = "488cb3fc-7928-4381-9d20-07afbe5c7c4e";
name = Fore;
shapes = (
{
closed = 1;
nodes = (
(347,0,l),
(307,0,l),
(697,700,l),
(737,700,l)
);
},
{
closed = 1;
nodes = (
(178,709,o),
(251,709,q),
(324,709,o),
(368.5,645,q),
(413,581,o),
(413,486.5,q),
(413,392,o),
(368.5,329,q),
(324,266,o),
(251,266,q),
(178,266,o),
(134,329.5,q),
(90,393,o),
(90,487,q),
(90,581,o),
(134,645,q)
);
},
{
closed = 1;
nodes = (
(283,672,o),
(251.5,672,q),
(220,672,o),
(204,620.5,q),
(188,569,o),
(188,487,q),
(188,405,o),
(204,354,q),
(220,303,o),
(251.5,303,q),
(283,303,o),
(299,354,q),
(315,405,o),
(315,487,q),
(315,569,o),
(299,620.5,q)
);
},
{
closed = 1;
nodes = (
(719,434,o),
(792,434,q),
(865,434,o),
(909.5,370,q),
(954,306,o),
(954,211.5,q),
(954,117,o),
(909.5,54,q),
(865,-9,o),
(792,-9,q),
(719,-9,o),
(675,54.5,q),
(631,118,o),
(631,212,q),
(631,306,o),
(675,370,q)
);
},
{
closed = 1;
nodes = (
(824,397,o),
(792.5,397,q),
(761,397,o),
(745,345.5,q),
(729,294,o),
(729,212,q),
(729,130,o),
(745,79,q),
(761,28,o),
(792.5,28,q),
(824,28,o),
(840,79,q),
(856,130,o),
(856,212,q),
(856,294,o),
(840,345.5,q)
);
}
);
width = 1044;
}
);
unicode = 37;
},
{
category = Letter;
glyphname = ampersand;
layers = (
{
layerId = "488cb3fc-7928-4381-9d20-07afbe5c7c4e";
name = Fore;
shapes = (
{
closed = 1;
nodes = (
(30,75,o),
(30,150,q),
(30,225,o),
(76,277,q),
(122,329,o),
(207,329,q),
(219,329,l),
(148,471,o),
(148,545,q),
(148,715,o),
(372,715,q),
(442,715,o),
(504,683,q),
(566,651,o),
(566,607,q),
(566,590,o),
(555,568,q),
(507,476,l),
(472,487,l),
(472,571,l),
(472,616,o),
(441.5,642,q),
(411,668,o),
(367,668,q),
(323,668,o),
(299.5,645.5,q),
(276,623,o),
(276,593,q),
(276,552,o),
(318,468,q),
(329,446,o),
(336.5,430,q),
(344,414,o),
(360,382.5,q),
(376,351,o),
(387,329,q),
(555,329,l),
(555,284,l),
(409,284,l),
(500,98,l),
(522,53,o),
(558,53,q),
(594,53,o),
(629,82,q),
(647,58,l),
(567,-15,o),
(477,-15,q),
(429,-15,o),
(396,9,q),
(363,33,o),
(326,113,q),
(311,56,o),
(271,20.5,q),
(231,-15,o),
(170,-15,q),
(109,-15,o),
(69.5,30,q)
);
},
{
closed = 1;
nodes = (
(168,122,o),
(183,89,q),
(198,56,o),
(230,56,q),
(262,56,o),
(279.5,88,q),
(297,120,o),
(298,171,q),
(242,284,l),
(238,284,l),
(203,284,o),
(185.5,254,q),
(168,224,o),
(168,173,q)
);
}
);
width = 637;
}
);
unicode = 38;
},
{
category = Letter;
glyphname = quotesingle;
kernLeft = quotedbl.2;
kernRight = quotedbl;
layers = (
{
layerId = "488cb3fc-7928-4381-9d20-07afbe5c7c4e";
name = Fore;
shapes = (
{
closed = 1;
nodes = (
(85,682,o),
(85,703.5,q),
(85,725,o),
(104,745,q),
(123,765,o),
(156,765,q),
(189,765,o),
(208,745,q),
(227,725,o),
(227,703.5,q),
(227,682,o),
(219.5,646.5,q),
(212,611,o),
(199,558,q),
(186,505,o),
(180,475,q),
(132,475,l),
(126,505,o),
(113,558,q),
(100,611,o),
(92.5,646.5,q)
);
}
);
width = 312;
}
);
unicode = 39;
},
{
category = Letter;
glyphname = parenleft;
layers = (
{
layerId = "488cb3fc-7928-4381-9d20-07afbe5c7c4e";
name = Fore;
shapes = (
{
closed = 1;
nodes = (
(205,192,o),
(254.5,97,q),
(304,2,o),
(398,-24,q),
(398,-47,l),
(244,-47,o),
(152,53.5,q),
(60,154,o),
(60,351,q),
(60,548,o),
(152,648.5,q),
(244,749,o),
(398,749,q),
(398,726,l),
(304,700,o),
(254.5,605,q),
(205,510,o),
(205,351,q)
);
}
);
width = 414;
}
);
unicode = 40;
},
{
category = Letter;
glyphname = parenright;
layers = (
{
layerId = "488cb3fc-7928-4381-9d20-07afbe5c7c4e";
name = Fore;
shapes = (
{
closed = 1;
nodes = (
(209,510,o),
(159.5,605,q),
(110,700,o),
(16,726,q),
(16,749,l),
(170,749,o),
(262,648.5,q),
(354,548,o),
(354,351,q),
(354,154,o),
(262,53.5,q),
(170,-47,o),
(16,-47,q),
(16,-24,l),
(110,2,o),
(159.5,97,q),
(209,192,o),
(209,351,q)
);
}
);
width = 414;
}
);
unicode = 41;
},
{
category = Letter;
glyphname = asterisk;
layers = (
{
layerId = "488cb3fc-7928-4381-9d20-07afbe5c7c4e";
name = Fore;
shapes = (
{
closed = 1;
nodes = (
(220,671,o),
(220,695.5,q),
(220,720,o),
(238.5,742.5,q),
(257,765,o),
(289,765,q),
(321,765,o),
(339.5,742.5,q),
(358,720,o),
(358,691,q),
(358,675,o),
(338.5,624,q),
(319,573,o),
(315,561,q),
(322,556,l),
(336,566,o),
(356.5,582,q),
(377,598,o),
(388,606.5,q),
(399,615,o),
(413,624,q),
(439,641,o),
(461,641,q),
(483,641,o),
(505,623,q),
(527,605,o),
(527,571.5,q),
(527,538,o),
(501,520,q),
(475,502,o),
(437,502,q),
(339,505,l),
(336,497,l),
(350,487,o),
(376.5,469.5,q),
(403,452,o),
(413.5,444.5,q),
(424,437,o),
(438,424,q),
(462,402,o),
(462,374.5,q),
(462,347,o),
(443,326,q),
(424,305,o),
(403,305,q),
(382,305,o),
(371.5,307.5,q),
(361,310,o),
(352,319,q),
(343,328,o),
(338,334,q),
(333,340,o),
(326,358,q),
(319,376,o),
(316,386,q),
(307,416,o),
(293,465,q),
(284,465,l),
(279,449,o),
(272,424,q),
(265,399,o),
(261.5,387.5,q),
(258,376,o),
(252,359,q),
(246,342,o),
(240.5,335,q),
(235,328,o),
(226,320,q),
(212,305,o),
(183,305,q),
(154,305,o),
(135,326,q),
(116,347,o),
(116,367,q),
(116,387,o),
(120.5,399,q),
(125,411,o),
(139,424,q),
(153,437,o),
(162.5,444.5,q),
(172,452,o),
(199,469.5,q),
(226,487,o),
(240,497,q),
(237,506,l),
(140,503,l),
(102,503,o),
(76,520.5,q),
(50,538,o),
(50,571.5,q),
(50,605,o),
(72,623,q),
(94,641,o),
(121,641,q),
(141,641,o),
(160,628,q),
(179,615,o),
(189,607.5,q),
(199,600,o),
(220,583.5,q),
(241,567,o),
(254,557,q),
(262,562,l)
);
}
);
width = 577;
}
);
unicode = 42;
},
{
category = Letter;
glyphname = plus;
layers = (
{
layerId = "488cb3fc-7928-4381-9d20-07afbe5c7c4e";
name = Fore;
shapes = (
{
closed = 1;
nodes = (
(90,380,l),
(250,380,l),
(250,540,l),
(310,540,l),
(310,380,l),
(470,380,l),
(470,320,l),
(310,320,l),
(310,160,l),
(250,160,l),
(250,320,l),
(90,320,l)
);
}
);
width = 560;
}
);
unicode = 43;
},
{
category = Letter;
glyphname = comma;
layers = (
{
layerId = "488cb3fc-7928-4381-9d20-07afbe5c7c4e";
name = Fore;
shapes = (
{
closed = 1;
nodes = (
(111,-93,o),
(111,-55.5,q),
(111,-18,o),
(85.5,3.5,q),
(60,25,o),
(60,59.5,q),
(60,94,o),
(82.5,116.5,q),
(105,139,o),
(137.5,139,q),
(170,139,o),
(192,114,q),
(214,89,o),
(214,46,q),
(214,-66,o),
(94,-169,q),
(67,-144,l)
);
}
);
width = 274;
}
);
unicode = 44;
},
{
category = Letter;
glyphname = hyphen;
layers = (
{
layerId = "488cb3fc-7928-4381-9d20-07afbe5c7c4e";
name = Fore;
shapes = (
{
closed = 1;
nodes = (
(50,312,l),
(350,312,l),
(350,252,l),
(50,252,l)
);
}
);
width = 400;
}
);
unicode = 45;
},
{
category = Letter;
glyphname = period;
layers = (
{
layerId = "488cb3fc-7928-4381-9d20-07afbe5c7c4e";
name = Fore;
shapes = (
{
closed = 1;
nodes = (
(60,94,o),
(82.5,116.5,q),
(105,139,o),
(137,139,q),
(169,139,o),
(191.5,116.5,q),
(214,94,o),
(214,62,q),
(214,30,o),
(191.5,7.5,q),
(169,-15,o),
(137,-15,q),
(105,-15,o),
(82.5,7.5,q),
(60,30,o),
(60,62,q)
);
}
);
width = 274;
}
);
unicode = 46;
},
{
category = Letter;
glyphname = slash;
layers = (
{
layerId = "488cb3fc-7928-4381-9d20-07afbe5c7c4e";
name = Fore;
shapes = (
{
closed = 1;
nodes = (
(120,0,l),
(30,0,l),
(290,700,l),
(380,700,l)
);
}
);
width = 410;
}
);
unicode = 47;
},
{
category = Letter;
glyphname = zero;
layers = (
{
layerId = "488cb3fc-7928-4381-9d20-07afbe5c7c4e";
name = Fore;
shapes = (
{
closed = 1;
nodes = (
(182,715,o),
(300,715,q),
(418,715,o),
(491,609.5,q),
(564,504,o),
(564,349,q),
(564,194,o),
(491,89.5,q),
(418,-15,o),
(300,-15,q),
(182,-15,o),
(109,90,q),
(36,195,o),
(36,349.5,q),
(36,504,o),
(109,609.5,q)
);
},
{
closed = 1;
nodes = (
(242,674,o),
(211.5,582.5,q),
(181,491,o),
(181,349.5,q),
(181,208,o),
(211.5,117,q),
(242,26,o),
(300,26,q),
(358,26,o),
(388.5,117,q),
(419,208,o),
(419,349.5,q),
(419,491,o),
(388.5,582.5,q),
(358,674,o),
(300,674,q)
);
}
);
width = 600;
}
);
unicode = 48;
},
{
category = Letter;
glyphname = one;
layers = (
{
layerId = "488cb3fc-7928-4381-9d20-07afbe5c7c4e";
name = Fore;
shapes = (
{
closed = 1;
nodes = (
(342,40,l),
(472,40,l),
(472,0,l),
(42,0,l),
(42,40,l),
(192,40,l),
(192,577,l),
(99,538,o),
(0,538,q),
(0,578,l),
(92,578,o),
(171.5,612,q),
(251,646,o),
(298,700,q),
(342,700,l)
);
}
);
width = 472;
}
);
unicode = 49;
},
{
category = Letter;
glyphname = two;
layers = (
{
layerId = "488cb3fc-7928-4381-9d20-07afbe5c7c4e";
name = Fore;
shapes = (
{
closed = 1;
nodes = (
(42,0,l),
(42,40,l),
(277,278,l),
(380,382,o),
(380,498,q),
(380,569,o),
(339.5,616,q),
(299,663,o),
(237,663,q),
(192,663,o),
(158,649,q),
(181,641,o),
(196,620.5,q),
(211,600,o),
(211,571,q),
(211,542,o),
(187,518,q),
(163,494,o),
(130,494,q),
(97,494,o),
(74,517.5,q),
(51,541,o),
(51,574,q),
(51,638,o),
(118.5,676.5,q),
(186,715,o),
(287,715,q),
(388,715,o),
(453,661.5,q),
(518,608,o),
(518,530,q),
(518,470,o),
(480,418,q),
(442,366,o),
(339,268,q),
(156,92,l),
(322,92,l),
(386,92,o),
(415,110,q),
(444,128,o),
(454,174,q),
(461,210,l),
(500,210,l),
(527,42,l),
(527,22,o),
(518,12.5,q),
(509,3,o),
(498.5,1.5,q),
(488,0,o),
(466,0,q)
);
}
);
width = 600;
}
);
unicode = 50;
},
{
category = Letter;
glyphname = three;
layers = (
{
layerId = "488cb3fc-7928-4381-9d20-07afbe5c7c4e";
name = Fore;
shapes = (
{
closed = 1;
nodes = (
(226,600,o),
(226,571,q),
(226,542,o),
(202.5,518,q),
(179,494,o),
(146,494,q),
(113,494,o),
(89.5,517.5,q),
(66,541,o),
(66,574,q),
(66,639,o),
(135.5,677,q),
(205,715,o),
(307,715,q),
(409,715,o),
(471,661.5,q),
(533,608,o),
(533,530,q),
(533,472,o),
(496,425.5,q),
(459,379,o),
(394,354,q),
(464,331,o),
(503.5,287,q),
(543,243,o),
(543,190,q),
(543,103,o),
(469.5,44,q),
(396,-15,o),
(278,-15,q),
(189,-15,o),
(122.5,22.5,q),
(56,60,o),
(56,126,q),
(56,159,o),
(79.5,182.5,q),
(103,206,o),
(136,206,q),
(169,206,o),
(192.5,182,q),
(216,158,o),
(216,128.5,q),
(216,99,o),
(199.5,77.5,q),
(183,56,o),
(158,49,q),
(185,37,o),
(222,37,q),
(303,37,o),
(345.5,82.5,q),
(388,128,o),
(388,188.5,q),
(388,249,o),
(348,291,q),
(308,333,o),
(232,333,q),
(178,333,l),
(178,375,l),
(247,375,l),
(321,375,o),
(359.5,421,q),
(398,467,o),
(398,525.5,q),
(398,584,o),
(360.5,623.5,q),
(323,663,o),
(252,663,q),
(207,663,o),
(173,649,q),
(196,641,o),
(211,620.5,q)
);
}
);
width = 600;
}
);
unicode = 51;
},
{
category = Letter;
glyphname = four;
layers = (
{
layerId = "488cb3fc-7928-4381-9d20-07afbe5c7c4e";
name = Fore;
shapes = (
{
closed = 1;
nodes = (
(349,559,o),
(267.5,425.5,q),
(186,292,o),
(80,209,q),
(324,209,l),
(324,410,l),
(409,446,o),
(430,515,q),
(474,515,l),
(474,209,l),
(534,209,l),
(534,159,l),
(474,159,l),
(474,40,l),
(594,40,l),
(594,0,l),
(194,0,l),
(194,40,l),
(324,40,l),
(324,159,l),
(17,159,l),
(17,209,l),
(114,300,o),
(148,450,q),
(175,571,o),
(179,700,q),
(349,700,l)
);
}
);
width = 600;
}
);
unicode = 52;
},
{
category = Letter;
glyphname = five;
layers = (
{
layerId = "488cb3fc-7928-4381-9d20-07afbe5c7c4e";
name = Fore;
shapes = (
{
closed = 1;
nodes = (
(478,700,o),
(488.5,698.5,q),
(499,697,o),
(508,687.5,q),
(517,678,o),
(517,658,q),
(490,490,l),
(451,490,l),
(442,536,l),
(432,582,o),
(403,600,q),
(374,618,o),
(310,618,q),
(174,618,l),
(158,395,l),
(213,415,o),
(262,415,q),
(390,415,o),
(469,353,q),
(548,291,o),
(548,200,q),
(548,109,o),
(474.5,47,q),
(401,-15,o),
(283,-15,q),
(194,-15,o),
(127.5,22.5,q),
(61,60,o),
(61,126,q),
(61,159,o),
(84.5,182.5,q),
(108,206,o),
(141,206,q),
(174,206,o),
(197.5,182,q),
(221,158,o),
(221,128.5,q),
(221,99,o),
(204.5,77.5,q),
(188,56,o),
(163,49,q),
(190,37,o),
(227,37,q),
(308,37,o),
(350.5,85.5,q),
(393,134,o),
(393,200.5,q),
(393,267,o),
(350.5,315,q),
(308,363,o),
(236,363,q),
(164,363,o),
(123,335,q),
(98,364,l),
(121,700,l),
(456,700,l)
);
}
);
width = 600;
}
);
unicode = 53;
},
{
category = Letter;
glyphname = six;
layers = (
{
layerId = "488cb3fc-7928-4381-9d20-07afbe5c7c4e";
name = Fore;
shapes = (
{
closed = 1;
nodes = (
(366,532,o),
(366,561.5,q),
(366,591,o),
(382.5,612.5,q),
(399,634,o),
(425,641,q),
(391,675,o),
(338,675,q),
(199,675,o),
(196,358,q),
(239,425,o),
(331.5,425,q),
(424,425,o),
(485.5,362,q),
(547,299,o),
(547,207,q),
(547,115,o),
(481,50,q),
(415,-15,o),
(304,-15,q),
(59,-15,o),
(59,339,q),
(59,509,o),
(136,612,q),
(213,715,o),
(337,715,q),
(424,715,o),
(475,667,q),
(526,619,o),
(526,564,q),
(526,531,o),
(502.5,507.5,q),
(479,484,o),
(446,484,q),
(413,484,o),
(389.5,508,q)
);
},
{
closed = 1;
nodes = (
(358,374,o),
(304.5,374,q),
(251,374,o),
(222.5,328.5,q),
(194,283,o),
(194,207,q),
(194,131,o),
(222,78.5,q),
(250,26,o),
(302.5,26,q),
(355,26,o),
(383.5,75,q),
(412,124,o),
(412,200.5,q),
(412,277,o),
(385,325.5,q)
);
}
);
width = 600;
}
);
unicode = 54;
},
{
category = Letter;
glyphname = seven;
layers = (
{
layerId = "488cb3fc-7928-4381-9d20-07afbe5c7c4e";
name = Fore;
shapes = (
{
closed = 1;
nodes = (
(323,84,o),
(323,58,q),
(323,32,o),
(299.5,8.5,q),
(276,-15,o),
(242,-15,q),
(208,-15,o),
(185.5,12,q),
(163,39,o),
(163,78,q),
(163,117,o),
(172.5,164.5,q),
(182,212,o),
(204.5,279.5,q),
(227,347,o),
(275.5,429,q),
(324,511,o),
(391,584,q),
(422,618,l),
(237,618,l),
(173,618,o),
(144,600,q),
(115,582,o),
(105,536,q),
(96,490,l),
(57,490,l),
(30,658,l),
(30,678,o),
(39,687.5,q),
(48,697,o),
(58.5,698.5,q),
(69,700,o),
(91,700,q),
(505,700,l),
(505,660,l),
(294,421,o),
(294,225,q),
(294,181,o),
(308.5,132.5,q)
);
}
);
width = 518;
}
);
unicode = 55;
},
{
category = Letter;
glyphname = eight;
layers = (
{
layerId = "488cb3fc-7928-4381-9d20-07afbe5c7c4e";
name = Fore;
shapes = (
{
closed = 1;
nodes = (
(541,579,o),
(541,526.5,q),
(541,474,o),
(505,427,q),
(469,380,o),
(410,355,q),
(478,331,o),
(519.5,283.5,q),
(561,236,o),
(561,180,q),
(561,84,o),
(484,34.5,q),
(407,-15,o),
(300,-15,q),
(205,-15,o),
(126,28,q),
(87,50,o),
(63,89.5,q),
(39,129,o),
(39,182,q),
(39,235,o),
(80.5,283,q),
(122,331,o),
(189,355,q),
(131,380,o),
(95,427,q),
(59,474,o),
(59,533.5,q),
(59,593,o),
(96,636,q),
(163,715,o),
(300,715,q),
(388,715,o),
(460,674,q),
(497,654,o),
(519,616.5,q)
);
},
{
closed = 1;
nodes = (
(411,284,o),
(280,325,q),
(189,283,o),
(189,170,q),
(189,109,o),
(219.5,68,q),
(250,27,o),
(300.5,27,q),
(351,27,o),
(381,68,q),
(411,109,o),
(411,170,q)
);
},
{
closed = 1;
nodes = (
(406,592,o),
(378,632.5,q),
(350,673,o),
(299.5,673,q),
(249,673,o),
(221.5,633.5,q),
(194,594,o),
(194,540,q),
(194,411,o),
(320,381,q),
(406,411,o),
(406,540,q)
);
}
);
width = 600;
}
);
unicode = 56;
},
{
category = Letter;
glyphname = nine;
layers = (
{
layerId = "488cb3fc-7928-4381-9d20-07afbe5c7c4e";
name = Fore;
shapes = (
{
closed = 1;
nodes = (
(227,168,o),
(227,138.5,q),
(227,109,o),
(211.5,88,q),
(196,67,o),
(171,59,q),
(208,25,o),
(265,25,q),
(335,25,o),
(373,93,q),
(411,161,o),
(411,300,q),
(411,307,o),
(410.5,326,q),
(410,345,o),
(410,352,q),
(362,275,o),
(256,275,q),
(171,275,o),
(113.5,334,q),
(56,393,o),
(56,489,q),
(56,585,o),
(122,650,q),
(188,715,o),
(299,715,q),
(426,715,o),
(485,620,q),
(544,525,o),
(544,358,q),
(544,191,o),
(467,88,q),
(390,-15,o),
(266,-15,q),
(182,-15,o),
(124.5,26,q),
(67,67,o),
(67,136,q),
(67,169,o),
(90,192.5,q),
(113,216,o),
(146,216,q),
(179,216,o),
(203,192,q)
);
},
{
closed = 1;
nodes = (
(245,326,o),
(298.5,326,q),
(352,326,o),
(380.5,371.5,q),
(409,417,o),
(409,493,q),
(409,569,o),
(381,621.5,q),
(353,674,o),
(300.5,674,q),
(248,674,o),
(219.5,625,q),
(191,576,o),
(191,499.5,q),
(191,423,o),
(218,374.5,q)
);
}
);
width = 600;
}
);
unicode = 57;
},
{
category = Letter;
glyphname = colon;
layers = (
{
layerId = "488cb3fc-7928-4381-9d20-07afbe5c7c4e";
name = Fore;
shapes = (
{
closed = 1;
nodes = (
(60,94,o),
(82.5,116.5,q),
(105,139,o),
(137,139,q),
(169,139,o),
(191.5,116.5,q),
(214,94,o),
(214,62,q),
(214,30,o),
(191.5,7.5,q),
(169,-15,o),
(137,-15,q),
(105,-15,o),
(82.5,7.5,q),
(60,30,o),
(60,62,q)
);
},
{
closed = 1;
nodes = (
(60,454,o),
(82.5,476.5,q),
(105,499,o),
(137,499,q),
(169,499,o),
(191.5,476.5,q),
(214,454,o),
(214,422,q),
(214,390,o),
(191.5,367.5,q),
(169,345,o),
(137,345,q),
(105,345,o),
(82.5,367.5,q),
(60,390,o),
(60,422,q)
);
}
);
width = 274;
}
);
unicode = 58;
},
{
category = Letter;
glyphname = semicolon;
layers = (
{
layerId = "488cb3fc-7928-4381-9d20-07afbe5c7c4e";
name = Fore;
shapes = (
{
closed = 1;
nodes = (
(111,-93,o),
(111,-55.5,q),
(111,-18,o),
(85.5,3.5,q),
(60,25,o),
(60,59.5,q),
(60,94,o),
(82.5,116.5,q),
(105,139,o),
(137.5,139,q),
(170,139,o),
(192,114,q),
(214,89,o),
(214,46,q),
(214,-66,o),
(94,-169,q),
(67,-144,l)
);
},
{
closed = 1;
nodes = (
(60,454,o),
(82.5,476.5,q),
(105,499,o),
(137,499,q),
(169,499,o),
(191.5,476.5,q),
(214,454,o),
(214,422,q),
(214,390,o),
(191.5,367.5,q),
(169,345,o),
(137,345,q),
(105,345,o),
(82.5,367.5,q),
(60,390,o),
(60,422,q)
);
}
);
width = 274;
}
);
unicode = 59;
},
{
category = Letter;
glyphname = less;
layers = (
{
layerId = "488cb3fc-7928-4381-9d20-07afbe5c7c4e";
name = Fore;
shapes = (
{
closed = 1;
nodes = (
(90,380,l),
(470,540,l),
(470,480,l),
(161,350,l),
(470,220,l),
(470,160,l),
(90,320,l)
);
}
);
width = 560;
}
);
unicode = 60;
},
{
category = Letter;
glyphname = equal;
layers = (
{
layerId = "488cb3fc-7928-4381-9d20-07afbe5c7c4e";
name = Fore;
shapes = (
{
closed = 1;
nodes = (
(90,280,l),
(470,280,l),
(470,220,l),
(90,220,l)
);
},
{
closed = 1;
nodes = (
(90,480,l),
(470,480,l),
(470,420,l),
(90,420,l)
);
}
);
width = 560;
}
);
unicode = 61;
},
{
category = Letter;
glyphname = greater;
layers = (
{
layerId = "488cb3fc-7928-4381-9d20-07afbe5c7c4e";
name = Fore;
shapes = (
{
closed = 1;
nodes = (
(470,320,l),
(90,160,l),
(90,220,l),
(399,350,l),
(90,480,l),
(90,540,l),
(470,380,l)
);
}
);
width = 560;
}
);
unicode = 62;
},
{
category = Letter;
glyphname = question;
layers = (
{
layerId = "488cb3fc-7928-4381-9d20-07afbe5c7c4e";
name = Fore;
shapes = (
{
closed = 1;
nodes = (
(342,460,o),
(342,519,q),
(342,578,o),
(307,620.5,q),
(272,663,o),
(206,663,q),
(174,663,o),
(149,652,q),
(176,645,o),
(193,623.5,q),
(210,602,o),
(210,572,q),
(210,542,o),
(186,518,q),
(162,494,o),
(129,494,q),
(96,494,o),
(73,517.5,q),
(50,541,o),
(50,574,q),
(50,641,o),
(113.5,678,q),
(177,715,o),
(267.5,715,q),
(358,715,o),
(417.5,661.5,q),
(477,608,o),
(477,531,q),
(477,454,o),
(425,396.5,q),
(373,339,o),
(283,319,q),
(269,203,l),
(215,203,l),
(198,349,l),
(276,363,o),
(309,411.5,q)
);
},
{
closed = 1;
nodes = (
(165,94,o),
(187.5,116.5,q),
(210,139,o),
(242,139,q),
(274,139,o),
(296.5,116.5,q),
(319,94,o),
(319,62,q),
(319,30,o),
(296.5,7.5,q),
(274,-15,o),
(242,-15,q),
(210,-15,o),
(187.5,7.5,q),
(165,30,o),
(165,62,q)
);
}
);
width = 527;
}
);
unicode = 63;
},
{
category = Letter;
glyphname = at;
layers = (
{
layerId = "488cb3fc-7928-4381-9d20-07afbe5c7c4e";
name = Fore;
shapes = (
{
closed = 1;
nodes = (
(437,-198,o),
(354,-162.5,q),
(271,-127,o),
(211,-67,q),
(151,-7,o),
(115.5,76,q),
(80,159,o),
(80,249,q),
(80,339,o),
(115.5,422,q),
(151,505,o),
(211,565,q),
(271,625,o),
(354,660.5,q),
(437,696,o),
(527,696,q),
(617,696,o),
(700,660.5,q),
(783,625,o),
(843,565,q),
(903,505,o),
(938.5,422,q),
(974,339,o),
(974,262.5,q),
(974,186,o),
(954.5,136,q),
(935,86,o),
(903,56,q),
(838,-3,o),
(758,-3,q),
(707,-3,o),
(667,22.5,q),
(627,48,o),
(615,93,q),
(605,93,l),
(553,22,o),
(468,22,q),
(383,22,o),
(334.5,87.5,q),
(286,153,o),
(286,250,q),
(286,347,o),
(341.5,411.5,q),
(397,476,o),
(496,476,q),
(567,476,o),
(608,430,q),
(632,465,l),
(740,465,l),
(740,143,l),
(740,102,o),
(756.5,80,q),
(773,58,o),
(803,58,q),
(847,58,o),
(885,108.5,q),
(923,159,o),
(923,249,q),
(923,412,o),
(806.5,528.5,q),
(690,645,o),
(527,645,q),
(364,645,o),
(247.5,528.5,q),
(131,412,o),
(131,249,q),
(131,86,o),
(247.5,-30.5,q),
(364,-147,o),
(527,-147,q),
(635,-147,o),
(728,-92,q),
(751,-136,l),
(646,-198,o),
(527,-198,q)
);
},
{
closed = 1;
nodes = (
(429,174,o),
(450.5,129,q),
(472,84,o),
(516,84,q),
(541,84,o),
(563.5,99,q),
(586,114,o),
(597,139,q),
(597,368,l),
(586,390,o),
(563,402.5,q),
(540,415,o),
(516,415,q),
(472,415,o),
(450.5,370.5,q),
(429,326,o),
(429,250,q)
);
}
);
width = 1054;
}
);
unicode = 64;
},
{
category = Letter;
glyphname = A;
kernLeft = A.2;
kernRight = A;
layers = (
{
layerId = "488cb3fc-7928-4381-9d20-07afbe5c7c4e";
name = Fore;
shapes = (
{
closed = 1;
nodes = (
(169,700,l),
(407,700,l),
(606,40,l),
(656,40,l),
(656,0,l),
(398,0,l),
(398,40,l),
(456,40,l),
(419,163,l),
(147,163,l),
(111,40,l),
(169,40,l),
(169,0,l),
(0,0,l),
(0,40,l),
(50,40,l),
(237,660,l),
(169,660,l)
);
},
{
closed = 1;
nodes = (
(161,208,l),
(405,208,l),
(282,617,l)
);
}
);
width = 656;
}
);
unicode = 65;
},
{
category = Letter;
glyphname = B;
layers = (
{
layerId = "488cb3fc-7928-4381-9d20-07afbe5c7c4e";
name = Fore;
shapes = (
{
closed = 1;
nodes = (
(70,700,l),
(310,700,l),
(623,700,o),
(623,510,q),
(623,378,o),
(468,338,q),
(468,331,l),
(653,303,o),
(653,179,q),
(653,89,o),
(571,44.5,q),
(489,0,o),
(340,0,q),
(70,0,l),
(70,40,l),
(130,40,l),
(130,660,l),
(70,660,l)
);
},
{
closed = 1;
nodes = (
(280,313,l),
(280,40,l),
(330,40,l),
(402,40,o),
(450,76,q),
(498,112,o),
(498,176.5,q),
(498,241,o),
(450,277,q),
(402,313,o),
(330,313,q)
);
},
{
closed = 1;
nodes = (
(280,660,l),
(280,351,l),
(309,351,l),
(380,351,o),
(426.5,393,q),
(473,435,o),
(473,508,q),
(473,581,o),
(426.5,620.5,q),
(380,660,o),
(309,660,q)
);
}
);
width = 708;
}
);
unicode = 66;
},
{
category = Letter;
glyphname = C;
layers = (
{
layerId = "488cb3fc-7928-4381-9d20-07afbe5c7c4e";
name = Fore;
shapes = (
{
closed = 1;
nodes = (
(295,668,o),
(250,578.5,q),
(205,489,o),
(205,355,q),
(205,221,o),
(252.5,136,q),
(300,51,o),
(389,51,q),
(439,51,o),
(481,72,q),
(523,93,o),
(544.5,116,q),
(566,139,o),
(590,174,q),
(625,149,l),
(577,72,o),
(517.5,28.5,q),
(458,-15,o),
(365,-15,q),
(226,-15,o),
(138,90,q),
(50,195,o),
(50,351,q),
(50,507,o),
(138,611,q),
(226,715,o),
(382,715,q),
(463,715,o),
(538,683,q),
(613,651,o),
(613,607,q),
(613,590,o),
(602,568,q),
(542,452,l),
(506,463,l),
(515,525,l),
(519,549,o),
(519,571,q),
(519,610,o),
(481,639,q),
(443,668,o),
(382,668,q)
);
}
);
width = 650;
}
);
unicode = 67;
},
{
category = Letter;
glyphname = D;
layers = (
{
layerId = "488cb3fc-7928-4381-9d20-07afbe5c7c4e";
name = Fore;
shapes = (
{
closed = 1;
nodes = (
(340,700,l),
(520,700,o),
(631,602.5,q),
(742,505,o),
(742,350.5,q),
(742,196,o),
(631,98,q),
(520,0,o),
(340,0,q),
(70,0,l),
(70,40,l),
(150,40,l),
(150,660,l),
(70,660,l),
(70,700,l)
);
},
{
closed = 1;
nodes = (
(300,660,l),
(300,40,l),
(340,40,l),
(456,40,o),
(521.5,123.5,q),
(587,207,o),
(587,350,q),
(587,493,o),
(521.5,576.5,q),
(456,660,o),
(340,660,q)
);
}
);
width = 782;
}
);
unicode = 68;
},
{
category = Letter;
glyphname = E;
layers = (
{
layerId = "488cb3fc-7928-4381-9d20-07afbe5c7c4e";
name = Fore;
shapes = (
{
closed = 1;
nodes = (
(70,0,l),
(70,40,l),
(130,40,l),
(130,660,l),
(70,660,l),
(70,700,l),
(499,700,l),
(521,700,o),
(531.5,698.5,q),
(542,697,o),
(551,687.5,q),
(560,678,o),
(560,658,q),
(533,490,l),
(494,490,l),
(474,589,l),
(465,634,o),
(440.5,647,q),
(416,660,o),
(350,660,q),
(280,660,l),
(280,318,l),
(510,318,l),
(510,273,l),
(280,273,l),
(280,40,l),
(370,40,l),
(435,40,o),
(459.5,53,q),
(484,66,o),
(494,111,q),
(514,200,l),
(553,200,l),
(580,42,l),
(580,22,o),
(571,12.5,q),
(562,3,o),
(551.5,1.5,q),
(541,0,o),
(519,0,q)
);
}
);
width = 630;
}
);
unicode = 69;
},
{
category = Letter;
glyphname = F;
layers = (
{
layerId = "488cb3fc-7928-4381-9d20-07afbe5c7c4e";
name = Fore;
shapes = (
{
closed = 1;
nodes = (
(280,660,l),
(280,318,l),
(490,318,l),
(490,273,l),
(280,273,l),
(280,40,l),
(390,40,l),
(390,0,l),
(70,0,l),
(70,40,l),
(130,40,l),
(130,660,l),
(70,660,l),
(70,700,l),
(499,700,l),
(521,700,o),
(531.5,698.5,q),
(542,697,o),
(551,687.5,q),
(560,678,o),
(560,658,q),
(533,490,l),
(494,490,l),
(474,589,l),
(465,634,o),
(440.5,647,q),
(416,660,o),
(350,660,q)
);
}
);
width = 570;
}
);
unicode = 70;
},
{
category = Letter;
glyphname = G;
layers = (
{
layerId = "488cb3fc-7928-4381-9d20-07afbe5c7c4e";
name = Fore;
shapes = (
{
closed = 1;
nodes = (
(350,318,l),
(635,318,l),
(635,-22,l),
(635,-132,o),
(569,-184.5,q),
(503,-237,o),
(391,-237,q),
(325,-237,o),
(264.5,-203.5,q),
(204,-170,o),
(204,-112,q),
(204,-101,o),
(211,-80,q),
(245,8,l),
(157,47,o),
(103.5,140,q),
(50,233,o),
(50,349,q),
(50,507,o),
(140.5,611,q),
(231,715,o),
(392,715,q),
(473,715,o),
(548,683,q),
(623,651,o),
(623,607,q),
(623,590,o),
(612,568,q),
(556,476,l),
(520,488,l),
(525,525,l),
(529,549,o),
(529,571,q),
(529,610,o),
(491,639,q),
(453,668,o),
(392,668,q),
(300,668,o),
(252.5,578.5,q),
(205,489,o),
(205,354.5,q),
(205,220,o),
(256.5,135.5,q),
(308,51,o),
(407,51,q),
(447,51,o),
(485,67,q),
(485,273,l),
(350,273,l)
);
},
{
closed = 1;
nodes = (
(320,-15,o),
(288,-6,q),
(288,-37,l),
(288,-151,o),
(336,-178,q),
(358,-190,o),
(396.5,-190,q),
(435,-190,o),
(460,-162.5,q),
(485,-135,o),
(485,-80,q),
(485,11,l),
(425,-15,o),
(355,-15,q)
);
}
);
width = 700;
}
);
unicode = 71;
},
{
category = Letter;
glyphname = H;
layers = (
{
layerId = "488cb3fc-7928-4381-9d20-07afbe5c7c4e";
name = Fore;
shapes = (
{
closed = 1;
nodes = (
(680,40,l),
(740,40,l),
(740,0,l),
(470,0,l),
(470,40,l),
(530,40,l),
(530,273,l),
(280,273,l),
(280,40,l),
(340,40,l),
(340,0,l),
(70,0,l),
(70,40,l),
(130,40,l),
(130,660,l),
(70,660,l),
(70,700,l),
(340,700,l),
(340,660,l),
(280,660,l),
(280,318,l),
(530,318,l),
(530,660,l),
(470,660,l),
(470,700,l),
(740,700,l),
(740,660,l),
(680,660,l)
);
}
);
width = 810;
}
);
unicode = 72;
},
{
category = Letter;
glyphname = I;
layers = (
{
layerId = "488cb3fc-7928-4381-9d20-07afbe5c7c4e";
name = Fore;
shapes = (
{
closed = 1;
nodes = (
(60,700,l),
(350,700,l),
(350,660,l),
(280,660,l),
(280,40,l),
(350,40,l),
(350,0,l),
(60,0,l),
(60,40,l),
(130,40,l),
(130,660,l),
(60,660,l)
);
}
);
width = 410;
}
);
unicode = 73;
},
{
category = Letter;
glyphname = J;
kernLeft = J;
layers = (
{
layerId = "488cb3fc-7928-4381-9d20-07afbe5c7c4e";
name = Fore;
shapes = (
{
closed = 1;
nodes = (
(415,190,l),
(415,85,o),
(351.5,35,q),
(288,-15,o),
(181,-15,q),
(120,-15,o),
(65,17,q),
(10,49,o),
(10,93,q),
(10,110,o),
(21,132,q),
(81,248,l),
(117,237,l),
(108,175,l),
(104,140,o),
(104,109,q),
(104,78,o),
(125.5,55,q),
(147,32,o),
(183.5,32,q),
(220,32,o),
(242.5,57,q),
(265,82,o),
(265,132,q),
(265,660,l),
(170,660,l),
(170,700,l),
(475,700,l),
(475,660,l),
(415,660,l)
);
}
);
width = 535;
}
);
unicode = 74;
},
{
category = Letter;
glyphname = K;
layers = (
{
layerId = "488cb3fc-7928-4381-9d20-07afbe5c7c4e";
name = Fore;
shapes = (
{
closed = 1;
nodes = (
(70,700,l),
(340,700,l),
(340,660,l),
(280,660,l),
(280,355,l),
(493,700,l),
(652,700,l),
(652,660,l),
(597,660,l),
(307,335,l),
(372,335,l),
(500,335,o),
(529,238,q),
(571,98,l),
(578,73,o),
(589,63,q),
(600,53,o),
(626,53,q),
(652,53,o),
(687,82,q),
(705,58,l),
(625,-15,o),
(535,-15,q),
(489,-15,o),
(461,1,q),
(433,17,o),
(421,57,q),
(362,251,l),
(354,279,o),
(337,290,q),
(320,301,o),
(280,303,q),
(280,40,l),
(340,40,l),
(340,0,l),
(70,0,l),
(70,40,l),
(130,40,l),
(130,660,l),
(70,660,l)
);
}
);
width = 685;
}
);
unicode = 75;
},
{
category = Letter;
glyphname = L;
kernRight = L;
layers = (
{
layerId = "488cb3fc-7928-4381-9d20-07afbe5c7c4e";
name = Fore;
shapes = (
{
closed = 1;
nodes = (
(70,700,l),
(340,700,l),
(340,660,l),
(280,660,l),
(280,40,l),
(350,40,l),
(416,40,o),
(440.5,53,q),
(465,66,o),
(474,111,q),
(494,210,l),
(533,210,l),
(560,42,l),
(560,22,o),
(551,12.5,q),
(542,3,o),
(531.5,1.5,q),
(521,0,o),
(499,0,q),
(70,0,l),
(70,40,l),
(130,40,l),
(130,660,l),
(70,660,l)
);
}
);
width = 570;
}
);
unicode = 76;
},
{
category = Letter;
glyphname = M;
layers = (
{
layerId = "488cb3fc-7928-4381-9d20-07afbe5c7c4e";
name = Fore;
shapes = (
{
closed = 1;
nodes = (
(48,700,l),
(269,700,l),
(451,101,l),
(623,700,l),
(850,700,l),
(850,660,l),
(782,660,l),
(818,40,l),
(878,40,l),
(878,0,l),
(610,0,l),
(610,40,l),
(667,40,l),
(636,535,l),
(482,0,l),
(331,0,l),
(168,534,l),
(140,40,l),
(198,40,l),
(198,0,l),
(20,0,l),
(20,40,l),
(80,40,l),
(115,660,l),
(48,660,l)
);
}
);
width = 908;
}
);
unicode = 77;
},
{
category = Letter;
glyphname = N;
layers = (
{
layerId = "488cb3fc-7928-4381-9d20-07afbe5c7c4e";
name = Fore;
shapes = (
{
closed = 1;
nodes = (
(60,40,l),
(120,40,l),
(120,660,l),
(60,660,l),
(60,700,l),
(294,700,l),
(580,137,l),
(580,660,l),
(520,660,l),
(520,700,l),
(710,700,l),
(710,660,l),
(650,660,l),
(650,0,l),
(491,0,l),
(190,592,l),
(190,40,l),
(250,40,l),
(250,0,l),
(60,0,l)
);
}
);
width = 770;
}
);
unicode = 78;
},
{
category = Letter;
glyphname = O;
layers = (
{
layerId = "488cb3fc-7928-4381-9d20-07afbe5c7c4e";
name = Fore;
shapes = (
{
closed = 1;
nodes = (
(223,715,o),
(383.5,715,q),
(544,715,o),
(631,612,q),
(718,509,o),
(718,349.5,q),
(718,190,o),
(631,87.5,q),
(544,-15,o),
(383.5,-15,q),
(223,-15,o),
(136.5,87.5,q),
(50,190,o),
(50,349,q),
(50,508,o),
(136.5,611.5,q)
);
},
{
closed = 1;
nodes = (
(325,668,o),
(284,622,q),
(205,536,o),
(205,349,q),
(205,163,o),
(284,78,q),
(326,32,o),
(384,32,q),
(470,32,o),
(516.5,124,q),
(563,216,o),
(563,349.5,q),
(563,483,o),
(516.5,575.5,q),
(470,668,o),
(384,668,q)
);
}
);
width = 768;
}
);
unicode = 79;
},
{
category = Letter;
glyphname = P;
layers = (
{
layerId = "488cb3fc-7928-4381-9d20-07afbe5c7c4e";
name = Fore;
shapes = (
{
closed = 1;
nodes = (
(70,700,l),
(290,700,l),
(536,700,o),
(598,582,q),
(623,536,o),
(623,470,q),
(623,404,o),
(598.5,358,q),
(574,312,o),
(527,287,q),
(439,240,o),
(290,240,q),
(280,240,l),
(280,40,l),
(360,40,l),
(360,0,l),
(70,0,l),
(70,40,l),
(130,40,l),
(130,660,l),
(70,660,l)
);
},
{
closed = 1;
nodes = (
(280,660,l),
(280,280,l),
(290,280,l),
(369,280,o),
(421,330,q),
(473,380,o),
(473,470,q),
(473,560,o),
(421,610,q),
(369,660,o),
(290,660,q)
);
}
);
width = 658;
}
);
unicode = 80;
},
{
category = Letter;
glyphname = Q;
layers = (
{
layerId = "488cb3fc-7928-4381-9d20-07afbe5c7c4e";
name = Fore;
shapes = (
{
closed = 1;
nodes = (
(223,715,o),
(383.5,715,q),
(544,715,o),
(631,612,q),
(718,509,o),
(718,349,q),
(718,219,o),
(658.5,124.5,q),
(599,30,o),
(488,-1,q),
(501,-71,l),
(511,-129,o),
(561,-129,q),
(588,-129,o),
(631,-90,q),
(658,-114,l),
(635,-140,o),
(618,-155,q),
(601,-170,o),
(572.5,-183.5,q),
(544,-197,o),
(514,-197,q),
(392,-197,o),
(365,-50,q),
(358,-14,l),
(210,-5,o),
(130,96,q),
(50,197,o),
(50,352.5,q),
(50,508,o),
(136.5,611.5,q)
);
},
{
closed = 1;
nodes = (
(325,668,o),
(284,622,q),
(205,536,o),
(205,349,q),
(205,275,o),
(218,216,q),
(272,261,o),
(333,261,q),
(440,261,o),
(467,114,q),
(475,69,l),
(518,109,o),
(540.5,184,q),
(563,259,o),
(563,349,q),
(563,483,o),
(516.5,575.5,q),
(470,668,o),
(384,668,q)
);
},
{
closed = 1;
nodes = (
(253,193,o),
(229,175,q),
(267,59,o),
(349,36,q),
(331,135,l),
(327,162,o),
(311,177.5,q),
(295,193,o),
(274,193,q)
);
}
);
width = 768;
}
);
unicode = 81;
},
{
category = Letter;
glyphname = R;
layers = (
{
layerId = "488cb3fc-7928-4381-9d20-07afbe5c7c4e";
name = Fore;
shapes = (
{
closed = 1;
nodes = (
(70,700,l),
(290,700,l),
(533,700,o),
(598,588,q),
(623,544,o),
(623,481,q),
(623,335,o),
(457,285,q),
(520,264,o),
(541,198,q),
(571,98,l),
(578,73,o),
(589,63,q),
(600,53,o),
(626,53,q),
(652,53,o),
(687,82,q),
(705,58,l),
(625,-15,o),
(535,-15,q),
(489,-15,o),
(461,1,q),
(433,17,o),
(421,57,q),
(374,211,l),
(365,240,o),
(346,251,q),
(327,262,o),
(280,263,q),
(280,40,l),
(360,40,l),
(360,0,l),
(70,0,l),
(70,40,l),
(130,40,l),
(130,660,l),
(70,660,l)
);
},
{
closed = 1;
nodes = (
(280,660,l),
(280,303,l),
(290,303,l),
(369,303,o),
(421,349.5,q),
(473,396,o),
(473,481,q),
(473,566,o),
(421,613,q),
(369,660,o),
(290,660,q)
);
}
);
width = 695;
}
);
unicode = 82;
},
{
category = Letter;
glyphname = S;
layers = (
{
layerId = "488cb3fc-7928-4381-9d20-07afbe5c7c4e";
name = Fore;
shapes = (
{
closed = 1;
nodes = (
(139,90,o),
(177,61,q),
(215,32,o),
(275,32,q),
(335,32,o),
(370,61,q),
(405,90,o),
(405,138,q),
(405,199,o),
(332,239,q),
(184,318,l),
(56,387,o),
(56,515,q),
(56,597,o),
(116,656,q),
(176,715,o),
(295,715,q),
(375,715,o),
(447,683,q),
(519,651,o),
(519,607,q),
(519,590,o),
(508,568,q),
(460,476,l),
(425,487,l),
(425,571,l),
(425,616,o),
(385.5,642,q),
(346,668,o),
(291.5,668,q),
(237,668,o),
(208,636,q),
(179,604,o),
(179,563,q),
(179,481,o),
(253,442,q),
(380,375,l),
(525,299,o),
(525,175,q),
(525,81,o),
(454.5,33,q),
(384,-15,o),
(276,-15,q),
(195,-15,o),
(120,17,q),
(45,49,o),
(45,93,q),
(45,110,o),
(56,132,q),
(104,224,l),
(139,213,l),
(139,129,l)
);
}
);
width = 570;
}
);
unicode = 83;
},
{
category = Letter;
glyphname = T;
kernLeft = T.2;
kernRight = T;
layers = (
{
layerId = "488cb3fc-7928-4381-9d20-07afbe5c7c4e";
name = Fore;
shapes = (
{
closed = 1;
nodes = (
(385,660,l),
(385,40,l),
(485,40,l),
(485,0,l),
(135,0,l),
(135,40,l),
(235,40,l),
(235,660,l),
(225,660,l),
(159,660,o),
(134.5,647,q),
(110,634,o),
(101,589,q),
(81,490,l),
(42,490,l),
(15,658,l),
(15,678,o),
(24,687.5,q),
(33,697,o),
(43.5,698.5,q),
(54,700,o),
(76,700,q),
(544,700,l),
(566,700,o),
(576.5,698.5,q),
(587,697,o),
(596,687.5,q),
(605,678,o),
(605,658,q),
(578,490,l),
(539,490,l),
(519,589,l),
(510,634,o),
(485.5,647,q),
(461,660,o),
(395,660,q)
);
}
);
width = 620;
}
);
unicode = 84;
},
{
category = Letter;
glyphname = U;
layers = (
{
layerId = "488cb3fc-7928-4381-9d20-07afbe5c7c4e";
name = Fore;
shapes = (
{
closed = 1;
nodes = (
(485,700,l),
(675,700,l),
(675,660,l),
(615,660,l),
(615,241,l),
(615,169,o),
(593.5,117,q),
(572,65,o),
(534,37,q),
(463,-15,o),
(357,-15,q),
(251,-15,o),
(178,38,q),
(139,65,o),
(117,117,q),
(95,169,o),
(95,242,q),
(95,660,l),
(35,660,l),
(35,700,l),
(305,700,l),
(305,660,l),
(245,660,l),
(245,210,l),
(245,132,o),
(287,90,q),
(329,48,o),
(390.5,48,q),
(452,48,o),
(498.5,90.5,q),
(545,133,o),
(545,210,q),
(545,660,l),
(485,660,l)
);
}
);
width = 700;
}
);
unicode = 85;
},
{
category = Letter;
glyphname = V;
kernLeft = V.2;
kernRight = V;
layers = (
{
layerId = "488cb3fc-7928-4381-9d20-07afbe5c7c4e";
name = Fore;
shapes = (
{
closed = 1;
nodes = (
(25,700,l),
(236,700,l),
(271,165,l),
(278,63,o),
(364,63,q),
(428,63,o),
(475,111,q),
(567,205,o),
(567,390,q),
(567,493,o),
(531,573,q),
(513,613,o),
(484,625.5,q),
(455,638,o),
(407,638,q),
(369,638,l),
(363,675,l),
(467,710,l),
(484,715,o),
(497,715,q),
(510,715,o),
(519,711,q),
(555,696,o),
(590,619.5,q),
(625,543,o),
(625,414,q),
(625,248,o),
(554,121,q),
(520,59,o),
(461.5,22,q),
(403,-15,o),
(328,-15,q),
(218,-15,o),
(170.5,44,q),
(123,103,o),
(115,225,q),
(87,660,l),
(25,660,l)
);
}
);
width = 685;
}
);
unicode = 86;
},
{
category = Letter;
glyphname = W;
kernLeft = V.2;
kernRight = V;
layers = (
{
layerId = "488cb3fc-7928-4381-9d20-07afbe5c7c4e";
name = Fore;
shapes = (
{
closed = 1;
nodes = (
(25,700,l),
(236,700,l),
(271,165,l),
(278,63,o),
(364,63,q),
(457,63,o),
(512,173,q),
(509,189,o),
(507,225,q),
(479,660,l),
(417,660,l),
(417,700,l),
(628,700,l),
(663,165,l),
(670,63,o),
(756,63,q),
(813,63,o),
(856,111,q),
(939,205,o),
(939,390,q),
(939,493,o),
(903,573,q),
(885,613,o),
(856,625.5,q),
(827,638,o),
(779,638,q),
(741,638,l),
(735,675,l),
(839,710,l),
(856,715,o),
(869,715,q),
(882,715,o),
(891,711,q),
(927,696,o),
(962,619.5,q),
(997,543,o),
(997,414,q),
(997,246,o),
(932,121,q),
(899,59,o),
(844.5,22,q),
(790,-15,o),
(720,-15,q),
(575,-15,o),
(531,97,q),
(455,-15,o),
(328,-15,q),
(218,-15,o),
(170.5,44,q),
(123,103,o),
(115,225,q),
(87,660,l),
(25,660,l)
);
}
);
width = 1057;
}
);
unicode = 87;
},
{
category = Letter;
glyphname = X;
layers = (
{
layerId = "488cb3fc-7928-4381-9d20-07afbe5c7c4e";
name = Fore;
shapes = (
{
closed = 1;
nodes = (
(35,40,l),
(85,40,l),
(275,321,l),
(98,660,l),
(45,660,l),
(45,700,l),
(244,700,l),
(376,448,l),
(493,700,l),
(647,700,l),
(647,660,l),
(597,660,l),
(410,383,l),
(560,98,l),
(573,72,o),
(585.5,62.5,q),
(598,53,o),
(616,53,q),
(650,53,o),
(679,82,q),
(701,58,l),
(639,-15,o),
(546,-15,q),
(499,-15,o),
(467,0.5,q),
(435,16,o),
(414,57,q),
(308,258,l),
(189,0,l),
(35,0,l)
);
}
);
width = 696;
}
);
unicode = 88;
},
{
category = Letter;
glyphname = Y;
kernLeft = Y.2;
kernRight = Y;
layers = (
{
layerId = "488cb3fc-7928-4381-9d20-07afbe5c7c4e";
name = Fore;
shapes = (
{
closed = 1;
nodes = (
(135,40,l),
(235,40,l),
(235,250,l),
(53,660,l),
(5,660,l),
(5,700,l),
(203,700,l),
(361,308,l),
(451,700,l),
(602,700,l),
(602,660,l),
(555,660,l),
(385,250,l),
(385,40,l),
(485,40,l),
(485,0,l),
(135,0,l)
);
}
);
width = 607;
}
);
unicode = 89;
},
{
category = Letter;
glyphname = Z;
layers = (
{
layerId = "488cb3fc-7928-4381-9d20-07afbe5c7c4e";
name = Fore;
shapes = (
{
closed = 1;
nodes = (
(30,0,l),
(30,40,l),
(393,660,l),
(260,660,l),
(194,660,o),
(169.5,647,q),
(145,634,o),
(136,589,q),
(116,490,l),
(77,490,l),
(50,658,l),
(50,678,o),
(59,687.5,q),
(68,697,o),
(78.5,698.5,q),
(89,700,o),
(111,700,q),
(555,700,l),
(555,660,l),
(199,40,l),
(350,40,l),
(415,40,o),
(439.5,53,q),
(464,66,o),
(474,111,q),
(494,200,l),
(533,200,l),
(560,42,l),
(560,22,o),
(551,12.5,q),
(542,3,o),
(531.5,1.5,q),
(521,0,o),
(499,0,q)
);
}
);
width = 590;
}
);
unicode = 90;
},
{
category = Letter;
glyphname = bracketleft;
layers = (
{
layerId = "488cb3fc-7928-4381-9d20-07afbe5c7c4e";
name = Fore;
shapes = (
{
closed = 1;
nodes = (
(275,96,l),
(275,43,o),
(304,21.5,q),
(333,0,o),
(398,0,q),
(404,-23,l),
(342,-50,o),
(276.5,-50,q),
(211,-50,o),
(170.5,-18.5,q),
(130,13,o),
(130,74,q),
(130,626,l),
(130,687,o),
(170.5,718.5,q),
(211,750,o),
(276.5,750,q),
(342,750,o),
(404,723,q),
(398,700,l),
(333,700,o),
(304,678.5,q),
(275,657,o),
(275,604,q)
);
}
);
width = 434;
}
);
unicode = 91;
},
{
category = Letter;
glyphname = backslash;
layers = (
{
layerId = "488cb3fc-7928-4381-9d20-07afbe5c7c4e";
name = Fore;
shapes = (
{
closed = 1;
nodes = (
(30,700,l),
(120,700,l),
(380,0,l),
(290,0,l)
);
}
);
width = 410;
}
);
unicode = 92;
},
{
category = Letter;
glyphname = bracketright;
layers = (
{
layerId = "488cb3fc-7928-4381-9d20-07afbe5c7c4e";
name = Fore;
shapes = (
{
closed = 1;
nodes = (
(159,604,l),
(159,657,o),
(130,678.5,q),
(101,700,o),
(36,700,q),
(30,723,l),
(92,750,o),
(157.5,750,q),
(223,750,o),
(263.5,718.5,q),
(304,687,o),
(304,626,q),
(304,74,l),
(304,13,o),
(263.5,-18.5,q),
(223,-50,o),
(157.5,-50,q),
(92,-50,o),
(30,-23,q),
(36,0,l),
(101,0,o),
(130,21.5,q),
(159,43,o),
(159,96,q)
);
}
);
width = 434;
}
);
unicode = 93;
},
{
category = Letter;
glyphname = asciicircum;
layers = (
{
layerId = "488cb3fc-7928-4381-9d20-07afbe5c7c4e";
name = Fore;
shapes = (
{
closed = 1;
nodes = (
(315,700,l),
(465,440,l),
(400,440,l),
(280,649,l),
(160,440,l),
(95,440,l),
(245,700,l)
);
}
);
width = 560;
}
);
unicode = 94;
},
{
category = Letter;
glyphname = underscore;
layers = (
{
layerId = "488cb3fc-7928-4381-9d20-07afbe5c7c4e";
name = Fore;
shapes = (
{
closed = 1;
nodes = (
(75,0,l),
(519,0,l),
(519,-60,l),
(75,-60,l)
);
}
);
width = 594;
}
);
unicode = 95;
},
{
category = Letter;
glyphname = grave;
layers = (
{
layerId = "488cb3fc-7928-4381-9d20-07afbe5c7c4e";
name = Fore;
shapes = (
{
closed = 1;
nodes = (
(60,765,o),
(79.5,765,q),
(99,765,o),
(112.5,758,q),
(126,751,o),
(134.5,742.5,q),
(143,734,o),
(160,715,q),
(279,583,l),
(258,559,l),
(110,632,l),
(63,655,o),
(45,672.5,q),
(27,690,o),
(27,713,q),
(27,736,o),
(43.5,750.5,q)
);
}
);
width = 371;
}
);
unicode = 96;
},
{
category = Letter;
glyphname = a;
kernLeft = a;
layers = (
{
layerId = "488cb3fc-7928-4381-9d20-07afbe5c7c4e";
name = Fore;
shapes = (
{
closed = 1;
nodes = (
(597,111,l),
(597,84,o),
(610,68.5,q),
(623,53,o),
(650,53,q),
(677,53,o),
(712,82,q),
(730,58,l),
(650,-15,o),
(570,-15,q),
(475,-15,o),
(453,74,q),
(401,-15,o),
(300,-15,q),
(185,-15,o),
(125,59.5,q),
(65,134,o),
(65,249.5,q),
(65,365,o),
(129.5,440,q),
(194,515,o),
(310,515,q),
(399,515,o),
(447,444,q),
(447,500,l),
(597,500,l)
);
},
{
closed = 1;
nodes = (
(220,154,o),
(248,98,q),
(276,42,o),
(333.5,42,q),
(391,42,o),
(421.5,98.5,q),
(452,155,o),
(452,250,q),
(452,345,o),
(421.5,401.5,q),
(391,458,o),
(333.5,458,q),
(276,458,o),
(248,402,q),
(220,346,o),
(220,250,q)
);
}
);
width = 710;
}
);
unicode = 97;
},
{
category = Letter;
glyphname = b;
layers = (
{
layerId = "488cb3fc-7928-4381-9d20-07afbe5c7c4e";
name = Fore;
shapes = (
{
closed = 1;
nodes = (
(261,436,l),
(314,515,o),
(408,515,q),
(523,515,o),
(583,440.5,q),
(643,366,o),
(643,250.5,q),
(643,135,o),
(578.5,60,q),
(514,-15,o),
(398,-15,q),
(309,-15,o),
(261,56,q),
(261,0,l),
(111,0,l),
(111,717,l),
(56,703,o),
(27,668,q),
(0,699,l),
(29,729,o),
(73.5,747,q),
(118,765,o),
(161.5,765,q),
(205,765,o),
(233,747.5,q),
(261,730,o),
(261,704,q)
);
},
{
closed = 1;
nodes = (
(488,346,o),
(460,402,q),
(432,458,o),
(374.5,458,q),
(317,458,o),
(286.5,401.5,q),
(256,345,o),
(256,250,q),
(256,155,o),
(286.5,98.5,q),
(317,42,o),
(374.5,42,q),
(432,42,o),
(460,98,q),
(488,154,o),
(488,250,q)
);
}
);
width = 708;
}
);
unicode = 98;
},
{
category = Letter;
glyphname = c;
kernLeft = a;
layers = (
{
layerId = "488cb3fc-7928-4381-9d20-07afbe5c7c4e";
name = Fore;
shapes = (
{
closed = 1;
nodes = (
(212,-15,o),
(138.5,61.5,q),
(65,138,o),
(65,250,q),
(65,362,o),
(138.5,438.5,q),
(212,515,o),
(330,515,q),
(396,515,o),
(459,477,q),
(522,439,o),
(522,374,q),
(522,341,o),
(498.5,317.5,q),
(475,294,o),
(442,294,q),
(409,294,o),
(385.5,317.5,q),
(362,341,o),
(362,371,q),
(362,401,o),
(378,422,q),
(394,443,o),
(420,451,q),
(392,463,o),
(356,463,q),
(289,463,o),
(254.5,403.5,q),
(220,344,o),
(220,252.5,q),
(220,161,o),
(254.5,104,q),
(289,47,o),
(356,47,q),
(446,47,o),
(509,122,q),
(537,104,l),
(504,50,o),
(450.5,17.5,q),
(397,-15,o),
(331,-15,q)
);
}
);
width = 562;
}
);
unicode = 99;
},
{
category = Letter;
glyphname = d;
kernLeft = a;
layers = (
{
layerId = "488cb3fc-7928-4381-9d20-07afbe5c7c4e";
name = Fore;
shapes = (
{
closed = 1;
nodes = (
(597,111,l),
(597,84,o),
(610,68.5,q),
(623,53,o),
(647.5,53,q),
(672,53,o),
(707,82,q),
(730,58,l),
(650,-15,o),
(570,-15,q),
(475,-15,o),
(453,74,q),
(401,-15,o),
(300,-15,q),
(185,-15,o),
(125,59.5,q),
(65,134,o),
(65,249.5,q),
(65,365,o),
(129.5,440,q),
(194,515,o),
(310,515,q),
(399,515,o),
(447,444,q),
(447,717,l),
(392,703,o),
(363,668,q),
(336,699,l),
(365,729,o),
(409.5,747,q),
(454,765,o),
(497.5,765,q),
(541,765,o),
(569,747.5,q),
(597,730,o),
(597,704,q)
);
},
{
closed = 1;
nodes = (
(220,154,o),
(248,98,q),
(276,42,o),
(333.5,42,q),
(391,42,o),
(421.5,98.5,q),
(452,155,o),
(452,250,q),
(452,345,o),
(421.5,401.5,q),
(391,458,o),
(333.5,458,q),
(276,458,o),
(248,402,q),
(220,346,o),
(220,250,q)
);
}
);
width = 710;
}
);
unicode = 100;
},
{
category = Letter;
glyphname = e;
kernLeft = e;
layers = (
{
layerId = "488cb3fc-7928-4381-9d20-07afbe5c7c4e";
name = Fore;
shapes = (
{
closed = 1;
nodes = (
(410,324,o),
(410,368.5,q),
(410,413,o),
(390.5,437,q),
(371,461,o),
(331.5,461,q),
(292,461,o),
(256,405,q),
(220,349,o),
(220,255,q),
(220,161,o),
(254,104,q),
(288,47,o),
(351,47,q),
(447,47,o),
(514,122,q),
(542,104,l),
(508,50,o),
(452,17.5,q),
(396,-15,o),
(326,-15,q),
(207,-15,o),
(136,63.5,q),
(65,142,o),
(65,253,q),
(65,364,o),
(140.5,439.5,q),
(216,515,o),
(350,515,q),
(438,515,o),
(488,474,q),
(538,433,o),
(538,370,q),
(538,307,o),
(482.5,253.5,q),
(427,200,o),
(336,200,q),
(305,200,o),
(276,207,q),
(274,231,l),
(339,237,o),
(374.5,280.5,q)
);
}
);
width = 597;
}
);
unicode = 101;
},
{
category = Letter;
glyphname = f;
layers = (
{
layerId = "488cb3fc-7928-4381-9d20-07afbe5c7c4e";
name = Fore;
shapes = (
{
closed = 1;
nodes = (
(39,486,l),
(121,486,l),
(121,587,l),
(121,666,o),
(166,715.5,q),
(211,765,o),
(311,765,q),
(360,765,o),
(404.5,747,q),
(449,729,o),
(478,699,q),
(451,668,l),
(408,705,o),
(355,705,q),
(271,705,o),
(271,595,q),
(271,486,l),
(384,486,l),
(384,445,l),
(271,445,l),
(271,-132,l),
(121,-132,l),
(121,445,l),
(39,445,l)
);
}
);
width = 424;
}
);
unicode = 102;
},
{
category = Letter;
glyphname = g;
kernLeft = g;
layers = (
{
layerId = "488cb3fc-7928-4381-9d20-07afbe5c7c4e";
name = Fore;
shapes = (
{
closed = 1;
nodes = (
(234,-132,l),
(87,-132,o),
(87,-9,q),
(87,58,o),
(161,142,q),
(80,201,o),
(80,305,q),
(80,394,o),
(145,454.5,q),
(210,515,o),
(315,515,q),
(391,515,o),
(450,480,q),
(493,519,o),
(509,582,q),
(548,572,l),
(530,502,o),
(482,456,q),
(550,394,o),
(550,305,q),
(550,216,o),
(485,155.5,q),
(420,95,o),
(315,95,q),
(243,95,o),
(190,124,q),
(155,75,o),
(155,50,q),
(155,0,o),
(213,0,q),
(398,0,l),
(545,0,o),
(545,-108,q),
(545,-185,o),
(472,-265,q),
(448,-242,l),
(477,-207,o),
(477,-182.5,q),
(477,-158,o),
(461.5,-145,q),
(446,-132,o),
(419,-132,q)
);
},
{
closed = 1;
nodes = (
(235,231,o),
(255.5,184,q),
(276,137,o),
(316,137,q),
(356,137,o),
(376.5,184,q),
(397,231,o),
(397,305,q),
(397,379,o),
(376.5,426,q),
(356,473,o),
(316,473,q),
(276,473,o),
(255.5,426,q),
(235,379,o),
(235,305,q)
);
}
);
width = 620;
}
);
unicode = 103;
},
{
category = Letter;
glyphname = h;
layers = (
{
layerId = "488cb3fc-7928-4381-9d20-07afbe5c7c4e";
name = Fore;
shapes = (
{
closed = 1;
nodes = (
(261,447,l),
(296,485,o),
(336.5,500,q),
(377,515,o),
(439.5,515,q),
(502,515,o),
(541.5,475.5,q),
(581,436,o),
(581,368,q),
(581,111,l),
(581,84,o),
(594,68.5,q),
(607,53,o),
(634,53,q),
(661,53,o),
(696,82,q),
(714,58,l),
(634,-15,o),
(554,-15,q),
(431,-15,o),
(431,132,q),
(431,389,l),
(431,420,o),
(412,437,q),
(393,454,o),
(359,454,q),
(325,454,o),
(293,426,q),
(261,398,o),
(261,353,q),
(261,0,l),
(111,0,l),
(111,717,l),
(56,703,o),
(27,668,q),
(0,699,l),
(29,729,o),
(73.5,747,q),
(118,765,o),
(161.5,765,q),
(205,765,o),
(233,747.5,q),
(261,730,o),
(261,704,q)
);
}
);
width = 694;
}
);
unicode = 104;
},
{
category = Letter;
glyphname = i;
layers = (
{
layerId = "488cb3fc-7928-4381-9d20-07afbe5c7c4e";
name = Fore;
shapes = (
{
closed = 1;
nodes = (
(131,703,o),
(154.5,726.5,q),
(178,750,o),
(211,750,q),
(244,750,o),
(267.5,726.5,q),
(291,703,o),
(291,670,q),
(291,637,o),
(267.5,613.5,q),
(244,590,o),
(211,590,q),
(178,590,o),
(154.5,613.5,q),
(131,637,o),
(131,670,q)
);
},
{
closed = 1;
nodes = (
(286,515,o),
(286,434,q),
(286,111,l),
(286,84,o),
(299,68.5,q),
(312,53,o),
(339,53,q),
(366,53,o),
(401,82,q),
(419,58,l),
(339,-15,o),
(259,-15,q),
(136,-15,o),
(136,132,q),
(136,467,l),
(81,453,o),
(52,418,q),
(25,449,l),
(54,479,o),
(98.5,497,q),
(143,515,o),
(192,515,q)
);
}
);
width = 399;
}
);
unicode = 105;
},
{
category = Letter;
glyphname = j;
layers = (
{
layerId = "488cb3fc-7928-4381-9d20-07afbe5c7c4e";
name = Fore;
shapes = (
{
closed = 1;
nodes = (
(290,-87,l),
(290,-166,o),
(245,-215.5,q),
(200,-265,o),
(100,-265,q),
(51,-265,o),
(6.5,-247,q),
(-38,-229,o),
(-67,-199,q),
(-45,-168,l),
(-2,-205,o),
(56,-205,q),
(140,-205,o),
(140,-95,q),
(140,467,l),
(85,453,o),
(56,418,q),
(29,449,l),
(58,479,o),
(102.5,497,q),
(147,515,o),
(190.5,515,q),
(234,515,o),
(262,497.5,q),
(290,480,o),
(290,454,q)
);
},
{
closed = 1;
nodes = (
(135,703,o),
(158.5,726.5,q),
(182,750,o),
(215,750,q),
(248,750,o),
(271.5,726.5,q),
(295,703,o),
(295,670,q),
(295,637,o),
(271.5,613.5,q),
(248,590,o),
(215,590,q),
(182,590,o),
(158.5,613.5,q),
(135,637,o),
(135,670,q)
);
}
);
width = 383;
}
);
unicode = 106;
},
{
category = Letter;
glyphname = k;
layers = (
{
layerId = "488cb3fc-7928-4381-9d20-07afbe5c7c4e";
name = Fore;
shapes = (
{
closed = 1;
nodes = (
(261,445,l),
(315,515,o),
(427,515,q),
(491,515,o),
(531,483,q),
(571,451,o),
(571,402.5,q),
(571,354,o),
(542,316,q),
(513,278,o),
(463,254,q),
(523,98,l),
(533,72,o),
(543,62.5,q),
(553,53,o),
(571,53,q),
(604,53,o),
(639,82,q),
(657,58,l),
(577,-15,o),
(491.5,-15,q),
(406,-15,o),
(378,57,q),
(303,249,l),
(358,262,o),
(394.5,303,q),
(431,344,o),
(431,382,q),
(431,420,o),
(412,437,q),
(393,454,o),
(364,454,q),
(316,454,o),
(288.5,415.5,q),
(261,377,o),
(261,310,q),
(261,0,l),
(111,0,l),
(111,717,l),
(56,703,o),
(27,668,q),
(0,699,l),
(29,729,o),
(73.5,747,q),
(118,765,o),
(161.5,765,q),
(205,765,o),
(233,747.5,q),
(261,730,o),
(261,704,q)
);
}
);
width = 647;
}
);
unicode = 107;
},
{
category = Letter;
glyphname = l;
layers = (
{
layerId = "488cb3fc-7928-4381-9d20-07afbe5c7c4e";
name = Fore;
shapes = (
{
closed = 1;
nodes = (
(118,765,o),
(161.5,765,q),
(205,765,o),
(233,747.5,q),
(261,730,o),
(261,704,q),
(261,111,l),
(261,84,o),
(274,68.5,q),
(287,53,o),
(314,53,q),
(341,53,o),
(376,82,q),
(394,58,l),
(314,-15,o),
(234,-15,q),
(111,-15,o),
(111,132,q),
(111,717,l),
(56,703,o),
(27,668,q),
(0,699,l),
(29,729,o),
(73.5,747,q)
);
}
);
width = 374;
}
);
unicode = 108;
},
{
category = Letter;
glyphname = m;
layers = (
{
layerId = "488cb3fc-7928-4381-9d20-07afbe5c7c4e";
name = Fore;
shapes = (
{
closed = 1;
nodes = (
(73,500,o),
(122.5,500,q),
(172,500,o),
(204.5,488,q),
(237,476,o),
(272,450,q),
(308,486,o),
(345.5,500.5,q),
(383,515,o),
(434,515,q),
(536,515,o),
(570,437,q),
(609,480,o),
(648.5,497.5,q),
(688,515,o),
(751.5,515,q),
(815,515,o),
(854.5,475.5,q),
(894,436,o),
(894,368,q),
(894,111,l),
(894,84,o),
(907,68.5,q),
(920,53,o),
(947,53,q),
(974,53,o),
(1009,82,q),
(1027,58,l),
(947,-15,o),
(867,-15,q),
(744,-15,o),
(744,132,q),
(744,389,l),
(744,420,o),
(726,437,q),
(708,454,o),
(676.5,454,q),
(645,454,o),
(614.5,427,q),
(584,400,o),
(584,357,q),
(584,0,l),
(434,0,l),
(434,389,l),
(434,420,o),
(416,437,q),
(398,454,o),
(366.5,454,q),
(335,454,o),
(304.5,427,q),
(274,400,o),
(274,357,q),
(274,0,l),
(124,0,l),
(124,460,l),
(79,460,o),
(44,445,q),
(30,482,l)
);
}
);
width = 1007;
}
);
unicode = 109;
},
{
category = Letter;
glyphname = n;
layers = (
{
layerId = "488cb3fc-7928-4381-9d20-07afbe5c7c4e";
name = Fore;
shapes = (
{
closed = 1;
nodes = (
(206,500,o),
(272,450,q),
(310,486,o),
(350,500.5,q),
(390,515,o),
(452.5,515,q),
(515,515,o),
(554.5,475.5,q),
(594,436,o),
(594,368,q),
(594,111,l),
(594,84,o),
(607,68.5,q),
(620,53,o),
(647,53,q),
(674,53,o),
(709,82,q),
(727,58,l),
(647,-15,o),
(567,-15,q),
(444,-15,o),
(444,132,q),
(444,389,l),
(444,420,o),
(425,437,q),
(406,454,o),
(372.5,454,q),
(339,454,o),
(306.5,427,q),
(274,400,o),
(274,357,q),
(274,0,l),
(124,0,l),
(124,460,l),
(79,460,o),
(44,445,q),
(30,482,l),
(73,500,o),
(124,500,q)
);
}
);
width = 707;
}
);
unicode = 110;
},
{
category = Letter;
glyphname = o;
kernLeft = o;
layers = (
{
layerId = "488cb3fc-7928-4381-9d20-07afbe5c7c4e";
name = Fore;
shapes = (
{
closed = 1;
nodes = (
(65,362,o),
(138.5,438.5,q),
(212,515,o),
(330,515,q),
(448,515,o),
(521.5,438.5,q),
(595,362,o),
(595,250,q),
(595,138,o),
(521.5,61.5,q),
(448,-15,o),
(330,-15,q),
(212,-15,o),
(138.5,61.5,q),
(65,138,o),
(65,250,q)
);
},
{
closed = 1;
nodes = (
(220,152,o),
(248,89.5,q),
(276,27,o),
(331,27,q),
(386,27,o),
(414,89.5,q),
(442,152,o),
(442,250,q),
(442,348,o),
(414,410.5,q),
(386,473,o),
(331,473,q),
(276,473,o),
(248,410.5,q),
(220,348,o),
(220,250,q)
);
}
);
width = 660;
}
);
unicode = 111;
},
{
category = Letter;
glyphname = p;
layers = (
{
layerId = "488cb3fc-7928-4381-9d20-07afbe5c7c4e";
name = Fore;
shapes = (
{
closed = 1;
nodes = (
(216,500,o),
(283,449,q),
(336,515,o),
(421,515,q),
(536,515,o),
(596,440.5,q),
(656,366,o),
(656,250.5,q),
(656,135,o),
(591.5,60,q),
(527,-15,o),
(411,-15,q),
(325,-15,o),
(274,62,q),
(274,-250,l),
(124,-250,l),
(124,460,l),
(79,460,o),
(44,445,q),
(30,482,l),
(73,500,o),
(124,500,q)
);
},
{
closed = 1;
nodes = (
(501,346,o),
(473,402,q),
(445,458,o),
(387.5,458,q),
(330,458,o),
(299.5,401.5,q),
(269,345,o),
(269,250,q),
(269,155,o),
(299.5,98.5,q),
(330,42,o),
(387.5,42,q),
(445,42,o),
(473,98,q),
(501,154,o),
(501,250,q)
);
}
);
width = 721;
}
);
unicode = 112;
},
{
category = Letter;
glyphname = q;
kernLeft = a;
layers = (
{
layerId = "488cb3fc-7928-4381-9d20-07afbe5c7c4e";
name = Fore;
shapes = (
{
closed = 1;
nodes = (
(447,-250,l),
(447,64,l),
(394,-15,o),
(300,-15,q),
(185,-15,o),
(125,59.5,q),
(65,134,o),
(65,249.5,q),
(65,365,o),
(129.5,440,q),
(194,515,o),
(310,515,q),
(399,515,o),
(447,444,q),
(447,500,l),
(597,500,l),
(597,-250,l)
);
},
{
closed = 1;
nodes = (
(220,154,o),
(248,98,q),
(276,42,o),
(333.5,42,q),
(391,42,o),
(421.5,98.5,q),
(452,155,o),
(452,250,q),
(452,345,o),
(421.5,401.5,q),
(391,458,o),
(333.5,458,q),
(276,458,o),
(248,402,q),
(220,346,o),
(220,250,q)
);
}
);
width = 697;
}
);
unicode = 113;
},
{
category = Letter;
glyphname = r;
layers = (
{
layerId = "488cb3fc-7928-4381-9d20-07afbe5c7c4e";
name = Fore;
shapes = (
{
closed = 1;
nodes = (
(423,515,o),
(423,458,q),
(423,111,l),
(423,84,o),
(436,68.5,q),
(449,53,o),
(476,53,q),
(503,53,o),
(538,82,q),
(556,58,l),
(476,-15,o),
(396,-15,q),
(273,-15,o),
(273,132,q),
(273,413,l),
(226,394,o),
(159,387,q),
(151,295,o),
(106,203,q),
(65,215,l),
(93,286,o),
(95,384,q),
(57,384,o),
(33.5,406,q),
(10,428,o),
(10,460.5,q),
(10,493,o),
(32.5,515.5,q),
(55,538,o),
(87.5,538,q),
(120,538,o),
(142,515,q),
(164,492,o),
(164,456,q),
(183,456,l),
(262,456,o),
(351,500,q),
(380,515,o),
(393,515,q)
);
}
);
width = 536;
}
);
unicode = 114;
},
{
category = Letter;
glyphname = s;
layers = (
{
layerId = "488cb3fc-7928-4381-9d20-07afbe5c7c4e";
name = Fore;
shapes = (
{
closed = 1;
nodes = (
(151,455,o),
(151,484,q),
(151,513,o),
(173.5,535.5,q),
(196,558,o),
(228,558,q),
(260,558,o),
(282.5,535.5,q),
(305,513,o),
(305,482,q),
(305,451,o),
(274,416,q),
(356,356,o),
(400,298.5,q),
(444,241,o),
(444,165.5,q),
(444,90,o),
(387,37.5,q),
(330,-15,o),
(225,-15,q),
(177,-15,o),
(128.5,6,q),
(80,27,o),
(55,58,q),
(78,82,l),
(122,47,o),
(173,47,q),
(224,47,o),
(256.5,74.5,q),
(289,102,o),
(289,160,q),
(289,252,o),
(221,352,q),
(70,163,l),
(45,185,l),
(121,308,o),
(175,418,q)
);
}
);
width = 474;
}
);
unicode = 115;
},
{
category = Letter;
glyphname = t;
layers = (
{
layerId = "488cb3fc-7928-4381-9d20-07afbe5c7c4e";
name = Fore;
shapes = (
{
closed = 1;
nodes = (
(39,486,l),
(121,486,l),
(121,630,l),
(271,630,l),
(271,486,l),
(384,486,l),
(384,445,l),
(271,445,l),
(271,111,l),
(271,84,o),
(284,68.5,q),
(297,53,o),
(324,53,q),
(351,53,o),
(386,82,q),
(404,58,l),
(324,-15,o),
(244,-15,q),
(121,-15,o),
(121,132,q),
(121,445,l),
(39,445,l)
);
}
);
width = 424;
}
);
unicode = 116;
},
{
category = Letter;
glyphname = u;
layers = (
{
layerId = "488cb3fc-7928-4381-9d20-07afbe5c7c4e";
name = Fore;
shapes = (
{
closed = 1;
nodes = (
(274,111,l),
(274,80,o),
(293,63,q),
(312,46,o),
(346,46,q),
(380,46,o),
(412,74,q),
(444,102,o),
(444,147,q),
(444,500,l),
(594,500,l),
(594,111,l),
(594,84,o),
(607,68.5,q),
(620,53,o),
(647,53,q),
(674,53,o),
(709,82,q),
(727,58,l),
(647,-15,o),
(564,-15,q),
(481,-15,o),
(454,59,q),
(415,18,o),
(373.5,1.5,q),
(332,-15,o),
(267.5,-15,q),
(203,-15,o),
(163.5,24.5,q),
(124,64,o),
(124,132,q),
(124,467,l),
(69,453,o),
(40,418,q),
(13,449,l),
(42,479,o),
(86.5,497,q),
(131,515,o),
(174.5,515,q),
(218,515,o),
(246,497.5,q),
(274,480,o),
(274,454,q)
);
}
);
width = 707;
}
);
unicode = 117;
},
{
category = Letter;
glyphname = v;
layers = (
{
layerId = "488cb3fc-7928-4381-9d20-07afbe5c7c4e";
name = Fore;
shapes = (
{
closed = 1;
nodes = (
(368,480,o),
(390.5,502.5,q),
(413,525,o),
(447,525,q),
(481,525,o),
(505.5,499.5,q),
(530,474,o),
(540,432,q),
(559,359,o),
(559,289,q),
(559,219,o),
(542,167,q),
(525,115,o),
(498,82.5,q),
(471,50,o),
(438,27,q),
(376,-15,o),
(315,-15,q),
(230,-15,o),
(180.5,27.5,q),
(131,70,o),
(131,152,q),
(131,467,l),
(76,453,o),
(47,418,q),
(20,449,l),
(49,479,o),
(93.5,497,q),
(138,515,o),
(181.5,515,q),
(225,515,o),
(253,497.5,q),
(281,480,o),
(281,454,q),
(281,121,l),
(281,89,o),
(301,72.5,q),
(321,56,o),
(351,56,q),
(414,56,o),
(460,121.5,q),
(506,187,o),
(506,282,q),
(506,330,o),
(487,383,q),
(469,371,o),
(441,371,q),
(413,371,o),
(390.5,393.5,q),
(368,416,o),
(368,448,q)
);
}
);
width = 619;
}
);
unicode = 118;
},
{
category = Letter;
glyphname = w;
layers = (
{
layerId = "488cb3fc-7928-4381-9d20-07afbe5c7c4e";
name = Fore;
shapes = (
{
closed = 1;
nodes = (
(606,121,l),
(606,89,o),
(626,72.5,q),
(646,56,o),
(676,56,q),
(739,56,o),
(785,121.5,q),
(831,187,o),
(831,282,q),
(831,330,o),
(812,383,q),
(794,371,o),
(766,371,q),
(738,371,o),
(715.5,393.5,q),
(693,416,o),
(693,448,q),
(693,480,o),
(715.5,502.5,q),
(738,525,o),
(772,525,q),
(806,525,o),
(830.5,499.5,q),
(855,474,o),
(866,432,q),
(884,359,o),
(884,289,q),
(884,219,o),
(867,167,q),
(850,115,o),
(823,82.5,q),
(796,50,o),
(762,27,q),
(701,-15,o),
(640,-15,q),
(521,-15,o),
(476,63,q),
(443,25,o),
(398,5,q),
(353,-15,o),
(315,-15,q),
(230,-15,o),
(180.5,27.5,q),
(131,70,o),
(131,152,q),
(131,467,l),
(76,453,o),
(47,418,q),
(20,449,l),
(49,479,o),
(93.5,497,q),
(138,515,o),
(181.5,515,q),
(225,515,o),
(253,497.5,q),
(281,480,o),
(281,454,q),
(281,121,l),
(281,89,o),
(301,72.5,q),
(321,56,o),
(351,56,q),
(419,56,o),
(457,123,q),
(456,132,o),
(456,152,q),
(456,467,l),
(401,453,o),
(372,418,q),
(345,449,l),
(374,479,o),
(418.5,497,q),
(463,515,o),
(506.5,515,q),
(550,515,o),
(578,497.5,q),
(606,480,o),
(606,454,q)
);
}
);
width = 944;
}
);
unicode = 119;
},
{
category = Letter;
glyphname = x;
layers = (
{
layerId = "488cb3fc-7928-4381-9d20-07afbe5c7c4e";
name = Fore;
shapes = (
{
closed = 1;
nodes = (
(53,94,o),
(75.5,116.5,q),
(98,139,o),
(127.5,139,q),
(157,139,o),
(177.5,122.5,q),
(198,106,o),
(205,81,q),
(248,123,o),
(272,198,q),
(175,402,l),
(162,428,o),
(152.5,437.5,q),
(143,447,o),
(126,447,q),
(92,447,o),
(59,418,q),
(40,442,l),
(117,515,o),
(201,515,q),
(285,515,o),
(319,443,q),
(362,352,l),
(389,424,o),
(432,469.5,q),
(475,515,o),
(530,515,q),
(562,515,o),
(584.5,492.5,q),
(607,470,o),
(607,438,q),
(607,406,o),
(584.5,383.5,q),
(562,361,o),
(532,361,q),
(502,361,o),
(481.5,377,q),
(461,393,o),
(455,419,q),
(411,376,o),
(387,300,q),
(484,98,l),
(497,72,o),
(506.5,62.5,q),
(516,53,o),
(533,53,q),
(567,53,o),
(600,82,q),
(619,58,l),
(542,-15,o),
(458,-15,q),
(374,-15,o),
(340,57,q),
(297,146,l),
(270,74,o),
(228,29.5,q),
(186,-15,o),
(133,-15,q),
(99,-15,o),
(76,7.5,q),
(53,30,o),
(53,62,q)
);
}
);
width = 649;
}
);
unicode = 120;
},
{
category = Letter;
glyphname = y;
layers = (
{
layerId = "488cb3fc-7928-4381-9d20-07afbe5c7c4e";
name = Fore;
shapes = (
{
closed = 1;
nodes = (
(131,515,o),
(174.5,515,q),
(218,515,o),
(246,497.5,q),
(274,480,o),
(274,454,q),
(274,151,l),
(274,119,o),
(294,102.5,q),
(314,86,o),
(344,86,q),
(408,86,o),
(453.5,141,q),
(499,196,o),
(499,282,q),
(499,330,o),
(480,383,q),
(462,371,o),
(434,371,q),
(406,371,o),
(383.5,393.5,q),
(361,416,o),
(361,448,q),
(361,480,o),
(383.5,502.5,q),
(406,525,o),
(440,525,q),
(474,525,o),
(498.5,499.5,q),
(523,474,o),
(534,432,q),
(552,359,o),
(552,270.5,q),
(552,182,o),
(531.5,93,q),
(511,4,o),
(477.5,-60,q),
(444,-124,o),
(402,-171,q),
(316,-265,o),
(227,-265,q),
(203,-265,o),
(187.5,-254.5,q),
(172,-244,o),
(152,-216,q),
(100,-144,l),
(126,-117,l),
(174,-125,o),
(210,-125,q),
(322,-125,o),
(393,-54,q),
(464,17,o),
(505,177,q),
(443,5,o),
(277,5,q),
(213,5,o),
(168.5,48.5,q),
(124,92,o),
(124,172,q),
(124,467,l),
(69,453,o),
(40,418,q),
(13,449,l),
(42,479,o),
(86.5,497,q)
);
}
);
width = 627;
}
);
unicode = 121;
},
{
category = Letter;
glyphname = z;
layers = (
{
layerId = "488cb3fc-7928-4381-9d20-07afbe5c7c4e";
name = Fore;
shapes = (
{
closed = 1;
nodes = (
(75,0,l),
(75,40,l),
(383,460,l),
(300,460,l),
(234,460,o),
(209.5,447,q),
(185,434,o),
(176,389,q),
(156,290,l),
(117,290,l),
(90,458,l),
(90,478,o),
(99,487.5,q),
(108,497,o),
(118.5,498.5,q),
(129,500,o),
(151,500,q),
(545,500,l),
(545,460,l),
(244,40,l),
(340,40,l),
(406,40,o),
(430.5,53,q),
(455,66,o),
(464,111,q),
(484,210,l),
(523,210,l),
(550,42,l),
(550,22,o),
(541,12.5,q),
(532,3,o),
(521.5,1.5,q),
(511,0,o),
(489,0,q)
);
}
);
width = 620;
}
);
unicode = 122;
},
{
category = Letter;
glyphname = braceleft;
layers = (
{
layerId = "488cb3fc-7928-4381-9d20-07afbe5c7c4e";
name = Fore;
shapes = (
{
closed = 1;
nodes = (
(273,96,l),
(273,43,o),
(302,21.5,q),
(331,0,o),
(396,0,q),
(402,-23,l),
(340,-50,o),
(274.5,-50,q),
(209,-50,o),
(168.5,-18.5,q),
(128,13,o),
(128,74,q),
(128,107,o),
(142.5,176,q),
(157,245,o),
(157,271,q),
(157,297,o),
(148,309,q),
(139,321,o),
(120,326,q),
(97,332,o),
(50,334,q),
(50,366,l),
(97,368,o),
(118,373,q),
(157,384,o),
(157,419.5,q),
(157,455,o),
(142.5,524,q),
(128,593,o),
(128,626,q),
(128,687,o),
(168.5,718.5,q),
(209,750,o),
(274.5,750,q),
(340,750,o),
(402,723,q),
(396,700,l),
(331,700,o),
(302,678.5,q),
(273,657,o),
(273,604,q),
(273,486,l),
(273,434,o),
(251,397,q),
(229,360,o),
(195,350,q),
(229,340,o),
(251,303,q),
(273,266,o),
(273,214,q)
);
}
);
width = 432;
}
);
unicode = 123;
},
{
category = Letter;
glyphname = bar;
layers = (
{
layerId = "488cb3fc-7928-4381-9d20-07afbe5c7c4e";
name = Fore;
shapes = (
{
closed = 1;
nodes = (
(260,-100,l),
(150,-100,l),
(150,800,l),
(260,800,l)
);
}
);
width = 410;
}
);
unicode = 124;
},
{
category = Letter;
glyphname = braceright;
layers = (
{
layerId = "488cb3fc-7928-4381-9d20-07afbe5c7c4e";
name = Fore;
shapes = (
{
closed = 1;
nodes = (
(159,604,l),
(159,657,o),
(130,678.5,q),
(101,700,o),
(36,700,q),
(30,723,l),
(92,750,o),
(157.5,750,q),
(223,750,o),
(263.5,718.5,q),
(304,687,o),
(304,626,q),
(304,593,o),
(289.5,524,q),
(275,455,o),
(275,429,q),
(275,403,o),
(284,391,q),
(293,379,o),
(312,374,q),
(335,368,o),
(382,366,q),
(382,334,l),
(335,332,o),
(314,327,q),
(275,316,o),
(275,280.5,q),
(275,245,o),
(289.5,176,q),
(304,107,o),
(304,74,q),
(304,13,o),
(263.5,-18.5,q),
(223,-50,o),
(157.5,-50,q),
(92,-50,o),
(30,-23,q),
(36,0,l),
(101,0,o),
(130,21.5,q),
(159,43,o),
(159,96,q),
(159,214,l),
(159,266,o),
(181,303,q),
(203,340,o),
(237,350,q),
(203,360,o),
(181,397,q),
(159,434,o),
(159,486,q)
);
}
);
width = 432;
}
);
unicode = 125;
},
{
category = Letter;
glyphname = asciitilde;
layers = (
{
layerId = "488cb3fc-7928-4381-9d20-07afbe5c7c4e";
name = Fore;
shapes = (
{
closed = 1;
nodes = (
(126,362,o),
(166,362,q),
(206,362,o),
(279.5,379.5,q),
(353,397,o),
(392.5,397,q),
(432,397,o),
(470,380,q),
(470,320,l),
(433,339,o),
(393,339,q),
(353,339,o),
(279,320,q),
(205,301,o),
(165,301,q),
(125,301,o),
(90,320,q),
(90,380,l)
);
}
);
width = 560;
}
);
unicode = 126;
},
{
category = Letter;
glyphname = exclamdown;
layers = (
{
layerId = "488cb3fc-7928-4381-9d20-07afbe5c7c4e";
name = Fore;
shapes = (
{
closed = 1;
nodes = (
(102,470,o),
(124.5,492.5,q),
(147,515,o),
(179,515,q),
(211,515,o),
(233.5,492.5,q),
(256,470,o),
(256,438,q),
(256,406,o),
(233.5,383.5,q),
(211,361,o),
(179,361,q),
(147,361,o),
(124.5,383.5,q),
(102,406,o),
(102,438,q)
);
},
{
closed = 1;
nodes = (
(258,-107,o),
(258,-138.5,q),
(258,-170,o),
(236.5,-192.5,q),
(215,-215,o),
(179,-215,q),
(143,-215,o),
(121.5,-192.5,q),
(100,-170,o),
(100,-138.5,q),
(100,-107,o),
(108.5,-38,q),
(117,31,o),
(131,131.5,q),
(145,232,o),
(152,297,q),
(206,297,l),
(213,232,o),
(227,131.5,q),
(241,31,o),
(249.5,-38,q)
);
}
);
width = 358;
}
);
unicode = 161;
},
{
category = Letter;
glyphname = cent;
layers = (
{
layerId = "488cb3fc-7928-4381-9d20-07afbe5c7c4e";
name = Fore;
shapes = (
{
closed = 1;
nodes = (
(353,-100,l),
(323,-100,l),
(323,86,l),
(217,97,o),
(153,171.5,q),
(89,246,o),
(89,350,q),
(89,454,o),
(153.5,528.5,q),
(218,603,o),
(323,613,q),
(323,800,l),
(353,800,l),
(353,615,l),
(394,615,o),
(437,600,q),
(480,585,o),
(513,551.5,q),
(546,518,o),
(546,481,q),
(546,444,o),
(525,423,q),
(504,402,o),
(474,402,q),
(444,402,o),
(423,423,q),
(402,444,o),
(402,472,q),
(402,500,o),
(417.5,519.5,q),
(433,539,o),
(458,544,q),
(423,563,o),
(380,563,q),
(365,563,o),
(353,560,q),
(353,150,l),
(365,147,o),
(380,147,q),
(471,147,o),
(533,222,q),
(561,204,l),
(528,150,o),
(473.5,117.5,q),
(419,85,o),
(353,85,q)
);
},
{
closed = 1;
nodes = (
(244,283,o),
(264,232.5,q),
(284,182,o),
(323,161,q),
(323,548,l),
(244,503,o),
(244,350,q)
);
}
);
width = 650;
}
);
unicode = 162;
},
{
category = Letter;
glyphname = sterling;
layers = (
{
layerId = "488cb3fc-7928-4381-9d20-07afbe5c7c4e";
name = Fore;
shapes = (
{
closed = 1;
nodes = (
(75,354,l),
(150,354,l),
(147,364,o),
(132,403,q),
(105,473,o),
(105,530,q),
(105,608,o),
(164.5,661.5,q),
(224,715,o),
(320,715,q),
(448,715,o),
(515,655,q),
(552,622,o),
(552,574,q),
(552,541,o),
(529,517.5,q),
(506,494,o),
(472,494,q),
(438,494,o),
(415,515.5,q),
(392,537,o),
(392,569,q),
(392,601,o),
(407.5,621.5,q),
(423,642,o),
(447,650,q),
(414,663,o),
(376,663,q),
(317,663,o),
(283.5,622.5,q),
(250,582,o),
(250,518,q),
(250,487,o),
(256.5,430,q),
(263,373,o),
(264,354,q),
(455,354,l),
(455,309,l),
(265,309,l),
(263,198,o),
(180,92,q),
(365,92,l),
(428,92,o),
(458,110,q),
(488,128,o),
(497,174,q),
(504,210,l),
(543,210,l),
(570,42,l),
(570,22,o),
(561,12.5,q),
(552,3,o),
(541.5,1.5,q),
(531,0,o),
(509,0,q),
(75,0,l),
(75,40,l),
(166,133,o),
(166,259,q),
(166,282,o),
(161,309,q),
(75,309,l)
);
}
);
width = 650;
}
);
unicode = 163;
},
{
category = Letter;
glyphname = currency;
layers = (
{
layerId = "488cb3fc-7928-4381-9d20-07afbe5c7c4e";
name = Fore;
shapes = (
{
closed = 1;
nodes = (
(119,283,o),
(119,351,q),
(119,419,o),
(156,471,q),
(64,563,l),
(112,611,l),
(204,519,l),
(256,555,o),
(324,555,q),
(392,555,o),
(446,519,q),
(538,611,l),
(586,563,l),
(494,471,l),
(531,419,o),
(531,350,q),
(531,281,o),
(495,228,q),
(586,137,l),
(538,89,l),
(447,180,l),
(394,143,o),
(324,143,q),
(254,143,o),
(203,180,q),
(112,89,l),
(64,137,l),
(155,228,l)
);
},
{
closed = 1;
nodes = (
(191,406,o),
(191,349.5,q),
(191,293,o),
(228.5,254,q),
(266,215,o),
(325.5,215,q),
(385,215,o),
(422,254,q),
(459,293,o),
(459,349.5,q),
(459,406,o),
(422,444.5,q),
(385,483,o),
(325.5,483,q),
(266,483,o),
(228.5,444.5,q)
);
}
);
width = 650;
}
);
unicode = 164;
},
{
category = Letter;
glyphname = yen;
layers = (
{
layerId = "488cb3fc-7928-4381-9d20-07afbe5c7c4e";
name = Fore;
shapes = (
{
closed = 1;
nodes = (
(92,244,l),
(252,244,l),
(252,250,l),
(212,339,l),
(92,339,l),
(92,384,l),
(192,384,l),
(70,660,l),
(20,660,l),
(20,700,l),
(220,700,l),
(378,310,l),
(493,555,l),
(464,560,o),
(444,582.5,q),
(424,605,o),
(424,637,q),
(424,669,o),
(447,692,q),
(470,715,o),
(503,715,q),
(536,715,o),
(560,691.5,q),
(584,668,o),
(584,642,q),
(584,616,o),
(558,563,q),
(469,384,l),
(562,384,l),
(562,339,l),
(447,339,l),
(400,244,l),
(562,244,l),
(562,199,l),
(402,199,l),
(402,40,l),
(502,40,l),
(502,0,l),
(152,0,l),
(152,40,l),
(252,40,l),
(252,199,l),
(92,199,l)
);
}
);
width = 650;
}
);
unicode = 165;
},
{
category = Letter;
glyphname = brokenbar;
layers = (
{
layerId = "488cb3fc-7928-4381-9d20-07afbe5c7c4e";
name = Fore;
shapes = (
{
closed = 1;
nodes = (
(260,474,l),
(150,474,l),
(150,800,l),
(260,800,l)
);
},
{
closed = 1;
nodes = (
(260,-100,l),
(150,-100,l),
(150,226,l),
(260,226,l)
);
}
);
width = 410;
}
);
unicode = 166;
},
{
category = Letter;
glyphname = section;
layers = (
{
layerId = "488cb3fc-7928-4381-9d20-07afbe5c7c4e";
name = Fore;
shapes = (
{
closed = 1;
nodes = (
(440,347,o),
(440,250.5,q),
(440,154,o),
(355,113,q),
(420,60,o),
(420,-21,q),
(420,-87,o),
(372,-132,q),
(324,-177,o),
(240,-177,q),
(120,-177,o),
(47,-72,q),
(82,-46,l),
(112,-90,o),
(152,-112.5,q),
(192,-135,o),
(235,-135,q),
(278,-135,o),
(312,-107.5,q),
(346,-80,o),
(346,-36,q),
(346,24,o),
(280,59,q),
(172,118,l),
(40,191,o),
(40,287.5,q),
(40,384,o),
(125,424,q),
(60,476,o),
(60,559,q),
(60,625,o),
(108,670,q),
(156,715,o),
(240,715,q),
(360,715,o),
(433,610,q),
(398,584,l),
(368,628,o),
(328,650.5,q),
(288,673,o),
(245,673,q),
(202,673,o),
(168,645.5,q),
(134,618,o),
(134,574,q),
(134,514,o),
(200,479,q),
(308,420,l)
);
},
{
closed = 1;
nodes = (
(84,348,o),
(84,317,q),
(84,286,o),
(111,260.5,q),
(138,235,o),
(193,206,q),
(300,149,l),
(310,144,o),
(328,132,q),
(357,142,o),
(376.5,166,q),
(396,190,o),
(396,221,q),
(396,252,o),
(369,277.5,q),
(342,303,o),
(287,332,q),
(151,405,l),
(122,395,o),
(103,371.5,q)
);
}
);
width = 490;
}
);
unicode = 167;
},
{
category = Letter;
glyphname = dieresis;
layers = (
{
layerId = "488cb3fc-7928-4381-9d20-07afbe5c7c4e";
name = Fore;
shapes = (
{
closed = 1;
nodes = (
(54,702,o),
(76,724,q),
(98,746,o),
(130,746,q),
(162,746,o),
(184,724,q),
(206,702,o),
(206,670,q),
(206,638,o),
(184,616,q),
(162,594,o),
(130,594,q),
(98,594,o),
(76,616,q),
(54,638,o),
(54,670,q)
);
},
{
closed = 1;
nodes = (
(284,702,o),
(306,724,q),
(328,746,o),
(360,746,q),
(392,746,o),
(414,724,q),
(436,702,o),
(436,670,q),
(436,638,o),
(414,616,q),
(392,594,o),
(360,594,q),
(328,594,o),
(306,616,q),
(284,638,o),
(284,670,q)
);
}
);
width = 490;
}
);
unicode = 168;
},
{
category = Letter;
glyphname = copyright;
layers = (
{
layerId = "488cb3fc-7928-4381-9d20-07afbe5c7c4e";
name = Fore;
shapes = (
{
closed = 1;
nodes = (
(367,652,o),
(342,601,q),
(317,550,o),
(317,473,q),
(317,396,o),
(343.5,348,q),
(370,300,o),
(415,300,q),
(460,300,o),
(487,320.5,q),
(514,341,o),
(537,374,q),
(566,353,l),
(535,304,o),
(498.5,276.5,q),
(462,249,o),
(405,249,q),
(320,249,o),
(266.5,312.5,q),
(213,376,o),
(213,470.5,q),
(213,565,o),
(266.5,628.5,q),
(320,692,o),
(415,692,q),
(464,692,o),
(510.5,671,q),
(557,650,o),
(557,622,q),
(557,612,o),
(550,596,q),
(512,523,l),
(483,532,l),
(488,576,l),
(490,586,o),
(490,603.5,q),
(490,621,o),
(469,636.5,q),
(448,652,o),
(415,652,q)
);
},
{
closed = 1;
nodes = (
(106,345,o),
(194,257,q),
(282,169,o),
(406,169,q),
(530,169,o),
(618,257,q),
(706,345,o),
(706,469,q),
(706,593,o),
(618,681,q),
(530,769,o),
(406,769,q),
(282,769,o),
(194,681,q),
(106,593,o),
(106,469,q)
);
},
{
closed = 1;
nodes = (
(68,608,o),
(167,707.5,q),
(266,807,o),
(406,807,q),
(546,807,o),
(645,707.5,q),
(744,608,o),
(744,469,q),
(744,330,o),
(645,230.5,q),
(546,131,o),
(406,131,q),
(266,131,o),
(167,230.5,q),
(68,330,o),
(68,469,q)
);
}
);
width = 812;
}
);
unicode = 169;
},
{
category = Letter;
glyphname = ordfeminine;
layers = (
{
layerId = "488cb3fc-7928-4381-9d20-07afbe5c7c4e";
name = Fore;
shapes = (
{
closed = 1;
nodes = (
(457,434,l),
(457,400,o),
(484,400,q),
(505,400,o),
(531,422,q),
(550,398,l),
(486,341,o),
(433,341,q),
(368,341,o),
(353,399,q),
(345,399,l),
(330,373,o),
(304,357,q),
(278,341,o),
(248,341,q),
(166,341,o),
(123.5,394,q),
(81,447,o),
(81,528,q),
(81,609,o),
(127,662,q),
(173,715,o),
(255,715,q),
(311,715,o),
(343,678,q),
(363,706,l),
(457,706,l)
);
},
{
closed = 1;
nodes = (
(200,665,o),
(200,528.5,q),
(200,392,o),
(271,392,q),
(307,392,o),
(326.5,429.5,q),
(346,467,o),
(346,529,q),
(346,591,o),
(326.5,628,q),
(307,665,o),
(271,665,q)
);
}
);
width = 577;
}
);
unicode = 170;
},
{
category = Letter;
glyphname = guillemotleft;
layers = (
{
layerId = "488cb3fc-7928-4381-9d20-07afbe5c7c4e";
name = Fore;
shapes = (
{
closed = 1;
nodes = (
(30,324,o),
(58,350,q),
(202,488,l),
(226,467,l),
(131,296,l),
(131,288,l),
(226,117,l),
(202,96,l),
(58,234,l),
(30,260,o),
(30,292,q)
);
},
{
closed = 1;
nodes = (
(230,324,o),
(258,350,q),
(402,488,l),
(426,467,l),
(331,296,l),
(331,288,l),
(426,117,l),
(402,96,l),
(258,234,l),
(230,260,o),
(230,292,q)
);
}
);
width = 486;
}
);
unicode = 171;
},
{
category = Letter;
glyphname = logicalnot;
layers = (
{
layerId = "488cb3fc-7928-4381-9d20-07afbe5c7c4e";
name = Fore;
shapes = (
{
closed = 1;
nodes = (
(90,380,l),
(470,380,l),
(470,167,l),
(416,167,l),
(416,320,l),
(90,320,l)
);
}
);
width = 560;
}
);
unicode = 172;
},
{
category = Letter;
glyphname = registered;
layers = (
{
layerId = "488cb3fc-7928-4381-9d20-07afbe5c7c4e";
name = Fore;
shapes = (
{
closed = 1;
nodes = (
(106,345,o),
(194,257,q),
(282,169,o),
(406,169,q),
(530,169,o),
(618,257,q),
(706,345,o),
(706,469,q),
(706,593,o),
(618,681,q),
(530,769,o),
(406,769,q),
(282,769,o),
(194,681,q),
(106,593,o),
(106,469,q)
);
},
{
closed = 1;
nodes = (
(237,683,l),
(373,683,l),
(576,683,o),
(576,548,q),
(576,466,o),
(489,431,q),
(518,414,o),
(527,383,q),
(545,324,l),
(551,301,o),
(570,301,q),
(585,301,o),
(608,321,q),
(626,298,l),
(570,249,o),
(514.5,249,q),
(459,249,o),
(445,295,q),
(416,387,l),
(412,400,o),
(403,406,q),
(394,412,o),
(373,413,q),
(373,258,l),
(237,258,l),
(237,293,l),
(273,293,l),
(273,647,l),
(237,647,l)
);
},
{
closed = 1;
nodes = (
(373,449,l),
(418,449,o),
(446.5,474.5,q),
(475,500,o),
(475,547.5,q),
(475,595,o),
(446.5,621,q),
(418,647,o),
(373,647,q)
);
},
{
closed = 1;
nodes = (
(68,608,o),
(167,707.5,q),
(266,807,o),
(406,807,q),
(546,807,o),
(645,707.5,q),
(744,608,o),
(744,469,q),
(744,330,o),
(645,230.5,q),
(546,131,o),
(406,131,q),
(266,131,o),
(167,230.5,q),
(68,330,o),
(68,469,q)
);
}
);
width = 812;
}
);
unicode = 174;
},
{
category = Letter;
glyphname = macron;
layers = (
{
layerId = "488cb3fc-7928-4381-9d20-07afbe5c7c4e";
name = Fore;
shapes = (
{
closed = 1;
nodes = (
(392,700,l),
(392,612,l),
(98,612,l),
(98,700,l)
);
}
);
width = 490;
}
);
unicode = 175;
},
{
category = Letter;
glyphname = degree;
layers = (
{
layerId = "488cb3fc-7928-4381-9d20-07afbe5c7c4e";
name = Fore;
shapes = (
{
closed = 1;
nodes = (
(81,608,o),
(132.5,661.5,q),
(184,715,o),
(268,715,q),
(352,715,o),
(403.5,661.5,q),
(455,608,o),
(455,528.5,q),
(455,449,o),
(403.5,395,q),
(352,341,o),
(268,341,q),
(184,341,o),
(132.5,395.5,q),
(81,450,o),
(81,529,q)
);
},
{
closed = 1;
nodes = (
(168,464,o),
(193,423,q),
(218,382,o),
(269,382,q),
(320,382,o),
(345,423,q),
(370,464,o),
(370,529,q),
(370,594,o),
(345,634.5,q),
(320,675,o),
(269,675,q),
(218,675,o),
(193,634.5,q),
(168,594,o),
(168,529,q)
);
}
);
width = 536;
}
);
unicode = 176;
},
{
category = Letter;
glyphname = plusminus;
layers = (
{
layerId = "488cb3fc-7928-4381-9d20-07afbe5c7c4e";
name = Fore;
shapes = (
{
closed = 1;
nodes = (
(90,380,l),
(250,380,l),
(250,540,l),
(310,540,l),
(310,380,l),
(470,380,l),
(470,320,l),
(310,320,l),
(310,160,l),
(250,160,l),
(250,320,l),
(90,320,l)
);
},
{
closed = 1;
nodes = (
(90,60,l),
(470,60,l),
(470,0,l),
(90,0,l)
);
}
);
width = 560;
}
);
unicode = 177;
},
{
category = Letter;
glyphname = twosuperior;
layers = (
{
layerId = "488cb3fc-7928-4381-9d20-07afbe5c7c4e";
name = Fore;
shapes = (
{
closed = 1;
nodes = (
(63,331,l),
(63,362,l),
(204,505,l),
(263,564,o),
(263,631,q),
(263,670,o),
(240.5,696,q),
(218,722,o),
(184,722,q),
(169,722,o),
(153,718,q),
(175,703,o),
(175,679,q),
(175,655,o),
(159,638.5,q),
(143,622,o),
(121.5,622,q),
(100,622,o),
(84.5,638,q),
(69,654,o),
(69,675,q),
(69,716,o),
(110.5,740.5,q),
(152,765,o),
(214,765,q),
(276,765,o),
(316,731.5,q),
(356,698,o),
(356,650,q),
(356,625,o),
(336,592.5,q),
(316,560,o),
(299,542,q),
(282,524,o),
(248,491,q),
(152,397,l),
(234,397,l),
(269,397,o),
(285,406.5,q),
(301,416,o),
(306,440,q),
(312,467,l),
(344,467,l),
(361,362,l),
(361,347,o),
(354.5,340,q),
(348,333,o),
(341.5,332,q),
(335,331,o),
(320,331,q)
);
}
);
width = 440;
}
);
unicode = 178;
},
{
category = Letter;
glyphname = threesuperior;
layers = (
{
layerId = "488cb3fc-7928-4381-9d20-07afbe5c7c4e";
name = Fore;
shapes = (
{
closed = 1;
nodes = (
(181,703,o),
(181,678.5,q),
(181,654,o),
(165,638,q),
(149,622,o),
(127.5,622,q),
(106,622,o),
(90.5,638,q),
(75,654,o),
(75,675,q),
(75,716,o),
(117.5,740.5,q),
(160,765,o),
(222.5,765,q),
(285,765,o),
(323.5,731.5,q),
(362,698,o),
(362,650,q),
(362,584,o),
(290,546,q),
(326,532,o),
(347,506,q),
(368,480,o),
(368,449,q),
(368,395,o),
(323,358.5,q),
(278,322,o),
(214.5,322,q),
(151,322,o),
(110,346,q),
(69,370,o),
(69,412,q),
(69,433,o),
(84.5,449,q),
(100,465,o),
(121.5,465,q),
(143,465,o),
(159,449,q),
(175,433,o),
(175,407,q),
(175,381,o),
(152,366,q),
(164,364,o),
(172,364,q),
(217,364,o),
(241,389.5,q),
(265,415,o),
(265,448,q),
(265,481,o),
(242.5,504.5,q),
(220,528,o),
(178,528,q),
(141,528,l),
(141,564,l),
(187,564,l),
(228,564,o),
(249.5,589.5,q),
(271,615,o),
(271,647,q),
(271,679,o),
(250,700.5,q),
(229,722,o),
(190,722,q),
(175,722,o),
(159,718,q)
);
}
);
width = 440;
}
);
unicode = 179;
},
{
category = Letter;
glyphname = acute;
layers = (
{
layerId = "488cb3fc-7928-4381-9d20-07afbe5c7c4e";
name = Fore;
shapes = (
{
closed = 1;
nodes = (
(272,765,o),
(291.5,765,q),
(311,765,o),
(327.5,750.5,q),
(344,736,o),
(344,713,q),
(344,690,o),
(326,672.5,q),
(308,655,o),
(261,632,q),
(113,559,l),
(92,583,l),
(211,715,l),
(228,734,o),
(236.5,742.5,q),
(245,751,o),
(258.5,758,q)
);
}
);
width = 371;
}
);
unicode = 180;
},
{
category = Letter;
glyphname = mu;
layers = (
{
layerId = "488cb3fc-7928-4381-9d20-07afbe5c7c4e";
name = Fore;
shapes = (
{
closed = 1;
nodes = (
(274,46,l),
(444,46,o),
(444,147,q),
(444,500,l),
(594,500,l),
(594,111,l),
(594,84,o),
(607,68.5,q),
(620,53,o),
(647,53,q),
(674,53,o),
(709,82,q),
(727,58,l),
(647,-15,o),
(564,-15,q),
(481,-15,o),
(454,59,q),
(416,19,o),
(375.5,2.5,q),
(335,-14,o),
(274,-15,q),
(274,-250,l),
(124,-250,l),
(124,467,l),
(69,453,o),
(40,418,q),
(13,449,l),
(42,479,o),
(86.5,497,q),
(131,515,o),
(174.5,515,q),
(218,515,o),
(246,497.5,q),
(274,480,o),
(274,454,q)
);
}
);
width = 707;
}
);
unicode = 181;
},
{
category = Letter;
glyphname = paragraph;
layers = (
{
layerId = "488cb3fc-7928-4381-9d20-07afbe5c7c4e";
name = Fore;
shapes = (
{
closed = 1;
nodes = (
(108,40,l),
(264,40,l),
(264,307,l),
(204,307,l),
(113,307,o),
(56.5,366,q),
(0,425,o),
(0,511,q),
(0,597,o),
(56.5,656,q),
(113,715,o),
(204,715,q),
(295,715,o),
(351.5,656,q),
(408,597,o),
(408,511,q),
(408,40,l),
(478,40,l),
(478,0,l),
(108,0,l)
);
}
);
width = 548;
}
);
unicode = 182;
},
{
category = Letter;
glyphname = periodcentered;
layers = (
{
layerId = "488cb3fc-7928-4381-9d20-07afbe5c7c4e";
name = Fore;
shapes = (
{
closed = 1;
nodes = (
(60,324,o),
(82.5,346.5,q),
(105,369,o),
(137,369,q),
(169,369,o),
(191.5,346.5,q),
(214,324,o),
(214,292,q),
(214,260,o),
(191.5,237.5,q),
(169,215,o),
(137,215,q),
(105,215,o),
(82.5,237.5,q),
(60,260,o),
(60,292,q)
);
}
);
width = 274;
}
);
unicode = 183;
},
{
category = Letter;
glyphname = cedilla;
layers = (
{
layerId = "488cb3fc-7928-4381-9d20-07afbe5c7c4e";
name = Fore;
shapes = (
{
closed = 1;
nodes = (
(242,-70,o),
(271,-97,q),
(300,-124,o),
(300,-165,q),
(300,-206,o),
(265.5,-235.5,q),
(231,-265,o),
(182,-265,q),
(133,-265,o),
(101.5,-247,q),
(70,-229,o),
(70,-196,q),
(70,-179,o),
(82,-167,q),
(94,-155,o),
(110.5,-155,q),
(127,-155,o),
(139.5,-167.5,q),
(152,-180,o),
(152,-199,q),
(152,-218,o),
(134,-231,q),
(142,-233,o),
(149,-233,q),
(178,-233,o),
(195.5,-215,q),
(213,-197,o),
(213,-172.5,q),
(213,-148,o),
(194,-129,q),
(175,-110,o),
(140,-110,q),
(118,-93,l),
(162,0,l),
(192,0,l),
(154,-77,l),
(171,-70,o),
(195,-70,q)
);
}
);
width = 330;
}
);
unicode = 184;
},
{
category = Letter;
glyphname = onesuperior;
layers = (
{
layerId = "488cb3fc-7928-4381-9d20-07afbe5c7c4e";
name = Fore;
shapes = (
{
closed = 1;
nodes = (
(249,366,l),
(325,366,l),
(325,331,l),
(60,331,l),
(60,366,l),
(148,366,l),
(148,668,l),
(99,649,o),
(35,649,q),
(35,684,l),
(91,684,o),
(139,704,q),
(187,724,o),
(214,756,q),
(249,756,l)
);
}
);
width = 363;
}
);
unicode = 185;
},
{
category = Letter;
glyphname = ordmasculine;
layers = (
{
layerId = "488cb3fc-7928-4381-9d20-07afbe5c7c4e";
name = Fore;
shapes = (
{
closed = 1;
nodes = (
(81,608,o),
(132.5,661.5,q),
(184,715,o),
(268,715,q),
(352,715,o),
(403.5,661.5,q),
(455,608,o),
(455,528.5,q),
(455,449,o),
(403.5,395,q),
(352,341,o),
(268,341,q),
(184,341,o),
(132.5,395.5,q),
(81,450,o),
(81,529,q)
);
},
{
closed = 1;
nodes = (
(199,464,o),
(216.5,423,q),
(234,382,o),
(269,382,q),
(304,382,o),
(321.5,423,q),
(339,464,o),
(339,529,q),
(339,594,o),
(321.5,634.5,q),
(304,675,o),
(269,675,q),
(234,675,o),
(216.5,634.5,q),
(199,594,o),
(199,529,q)
);
}
);
width = 536;
}
);
unicode = 186;
},
{
category = Letter;
glyphname = guillemotright;
layers = (
{
layerId = "488cb3fc-7928-4381-9d20-07afbe5c7c4e";
name = Fore;
shapes = (
{
closed = 1;
nodes = (
(456,260,o),
(428,234,q),
(284,96,l),
(260,117,l),
(355,288,l),
(355,296,l),
(260,467,l),
(284,488,l),
(428,350,l),
(456,324,o),
(456,292,q)
);
},
{
closed = 1;
nodes = (
(256,260,o),
(228,234,q),
(84,96,l),
(60,117,l),
(155,288,l),
(155,296,l),
(60,467,l),
(84,488,l),
(228,350,l),
(256,324,o),
(256,292,q)
);
}
);
width = 486;
}
);
unicode = 187;
},
{
category = Letter;
glyphname = onequarter;
layers = (
{
layerId = "488cb3fc-7928-4381-9d20-07afbe5c7c4e";
name = Fore;
shapes = (
{
closed = 1;
nodes = (
(342,0,l),
(302,0,l),
(692,700,l),
(732,700,l)
);
},
{
closed = 1;
nodes = (
(284,310,l),
(360,310,l),
(360,275,l),
(95,275,l),
(95,310,l),
(183,310,l),
(183,612,l),
(134,593,o),
(70,593,q),
(70,628,l),
(126,628,o),
(174,648,q),
(222,668,o),
(249,700,q),
(284,700,l)
);
},
{
closed = 1;
nodes = (
(836,340,o),
(792.5,262.5,q),
(749,185,o),
(689,135,q),
(809,135,l),
(809,252,l),
(861,271,o),
(873,316,q),
(910,316,l),
(910,135,l),
(945,135,l),
(945,93,l),
(910,93,l),
(910,35,l),
(980,35,l),
(980,0,l),
(733,0,l),
(733,35,l),
(809,35,l),
(809,93,l),
(628,93,l),
(628,131,l),
(717,213,o),
(724,425,q),
(836,425,l)
);
}
);
width = 1044;
}
);
unicode = 188;
},
{
category = Letter;
glyphname = onehalf;
layers = (
{
layerId = "488cb3fc-7928-4381-9d20-07afbe5c7c4e";
name = Fore;
shapes = (
{
closed = 1;
nodes = (
(342,0,l),
(302,0,l),
(692,700,l),
(732,700,l)
);
},
{
closed = 1;
nodes = (
(284,310,l),
(360,310,l),
(360,275,l),
(95,275,l),
(95,310,l),
(183,310,l),
(183,612,l),
(134,593,o),
(70,593,q),
(70,628,l),
(126,628,o),
(174,648,q),
(222,668,o),
(249,700,q),
(284,700,l)
);
},
{
closed = 1;
nodes = (
(646,0,l),
(646,31,l),
(787,174,l),
(846,233,o),
(846,300,q),
(846,339,o),
(823.5,365,q),
(801,391,o),
(767,391,q),
(752,391,o),
(736,387,q),
(758,372,o),
(758,348,q),
(758,324,o),
(742,307.5,q),
(726,291,o),
(704.5,291,q),
(683,291,o),
(667.5,307,q),
(652,323,o),
(652,344,q),
(652,385,o),
(693.5,409.5,q),
(735,434,o),
(797,434,q),
(859,434,o),
(899,400.5,q),
(939,367,o),
(939,319,q),
(939,294,o),
(919,261.5,q),
(899,229,o),
(882,211,q),
(865,193,o),
(831,160,q),
(735,66,l),
(817,66,l),
(852,66,o),
(868,75.5,q),
(884,85,o),
(889,109,q),
(895,136,l),
(927,136,l),
(944,31,l),
(944,16,o),
(937.5,9,q),
(931,2,o),
(924.5,1,q),
(918,0,o),
(903,0,q)
);
}
);
width = 1044;
}
);
unicode = 189;
},
{
category = Letter;
glyphname = threequarters;
layers = (
{
layerId = "488cb3fc-7928-4381-9d20-07afbe5c7c4e";
name = Fore;
shapes = (
{
closed = 1;
nodes = (
(352,0,l),
(312,0,l),
(702,700,l),
(742,700,l)
);
},
{
closed = 1;
nodes = (
(206,647,o),
(206,622.5,q),
(206,598,o),
(190,582,q),
(174,566,o),
(152.5,566,q),
(131,566,o),
(115.5,582,q),
(100,598,o),
(100,619,q),
(100,660,o),
(142.5,684.5,q),
(185,709,o),
(247.5,709,q),
(310,709,o),
(348.5,675.5,q),
(387,642,o),
(387,594,q),
(387,528,o),
(315,490,q),
(351,476,o),
(372,450,q),
(393,424,o),
(393,393,q),
(393,339,o),
(348,302.5,q),
(303,266,o),
(239.5,266,q),
(176,266,o),
(135,290,q),
(94,314,o),
(94,356,q),
(94,377,o),
(109.5,393,q),
(125,409,o),
(146.5,409,q),
(168,409,o),
(184,393,q),
(200,377,o),
(200,351,q),
(200,325,o),
(177,310,q),
(189,308,o),
(197,308,q),
(242,308,o),
(266,333.5,q),
(290,359,o),
(290,392,q),
(290,425,o),
(267.5,448.5,q),
(245,472,o),
(203,472,q),
(166,472,l),
(166,508,l),
(212,508,l),
(253,508,o),
(274.5,533.5,q),
(296,559,o),
(296,591,q),
(296,623,o),
(275,644.5,q),
(254,666,o),
(215,666,q),
(200,666,o),
(184,662,q)
);
},
{
closed = 1;
nodes = (
(836,340,o),
(792.5,262.5,q),
(749,185,o),
(689,135,q),
(809,135,l),
(809,252,l),
(861,271,o),
(873,316,q),
(910,316,l),
(910,135,l),
(945,135,l),
(945,93,l),
(910,93,l),
(910,35,l),
(980,35,l),
(980,0,l),
(733,0,l),
(733,35,l),
(809,35,l),
(809,93,l),
(628,93,l),
(628,131,l),
(717,213,o),
(724,425,q),
(836,425,l)
);
}
);
width = 1044;
}
);
unicode = 190;
},
{
category = Letter;
glyphname = questiondown;
layers = (
{
layerId = "488cb3fc-7928-4381-9d20-07afbe5c7c4e";
name = Fore;
shapes = (
{
closed = 1;
nodes = (
(185,40,o),
(185,-19,q),
(185,-78,o),
(220,-120.5,q),
(255,-163,o),
(321,-163,q),
(353,-163,o),
(378,-152,q),
(351,-145,o),
(334,-123.5,q),
(317,-102,o),
(317,-72,q),
(317,-42,o),
(341,-18,q),
(365,6,o),
(398,6,q),
(431,6,o),
(454,-17.5,q),
(477,-41,o),
(477,-74,q),
(477,-141,o),
(413.5,-178,q),
(350,-215,o),
(259.5,-215,q),
(169,-215,o),
(109.5,-161.5,q),
(50,-108,o),
(50,-31,q),
(50,46,o),
(102,103.5,q),
(154,161,o),
(244,181,q),
(258,297,l),
(312,297,l),
(329,151,l),
(251,137,o),
(218,88.5,q)
);
},
{
closed = 1;
nodes = (
(362,406,o),
(339.5,383.5,q),
(317,361,o),
(285,361,q),
(253,361,o),
(230.5,383.5,q),
(208,406,o),
(208,438,q),
(208,470,o),
(230.5,492.5,q),
(253,515,o),
(285,515,q),
(317,515,o),
(339.5,492.5,q),
(362,470,o),
(362,438,q)
);
}
);
width = 527;
}
);
unicode = 191;
},
{
category = Letter;
glyphname = Agrave;
kernLeft = A.2;
kernRight = A;
layers = (
{
layerId = "488cb3fc-7928-4381-9d20-07afbe5c7c4e";
name = Fore;
shapes = (
{
closed = 1;
nodes = (
(169,700,l),
(407,700,l),
(606,40,l),
(656,40,l),
(656,0,l),
(398,0,l),
(398,40,l),
(456,40,l),
(419,163,l),
(147,163,l),
(111,40,l),
(169,40,l),
(169,0,l),
(0,0,l),
(0,40,l),
(50,40,l),
(237,660,l),
(169,660,l)
);
},
{
closed = 1;
nodes = (
(161,208,l),
(405,208,l),
(282,617,l)
);
},
{
closed = 1;
nodes = (
(215,965,o),
(234.5,965,q),
(254,965,o),
(267.5,958,q),
(281,951,o),
(289.5,942.5,q),
(298,934,o),
(315,915,q),
(434,783,l),
(413,759,l),
(265,832,l),
(218,855,o),
(200,872.5,q),
(182,890,o),
(182,913,q),
(182,936,o),
(198.5,950.5,q)
);
}
);
width = 656;
}
);
unicode = 192;
},
{
category = Letter;
glyphname = Aacute;
kernLeft = A.2;
kernRight = A;
layers = (
{
layerId = "488cb3fc-7928-4381-9d20-07afbe5c7c4e";
name = Fore;
shapes = (
{
closed = 1;
nodes = (
(169,700,l),
(407,700,l),
(606,40,l),
(656,40,l),
(656,0,l),
(398,0,l),
(398,40,l),
(456,40,l),
(419,163,l),
(147,163,l),
(111,40,l),
(169,40,l),
(169,0,l),
(0,0,l),
(0,40,l),
(50,40,l),
(237,660,l),
(169,660,l)
);
},
{
closed = 1;
nodes = (
(161,208,l),
(405,208,l),
(282,617,l)
);
},
{
closed = 1;
nodes = (
(393,965,o),
(412.5,965,q),
(432,965,o),
(448.5,950.5,q),
(465,936,o),
(465,913,q),
(465,890,o),
(447,872.5,q),
(429,855,o),
(382,832,q),
(234,759,l),
(213,783,l),
(332,915,l),
(349,934,o),
(357.5,942.5,q),
(366,951,o),
(379.5,958,q)
);
}
);
width = 656;
}
);
unicode = 193;
},
{
category = Letter;
glyphname = Acircumflex;
kernLeft = A.2;
kernRight = A;
layers = (
{
layerId = "488cb3fc-7928-4381-9d20-07afbe5c7c4e";
name = Fore;
shapes = (
{
closed = 1;
nodes = (
(169,700,l),
(407,700,l),
(606,40,l),
(656,40,l),
(656,0,l),
(398,0,l),
(398,40,l),
(456,40,l),
(419,163,l),
(147,163,l),
(111,40,l),
(169,40,l),
(169,0,l),
(0,0,l),
(0,40,l),
(50,40,l),
(237,660,l),
(169,660,l)
);
},
{
closed = 1;
nodes = (
(161,208,l),
(405,208,l),
(282,617,l)
);
},
{
closed = 1;
nodes = (
(338,965,o),
(366,927,q),
(474,783,l),
(453,759,l),
(312,854,l),
(304,854,l),
(163,759,l),
(142,783,l),
(250,927,l),
(278,965,o),
(308,965,q)
);
}
);
width = 656;
}
);
unicode = 194;
},
{
category = Letter;
glyphname = Atilde;
kernLeft = A.2;
kernRight = A;
layers = (
{
layerId = "488cb3fc-7928-4381-9d20-07afbe5c7c4e";
name = Fore;
shapes = (
{
closed = 1;
nodes = (
(169,700,l),
(407,700,l),
(606,40,l),
(656,40,l),
(656,0,l),
(398,0,l),
(398,40,l),
(456,40,l),
(419,163,l),
(147,163,l),
(111,40,l),
(169,40,l),
(169,0,l),
(0,0,l),
(0,40,l),
(50,40,l),
(237,660,l),
(169,660,l)
);
},
{
closed = 1;
nodes = (
(161,208,l),
(405,208,l),
(282,617,l)
);
},
{
closed = 1;
nodes = (
(452,824,l),
(452,863,o),
(424,863,q),
(412,863,o),
(401,856,q),
(316,808,l),
(284,789,o),
(256,789,q),
(228,789,o),
(205.5,815,q),
(183,841,o),
(183,875.5,q),
(183,910,o),
(191,942,q),
(227,942,l),
(227,927,l),
(227,888,o),
(255,888,q),
(267,888,o),
(278,895,q),
(363,943,l),
(395,962,o),
(423,962,q),
(451,962,o),
(473.5,936,q),
(496,910,o),
(496,875.5,q),
(496,841,o),
(488,809,q),
(452,809,l)
);
}
);
width = 656;
}
);
unicode = 195;
},
{
category = Letter;
glyphname = Adieresis;
kernLeft = A.2;
kernRight = A;
layers = (
{
layerId = "488cb3fc-7928-4381-9d20-07afbe5c7c4e";
name = Fore;
shapes = (
{
closed = 1;
nodes = (
(169,700,l),
(407,700,l),
(606,40,l),
(656,40,l),
(656,0,l),
(398,0,l),
(398,40,l),
(456,40,l),
(419,163,l),
(147,163,l),
(111,40,l),
(169,40,l),
(169,0,l),
(0,0,l),
(0,40,l),
(50,40,l),
(237,660,l),
(169,660,l)
);
},
{
closed = 1;
nodes = (
(161,208,l),
(405,208,l),
(282,617,l)
);
},
{
closed = 1;
nodes = (
(128,902,o),
(150,924,q),
(172,946,o),
(204,946,q),
(236,946,o),
(258,924,q),
(280,902,o),
(280,870,q),
(280,838,o),
(258,816,q),
(236,794,o),
(204,794,q),
(172,794,o),
(150,816,q),
(128,838,o),
(128,870,q)
);
},
{
closed = 1;
nodes = (
(358,902,o),
(380,924,q),
(402,946,o),
(434,946,q),
(466,946,o),
(488,924,q),
(510,902,o),
(510,870,q),
(510,838,o),
(488,816,q),
(466,794,o),
(434,794,q),
(402,794,o),
(380,816,q),
(358,838,o),
(358,870,q)
);
}
);
width = 656;
}
);
unicode = 196;
},
{
category = Letter;
glyphname = Aring;
kernLeft = A.2;
kernRight = A;
layers = (
{
layerId = "488cb3fc-7928-4381-9d20-07afbe5c7c4e";
name = Fore;
shapes = (
{
closed = 1;
nodes = (
(169,700,l),
(407,700,l),
(606,40,l),
(656,40,l),
(656,0,l),
(398,0,l),
(398,40,l),
(456,40,l),
(419,163,l),
(147,163,l),
(111,40,l),
(169,40,l),
(169,0,l),
(0,0,l),
(0,40,l),
(50,40,l),
(237,660,l),
(169,660,l)
);
},
{
closed = 1;
nodes = (
(161,208,l),
(405,208,l),
(282,617,l)
);
},
{
closed = 1;
nodes = (
(179,817,o),
(179,869.5,q),
(179,922,o),
(216,954.5,q),
(253,987,o),
(308,987,q),
(363,987,o),
(400,954.5,q),
(437,922,o),
(437,869.5,q),
(437,817,o),
(400,785,q),
(363,753,o),
(308,753,q),
(253,753,o),
(216,785,q)
);
},
{
closed = 1;
nodes = (
(263,786,o),
(307.5,786,q),
(352,786,o),
(352,869,q),
(352,952,o),
(307.5,952,q),
(263,952,o),
(263,869,q)
);
}
);
width = 656;
}
);
unicode = 197;
},
{
category = Letter;
glyphname = AE;
kernLeft = AE;
layers = (
{
layerId = "488cb3fc-7928-4381-9d20-07afbe5c7c4e";
name = Fore;
shapes = (
{
closed = 1;
nodes = (
(-20,40,l),
(32,40,l),
(245,660,l),
(178,660,l),
(178,700,l),
(781,700,l),
(803,700,o),
(813.5,698.5,q),
(824,697,o),
(833,687.5,q),
(842,678,o),
(842,658,q),
(815,490,l),
(776,490,l),
(756,589,l),
(747,634,o),
(722.5,647,q),
(698,660,o),
(632,660,q),
(562,660,l),
(562,318,l),
(792,318,l),
(792,273,l),
(562,273,l),
(562,40,l),
(652,40,l),
(717,40,o),
(741.5,53,q),
(766,66,o),
(776,111,q),
(796,200,l),
(835,200,l),
(862,42,l),
(862,22,o),
(853,12.5,q),
(844,3,o),
(833.5,1.5,q),
(823,0,o),
(801,0,q),
(352,0,l),
(352,40,l),
(412,40,l),
(412,273,l),
(172,273,l),
(92,40,l),
(149,40,l),
(149,0,l),
(-20,0,l)
);
},
{
closed = 1;
nodes = (
(412,660,l),
(303,660,l),
(187,318,l),
(412,318,l)
);
}
);
width = 912;
}
);
unicode = 198;
},
{
category = Letter;
glyphname = Ccedilla;
layers = (
{
layerId = "488cb3fc-7928-4381-9d20-07afbe5c7c4e";
name = Fore;
shapes = (
{
closed = 1;
nodes = (
(295,668,o),
(250,578.5,q),
(205,489,o),
(205,355,q),
(205,221,o),
(252.5,136,q),
(300,51,o),
(389,51,q),
(439,51,o),
(481,72,q),
(523,93,o),
(544.5,116,q),
(566,139,o),
(590,174,q),
(625,149,l),
(577,72,o),
(517.5,28.5,q),
(458,-15,o),
(365,-15,q),
(351,-15,o),
(345,-14,q),
(314,-77,l),
(331,-70,o),
(355,-70,q),
(402,-70,o),
(431,-97,q),
(460,-124,o),
(460,-165,q),
(460,-206,o),
(425.5,-235.5,q),
(391,-265,o),
(342,-265,q),
(293,-265,o),
(261.5,-247,q),
(230,-229,o),
(230,-196,q),
(230,-179,o),
(242,-167,q),
(254,-155,o),
(270.5,-155,q),
(287,-155,o),
(299.5,-167.5,q),
(312,-180,o),
(312,-199,q),
(312,-218,o),
(294,-231,q),
(302,-233,o),
(309,-233,q),
(338,-233,o),
(355.5,-215,q),
(373,-197,o),
(373,-172.5,q),
(373,-148,o),
(354,-129,q),
(335,-110,o),
(300,-110,q),
(278,-93,l),
(316,-11,l),
(197,8,o),
(123.5,109,q),
(50,210,o),
(50,358.5,q),
(50,507,o),
(138,611,q),
(226,715,o),
(382,715,q),
(463,715,o),
(538,683,q),
(613,651,o),
(613,607,q),
(613,590,o),
(602,568,q),
(542,452,l),
(506,463,l),
(515,525,l),
(519,549,o),
(519,571,q),
(519,610,o),
(481,639,q),
(443,668,o),
(382,668,q)
);
}
);
width = 650;
}
);
unicode = 199;
},
{
category = Letter;
glyphname = Egrave;
layers = (
{
layerId = "488cb3fc-7928-4381-9d20-07afbe5c7c4e";
name = Fore;
shapes = (
{
closed = 1;
nodes = (
(70,0,l),
(70,40,l),
(130,40,l),
(130,660,l),
(70,660,l),
(70,700,l),
(499,700,l),
(521,700,o),
(531.5,698.5,q),
(542,697,o),
(551,687.5,q),
(560,678,o),
(560,658,q),
(533,490,l),
(494,490,l),
(474,589,l),
(465,634,o),
(440.5,647,q),
(416,660,o),
(350,660,q),
(280,660,l),
(280,318,l),
(510,318,l),
(510,273,l),
(280,273,l),
(280,40,l),
(370,40,l),
(435,40,o),
(459.5,53,q),
(484,66,o),
(494,111,q),
(514,200,l),
(553,200,l),
(580,42,l),
(580,22,o),
(571,12.5,q),
(562,3,o),
(551.5,1.5,q),
(541,0,o),
(519,0,q)
);
},
{
closed = 1;
nodes = (
(222,965,o),
(241.5,965,q),
(261,965,o),
(274.5,958,q),
(288,951,o),
(296.5,942.5,q),
(305,934,o),
(322,915,q),
(441,783,l),
(420,759,l),
(272,832,l),
(225,855,o),
(207,872.5,q),
(189,890,o),
(189,913,q),
(189,936,o),
(205.5,950.5,q)
);
}
);
width = 630;
}
);
unicode = 200;
},
{
category = Letter;
glyphname = Eacute;
layers = (
{
layerId = "488cb3fc-7928-4381-9d20-07afbe5c7c4e";
name = Fore;
shapes = (
{
closed = 1;
nodes = (
(70,0,l),
(70,40,l),
(130,40,l),
(130,660,l),
(70,660,l),
(70,700,l),
(499,700,l),
(521,700,o),
(531.5,698.5,q),
(542,697,o),
(551,687.5,q),
(560,678,o),
(560,658,q),
(533,490,l),
(494,490,l),
(474,589,l),
(465,634,o),
(440.5,647,q),
(416,660,o),
(350,660,q),
(280,660,l),
(280,318,l),
(510,318,l),
(510,273,l),
(280,273,l),
(280,40,l),
(370,40,l),
(435,40,o),
(459.5,53,q),
(484,66,o),
(494,111,q),
(514,200,l),
(553,200,l),
(580,42,l),
(580,22,o),
(571,12.5,q),
(562,3,o),
(551.5,1.5,q),
(541,0,o),
(519,0,q)
);
},
{
closed = 1;
nodes = (
(369,965,o),
(388.5,965,q),
(408,965,o),
(424.5,950.5,q),
(441,936,o),
(441,913,q),
(441,890,o),
(423,872.5,q),
(405,855,o),
(358,832,q),
(210,759,l),
(189,783,l),
(308,915,l),
(325,934,o),
(333.5,942.5,q),
(342,951,o),
(355.5,958,q)
);
}
);
width = 630;
}
);
unicode = 201;
},
{
category = Letter;
glyphname = Ecircumflex;
layers = (
{
layerId = "488cb3fc-7928-4381-9d20-07afbe5c7c4e";
name = Fore;
shapes = (
{
closed = 1;
nodes = (
(70,0,l),
(70,40,l),
(130,40,l),
(130,660,l),
(70,660,l),
(70,700,l),
(499,700,l),
(521,700,o),
(531.5,698.5,q),
(542,697,o),
(551,687.5,q),
(560,678,o),
(560,658,q),
(533,490,l),
(494,490,l),
(474,589,l),
(465,634,o),
(440.5,647,q),
(416,660,o),
(350,660,q),
(280,660,l),
(280,318,l),
(510,318,l),
(510,273,l),
(280,273,l),
(280,40,l),
(370,40,l),
(435,40,o),
(459.5,53,q),
(484,66,o),
(494,111,q),
(514,200,l),
(553,200,l),
(580,42,l),
(580,22,o),
(571,12.5,q),
(562,3,o),
(551.5,1.5,q),
(541,0,o),
(519,0,q)
);
},
{
closed = 1;
nodes = (
(365,965,o),
(393,927,q),
(501,783,l),
(480,759,l),
(339,854,l),
(331,854,l),
(190,759,l),
(169,783,l),
(277,927,l),
(305,965,o),
(335,965,q)
);
}
);
width = 630;
}
);
unicode = 202;
},
{
category = Letter;
glyphname = Edieresis;
layers = (
{
layerId = "488cb3fc-7928-4381-9d20-07afbe5c7c4e";
name = Fore;
shapes = (
{
closed = 1;
nodes = (
(70,0,l),
(70,40,l),
(130,40,l),
(130,660,l),
(70,660,l),
(70,700,l),
(499,700,l),
(521,700,o),
(531.5,698.5,q),
(542,697,o),
(551,687.5,q),
(560,678,o),
(560,658,q),
(533,490,l),
(494,490,l),
(474,589,l),
(465,634,o),
(440.5,647,q),
(416,660,o),
(350,660,q),
(280,660,l),
(280,318,l),
(510,318,l),
(510,273,l),
(280,273,l),
(280,40,l),
(370,40,l),
(435,40,o),
(459.5,53,q),
(484,66,o),
(494,111,q),
(514,200,l),
(553,200,l),
(580,42,l),
(580,22,o),
(571,12.5,q),
(562,3,o),
(551.5,1.5,q),
(541,0,o),
(519,0,q)
);
},
{
closed = 1;
nodes = (
(124,902,o),
(146,924,q),
(168,946,o),
(200,946,q),
(232,946,o),
(254,924,q),
(276,902,o),
(276,870,q),
(276,838,o),
(254,816,q),
(232,794,o),
(200,794,q),
(168,794,o),
(146,816,q),
(124,838,o),
(124,870,q)
);
},
{
closed = 1;
nodes = (
(354,902,o),
(376,924,q),
(398,946,o),
(430,946,q),
(462,946,o),
(484,924,q),
(506,902,o),
(506,870,q),
(506,838,o),
(484,816,q),
(462,794,o),
(430,794,q),
(398,794,o),
(376,816,q),
(354,838,o),
(354,870,q)
);
}
);
width = 630;
}
);
unicode = 203;
},
{
category = Letter;
glyphname = Igrave;
layers = (
{
layerId = "488cb3fc-7928-4381-9d20-07afbe5c7c4e";
name = Fore;
shapes = (
{
closed = 1;
nodes = (
(60,700,l),
(350,700,l),
(350,660,l),
(280,660,l),
(280,40,l),
(350,40,l),
(350,0,l),
(60,0,l),
(60,40,l),
(130,40,l),
(130,660,l),
(60,660,l)
);
},
{
closed = 1;
nodes = (
(112,965,o),
(131.5,965,q),
(151,965,o),
(164.5,958,q),
(178,951,o),
(186.5,942.5,q),
(195,934,o),
(212,915,q),
(331,783,l),
(310,759,l),
(162,832,l),
(115,855,o),
(97,872.5,q),
(79,890,o),
(79,913,q),
(79,936,o),
(95.5,950.5,q)
);
}
);
width = 410;
}
);
unicode = 204;
},
{
category = Letter;
glyphname = Iacute;
layers = (
{
layerId = "488cb3fc-7928-4381-9d20-07afbe5c7c4e";
name = Fore;
shapes = (
{
closed = 1;
nodes = (
(60,700,l),
(350,700,l),
(350,660,l),
(280,660,l),
(280,40,l),
(350,40,l),
(350,0,l),
(60,0,l),
(60,40,l),
(130,40,l),
(130,660,l),
(60,660,l)
);
},
{
closed = 1;
nodes = (
(279,965,o),
(298.5,965,q),
(318,965,o),
(334.5,950.5,q),
(351,936,o),
(351,913,q),
(351,890,o),
(333,872.5,q),
(315,855,o),
(268,832,q),
(120,759,l),
(99,783,l),
(218,915,l),
(235,934,o),
(243.5,942.5,q),
(252,951,o),
(265.5,958,q)
);
}
);
width = 410;
}
);
unicode = 205;
},
{
category = Letter;
glyphname = Icircumflex;
layers = (
{
layerId = "488cb3fc-7928-4381-9d20-07afbe5c7c4e";
name = Fore;
shapes = (
{
closed = 1;
nodes = (
(60,700,l),
(350,700,l),
(350,660,l),
(280,660,l),
(280,40,l),
(350,40,l),
(350,0,l),
(60,0,l),
(60,40,l),
(130,40,l),
(130,660,l),
(60,660,l)
);
},
{
closed = 1;
nodes = (
(235,965,o),
(263,927,q),
(371,783,l),
(350,759,l),
(209,854,l),
(201,854,l),
(60,759,l),
(39,783,l),
(147,927,l),
(175,965,o),
(205,965,q)
);
}
);
width = 410;
}
);
unicode = 206;
},
{
category = Letter;
glyphname = Idieresis;
layers = (
{
layerId = "488cb3fc-7928-4381-9d20-07afbe5c7c4e";
name = Fore;
shapes = (
{
closed = 1;
nodes = (
(60,700,l),
(350,700,l),
(350,660,l),
(280,660,l),
(280,40,l),
(350,40,l),
(350,0,l),
(60,0,l),
(60,40,l),
(130,40,l),
(130,660,l),
(60,660,l)
);
},
{
closed = 1;
nodes = (
(4,902,o),
(26,924,q),
(48,946,o),
(80,946,q),
(112,946,o),
(134,924,q),
(156,902,o),
(156,870,q),
(156,838,o),
(134,816,q),
(112,794,o),
(80,794,q),
(48,794,o),
(26,816,q),
(4,838,o),
(4,870,q)
);
},
{
closed = 1;
nodes = (
(234,902,o),
(256,924,q),
(278,946,o),
(310,946,q),
(342,946,o),
(364,924,q),
(386,902,o),
(386,870,q),
(386,838,o),
(364,816,q),
(342,794,o),
(310,794,q),
(278,794,o),
(256,816,q),
(234,838,o),
(234,870,q)
);
}
);
width = 410;
}
);
unicode = 207;
},
{
category = Letter;
glyphname = Eth;
layers = (
{
layerId = "488cb3fc-7928-4381-9d20-07afbe5c7c4e";
name = Fore;
shapes = (
{
closed = 1;
nodes = (
(70,318,l),
(150,318,l),
(150,660,l),
(70,660,l),
(70,700,l),
(340,700,l),
(520,700,o),
(631,602.5,q),
(742,505,o),
(742,350.5,q),
(742,196,o),
(631,98,q),
(520,0,o),
(340,0,q),
(70,0,l),
(70,40,l),
(150,40,l),
(150,273,l),
(70,273,l)
);
},
{
closed = 1;
nodes = (
(300,660,l),
(300,318,l),
(450,318,l),
(450,273,l),
(300,273,l),
(300,40,l),
(340,40,l),
(456,40,o),
(521.5,123.5,q),
(587,207,o),
(587,350,q),
(587,493,o),
(521.5,576.5,q),
(456,660,o),
(340,660,q)
);
}
);
width = 782;
}
);
unicode = 208;
},
{
category = Letter;
glyphname = Ntilde;
layers = (
{
layerId = "488cb3fc-7928-4381-9d20-07afbe5c7c4e";
name = Fore;
shapes = (
{
closed = 1;
nodes = (
(60,40,l),
(120,40,l),
(120,660,l),
(60,660,l),
(60,700,l),
(294,700,l),
(580,137,l),
(580,660,l),
(520,660,l),
(520,700,l),
(710,700,l),
(710,660,l),
(650,660,l),
(650,0,l),
(491,0,l),
(190,592,l),
(190,40,l),
(250,40,l),
(250,0,l),
(60,0,l)
);
},
{
closed = 1;
nodes = (
(510,824,l),
(510,863,o),
(482,863,q),
(470,863,o),
(459,856,q),
(374,808,l),
(342,789,o),
(314,789,q),
(286,789,o),
(263.5,815,q),
(241,841,o),
(241,875.5,q),
(241,910,o),
(249,942,q),
(285,942,l),
(285,927,l),
(285,888,o),
(313,888,q),
(325,888,o),
(336,895,q),
(421,943,l),
(453,962,o),
(481,962,q),
(509,962,o),
(531.5,936,q),
(554,910,o),
(554,875.5,q),
(554,841,o),
(546,809,q),
(510,809,l)
);
}
);
width = 770;
}
);
unicode = 209;
},
{
category = Letter;
glyphname = Ograve;
layers = (
{
layerId = "488cb3fc-7928-4381-9d20-07afbe5c7c4e";
name = Fore;
shapes = (
{
closed = 1;
nodes = (
(223,715,o),
(383.5,715,q),
(544,715,o),
(631,612,q),
(718,509,o),
(718,349.5,q),
(718,190,o),
(631,87.5,q),
(544,-15,o),
(383.5,-15,q),
(223,-15,o),
(136.5,87.5,q),
(50,190,o),
(50,349,q),
(50,508,o),
(136.5,611.5,q)
);
},
{
closed = 1;
nodes = (
(325,668,o),
(284,622,q),
(205,536,o),
(205,349,q),
(205,163,o),
(284,78,q),
(326,32,o),
(384,32,q),
(470,32,o),
(516.5,124,q),
(563,216,o),
(563,349.5,q),
(563,483,o),
(516.5,575.5,q),
(470,668,o),
(384,668,q)
);
},
{
closed = 1;
nodes = (
(271,965,o),
(290.5,965,q),
(310,965,o),
(323.5,958,q),
(337,951,o),
(345.5,942.5,q),
(354,934,o),
(371,915,q),
(490,783,l),
(469,759,l),
(321,832,l),
(274,855,o),
(256,872.5,q),
(238,890,o),
(238,913,q),
(238,936,o),
(254.5,950.5,q)
);
}
);
width = 768;
}
);
unicode = 210;
},
{
category = Letter;
glyphname = Oacute;
layers = (
{
layerId = "488cb3fc-7928-4381-9d20-07afbe5c7c4e";
name = Fore;
shapes = (
{
closed = 1;
nodes = (
(223,715,o),
(383.5,715,q),
(544,715,o),
(631,612,q),
(718,509,o),
(718,349.5,q),
(718,190,o),
(631,87.5,q),
(544,-15,o),
(383.5,-15,q),
(223,-15,o),
(136.5,87.5,q),
(50,190,o),
(50,349,q),
(50,508,o),
(136.5,611.5,q)
);
},
{
closed = 1;
nodes = (
(325,668,o),
(284,622,q),
(205,536,o),
(205,349,q),
(205,163,o),
(284,78,q),
(326,32,o),
(384,32,q),
(470,32,o),
(516.5,124,q),
(563,216,o),
(563,349.5,q),
(563,483,o),
(516.5,575.5,q),
(470,668,o),
(384,668,q)
);
},
{
closed = 1;
nodes = (
(438,965,o),
(457.5,965,q),
(477,965,o),
(493.5,950.5,q),
(510,936,o),
(510,913,q),
(510,890,o),
(492,872.5,q),
(474,855,o),
(427,832,q),
(279,759,l),
(258,783,l),
(377,915,l),
(394,934,o),
(402.5,942.5,q),
(411,951,o),
(424.5,958,q)
);
}
);
width = 768;
}
);
unicode = 211;
},
{
category = Letter;
glyphname = Ocircumflex;
layers = (
{
layerId = "488cb3fc-7928-4381-9d20-07afbe5c7c4e";
name = Fore;
shapes = (
{
closed = 1;
nodes = (
(223,715,o),
(383.5,715,q),
(544,715,o),
(631,612,q),
(718,509,o),
(718,349.5,q),
(718,190,o),
(631,87.5,q),
(544,-15,o),
(383.5,-15,q),
(223,-15,o),
(136.5,87.5,q),
(50,190,o),
(50,349,q),
(50,508,o),
(136.5,611.5,q)
);
},
{
closed = 1;
nodes = (
(325,668,o),
(284,622,q),
(205,536,o),
(205,349,q),
(205,163,o),
(284,78,q),
(326,32,o),
(384,32,q),
(470,32,o),
(516.5,124,q),
(563,216,o),
(563,349.5,q),
(563,483,o),
(516.5,575.5,q),
(470,668,o),
(384,668,q)
);
},
{
closed = 1;
nodes = (
(414,965,o),
(442,927,q),
(550,783,l),
(529,759,l),
(388,854,l),
(380,854,l),
(239,759,l),
(218,783,l),
(326,927,l),
(354,965,o),
(384,965,q)
);
}
);
width = 768;
}
);
unicode = 212;
},
{
category = Letter;
glyphname = Otilde;
layers = (
{
layerId = "488cb3fc-7928-4381-9d20-07afbe5c7c4e";
name = Fore;
shapes = (
{
closed = 1;
nodes = (
(223,715,o),
(383.5,715,q),
(544,715,o),
(631,612,q),
(718,509,o),
(718,349.5,q),
(718,190,o),
(631,87.5,q),
(544,-15,o),
(383.5,-15,q),
(223,-15,o),
(136.5,87.5,q),
(50,190,o),
(50,349,q),
(50,508,o),
(136.5,611.5,q)
);
},
{
closed = 1;
nodes = (
(325,668,o),
(284,622,q),
(205,536,o),
(205,349,q),
(205,163,o),
(284,78,q),
(326,32,o),
(384,32,q),
(470,32,o),
(516.5,124,q),
(563,216,o),
(563,349.5,q),
(563,483,o),
(516.5,575.5,q),
(470,668,o),
(384,668,q)
);
},
{
closed = 1;
nodes = (
(496,824,l),
(496,863,o),
(468,863,q),
(456,863,o),
(445,856,q),
(360,808,l),
(328,789,o),
(300,789,q),
(272,789,o),
(249.5,815,q),
(227,841,o),
(227,875.5,q),
(227,910,o),
(235,942,q),
(271,942,l),
(271,927,l),
(271,888,o),
(299,888,q),
(311,888,o),
(322,895,q),
(407,943,l),
(439,962,o),
(467,962,q),
(495,962,o),
(517.5,936,q),
(540,910,o),
(540,875.5,q),
(540,841,o),
(532,809,q),
(496,809,l)
);
}
);
width = 768;
}
);
unicode = 213;
},
{
category = Letter;
glyphname = Odieresis;
layers = (
{
layerId = "488cb3fc-7928-4381-9d20-07afbe5c7c4e";
name = Fore;
shapes = (
{
closed = 1;
nodes = (
(223,715,o),
(383.5,715,q),
(544,715,o),
(631,612,q),
(718,509,o),
(718,349.5,q),
(718,190,o),
(631,87.5,q),
(544,-15,o),
(383.5,-15,q),
(223,-15,o),
(136.5,87.5,q),
(50,190,o),
(50,349,q),
(50,508,o),
(136.5,611.5,q)
);
},
{
closed = 1;
nodes = (
(325,668,o),
(284,622,q),
(205,536,o),
(205,349,q),
(205,163,o),
(284,78,q),
(326,32,o),
(384,32,q),
(470,32,o),
(516.5,124,q),
(563,216,o),
(563,349.5,q),
(563,483,o),
(516.5,575.5,q),
(470,668,o),
(384,668,q)
);
},
{
closed = 1;
nodes = (
(193,902,o),
(215.5,924,q),
(238,946,o),
(269,946,q),
(300,946,o),
(322.5,924,q),
(345,902,o),
(345,870,q),
(345,838,o),
(322.5,816,q),
(300,794,o),
(269,794,q),
(238,794,o),
(215.5,816,q),
(193,838,o),
(193,870,q)
);
},
{
closed = 1;
nodes = (
(423,902,o),
(445.5,924,q),
(468,946,o),
(499,946,q),
(530,946,o),
(552.5,924,q),
(575,902,o),
(575,870,q),
(575,838,o),
(552.5,816,q),
(530,794,o),
(499,794,q),
(468,794,o),
(445.5,816,q),
(423,838,o),
(423,870,q)
);
}
);
width = 768;
}
);
unicode = 214;
},
{
category = Letter;
glyphname = multiply;
layers = (
{
layerId = "488cb3fc-7928-4381-9d20-07afbe5c7c4e";
name = Fore;
shapes = (
{
closed = 1;
nodes = (
(105,217,l),
(238,350,l),
(105,483,l),
(147,525,l),
(280,392,l),
(413,525,l),
(455,483,l),
(322,350,l),
(455,217,l),
(413,175,l),
(280,308,l),
(147,175,l)
);
}
);
width = 560;
}
);
unicode = 215;
},
{
category = Letter;
glyphname = Oslash;
layers = (
{
layerId = "488cb3fc-7928-4381-9d20-07afbe5c7c4e";
name = Fore;
shapes = (
{
closed = 1;
nodes = (
(718,190,o),
(631,87.5,q),
(544,-15,o),
(383,-15,q),
(351,-15,o),
(311,-8,q),
(292,-80,l),
(243,-80,l),
(265,3,l),
(161,37,o),
(105.5,130.5,q),
(50,224,o),
(50,349,q),
(50,508,o),
(136.5,611.5,q),
(223,715,o),
(383,715,q),
(416,715,o),
(456,708,q),
(475,779,l),
(525,779,l),
(502,697,l),
(607,662,o),
(662.5,568.5,q),
(718,475,o),
(718,349,q)
);
},
{
closed = 1;
nodes = (
(563,538,o),
(482,624,q),
(326,45,l),
(351,32,o),
(384,32,q),
(470,32,o),
(516.5,124,q),
(563,216,o),
(563,349,q)
);
},
{
closed = 1;
nodes = (
(325,668,o),
(284,622,q),
(205,536,o),
(205,348,q),
(205,160,o),
(285,76,q),
(441,655,l),
(413,668,o),
(384,668,q)
);
}
);
width = 768;
}
);
unicode = 216;
},
{
category = Letter;
glyphname = Ugrave;
layers = (
{
layerId = "488cb3fc-7928-4381-9d20-07afbe5c7c4e";
name = Fore;
shapes = (
{
closed = 1;
nodes = (
(485,700,l),
(675,700,l),
(675,660,l),
(615,660,l),
(615,241,l),
(615,169,o),
(593.5,117,q),
(572,65,o),
(534,37,q),
(463,-15,o),
(357,-15,q),
(251,-15,o),
(178,38,q),
(139,65,o),
(117,117,q),
(95,169,o),
(95,242,q),
(95,660,l),
(35,660,l),
(35,700,l),
(305,700,l),
(305,660,l),
(245,660,l),
(245,210,l),
(245,132,o),
(287,90,q),
(329,48,o),
(390.5,48,q),
(452,48,o),
(498.5,90.5,q),
(545,133,o),
(545,210,q),
(545,660,l),
(485,660,l)
);
},
{
closed = 1;
nodes = (
(257,965,o),
(276.5,965,q),
(296,965,o),
(309.5,958,q),
(323,951,o),
(331.5,942.5,q),
(340,934,o),
(357,915,q),
(476,783,l),
(455,759,l),
(307,832,l),
(260,855,o),
(242,872.5,q),
(224,890,o),
(224,913,q),
(224,936,o),
(240.5,950.5,q)
);
}
);
width = 700;
}
);
unicode = 217;
},
{
category = Letter;
glyphname = Uacute;
layers = (
{
layerId = "488cb3fc-7928-4381-9d20-07afbe5c7c4e";
name = Fore;
shapes = (
{
closed = 1;
nodes = (
(485,700,l),
(675,700,l),
(675,660,l),
(615,660,l),
(615,241,l),
(615,169,o),
(593.5,117,q),
(572,65,o),
(534,37,q),
(463,-15,o),
(357,-15,q),
(251,-15,o),
(178,38,q),
(139,65,o),
(117,117,q),
(95,169,o),
(95,242,q),
(95,660,l),
(35,660,l),
(35,700,l),
(305,700,l),
(305,660,l),
(245,660,l),
(245,210,l),
(245,132,o),
(287,90,q),
(329,48,o),
(390.5,48,q),
(452,48,o),
(498.5,90.5,q),
(545,133,o),
(545,210,q),
(545,660,l),
(485,660,l)
);
},
{
closed = 1;
nodes = (
(409,965,o),
(428.5,965,q),
(448,965,o),
(464.5,950.5,q),
(481,936,o),
(481,913,q),
(481,890,o),
(463,872.5,q),
(445,855,o),
(398,832,q),
(250,759,l),
(229,783,l),
(348,915,l),
(365,934,o),
(373.5,942.5,q),
(382,951,o),
(395.5,958,q)
);
}
);
width = 700;
}
);
unicode = 218;
},
{
category = Letter;
glyphname = Ucircumflex;
layers = (
{
layerId = "488cb3fc-7928-4381-9d20-07afbe5c7c4e";
name = Fore;
shapes = (
{
closed = 1;
nodes = (
(485,700,l),
(675,700,l),
(675,660,l),
(615,660,l),
(615,241,l),
(615,169,o),
(593.5,117,q),
(572,65,o),
(534,37,q),
(463,-15,o),
(357,-15,q),
(251,-15,o),
(178,38,q),
(139,65,o),
(117,117,q),
(95,169,o),
(95,242,q),
(95,660,l),
(35,660,l),
(35,700,l),
(305,700,l),
(305,660,l),
(245,660,l),
(245,210,l),
(245,132,o),
(287,90,q),
(329,48,o),
(390.5,48,q),
(452,48,o),
(498.5,90.5,q),
(545,133,o),
(545,210,q),
(545,660,l),
(485,660,l)
);
},
{
closed = 1;
nodes = (
(400,965,o),
(428,927,q),
(536,783,l),
(515,759,l),
(374,854,l),
(366,854,l),
(225,759,l),
(204,783,l),
(312,927,l),
(340,965,o),
(370,965,q)
);
}
);
width = 700;
}
);
unicode = 219;
},
{
category = Letter;
glyphname = Udieresis;
layers = (
{
layerId = "488cb3fc-7928-4381-9d20-07afbe5c7c4e";
name = Fore;
shapes = (
{
closed = 1;
nodes = (
(485,700,l),
(675,700,l),
(675,660,l),
(615,660,l),
(615,241,l),
(615,169,o),
(593.5,117,q),
(572,65,o),
(534,37,q),
(463,-15,o),
(357,-15,q),
(251,-15,o),
(178,38,q),
(139,65,o),
(117,117,q),
(95,169,o),
(95,242,q),
(95,660,l),
(35,660,l),
(35,700,l),
(305,700,l),
(305,660,l),
(245,660,l),
(245,210,l),
(245,132,o),
(287,90,q),
(329,48,o),
(390.5,48,q),
(452,48,o),
(498.5,90.5,q),
(545,133,o),
(545,210,q),
(545,660,l),
(485,660,l)
);
},
{
closed = 1;
nodes = (
(164,902,o),
(186,924,q),
(208,946,o),
(240,946,q),
(272,946,o),
(294,924,q),
(316,902,o),
(316,870,q),
(316,838,o),
(294,816,q),
(272,794,o),
(240,794,q),
(208,794,o),
(186,816,q),
(164,838,o),
(164,870,q)
);
},
{
closed = 1;
nodes = (
(394,902,o),
(416,924,q),
(438,946,o),
(470,946,q),
(502,946,o),
(524,924,q),
(546,902,o),
(546,870,q),
(546,838,o),
(524,816,q),
(502,794,o),
(470,794,q),
(438,794,o),
(416,816,q),
(394,838,o),
(394,870,q)
);
}
);
width = 700;
}
);
unicode = 220;
},
{
category = Letter;
glyphname = Yacute;
kernLeft = Y.2;
kernRight = Y;
layers = (
{
layerId = "488cb3fc-7928-4381-9d20-07afbe5c7c4e";
name = Fore;
shapes = (
{
closed = 1;
nodes = (
(135,40,l),
(235,40,l),
(235,250,l),
(53,660,l),
(5,660,l),
(5,700,l),
(203,700,l),
(361,308,l),
(451,700,l),
(602,700,l),
(602,660,l),
(555,660,l),
(385,250,l),
(385,40,l),
(485,40,l),
(485,0,l),
(135,0,l)
);
},
{
closed = 1;
nodes = (
(391,965,o),
(410.5,965,q),
(430,965,o),
(446.5,950.5,q),
(463,936,o),
(463,913,q),
(463,890,o),
(445,872.5,q),
(427,855,o),
(380,832,q),
(232,759,l),
(211,783,l),
(330,915,l),
(347,934,o),
(355.5,942.5,q),
(364,951,o),
(377.5,958,q)
);
}
);
width = 607;
}
);
unicode = 221;
},
{
category = Letter;
glyphname = Thorn;
layers = (
{
layerId = "488cb3fc-7928-4381-9d20-07afbe5c7c4e";
name = Fore;
shapes = (
{
closed = 1;
nodes = (
(70,700,l),
(340,700,l),
(340,660,l),
(280,660,l),
(280,570,l),
(290,570,l),
(536,570,o),
(598,457,q),
(623,413,o),
(623,350,q),
(623,287,o),
(598.5,243,q),
(574,199,o),
(527,175,q),
(439,130,o),
(290,130,q),
(280,130,l),
(280,40,l),
(340,40,l),
(340,0,l),
(70,0,l),
(70,40,l),
(130,40,l),
(130,660,l),
(70,660,l)
);
},
{
closed = 1;
nodes = (
(280,530,l),
(280,170,l),
(290,170,l),
(369,170,o),
(421,217.5,q),
(473,265,o),
(473,350,q),
(473,435,o),
(421,482.5,q),
(369,530,o),
(290,530,q)
);
}
);
width = 673;
}
);
unicode = 222;
},
{
category = Letter;
glyphname = germandbls;
layers = (
{
layerId = "488cb3fc-7928-4381-9d20-07afbe5c7c4e";
name = Fore;
shapes = (
{
closed = 1;
nodes = (
(552,561,o),
(530,529.5,q),
(508,498,o),
(481,479,q),
(410,429,o),
(410,390,q),
(410,343,o),
(491,302,q),
(525,284,o),
(559,264,q),
(593,244,o),
(616.5,212.5,q),
(640,181,o),
(640,140,q),
(640,65,o),
(592,25,q),
(544,-15,o),
(451,-15,q),
(358,-15,o),
(297,30,q),
(315,61,l),
(357,37,o),
(402,37,q),
(447,37,o),
(468.5,60,q),
(490,83,o),
(490,118,q),
(490,153,o),
(474.5,181,q),
(459,209,o),
(437,230.5,q),
(415,252,o),
(392,274,q),
(339,328,o),
(339,389,q),
(339,429,o),
(379,492.5,q),
(419,556,o),
(419,591.5,q),
(419,627,o),
(402,646,q),
(385,665,o),
(351,665,q),
(317,665,o),
(294,624.5,q),
(271,584,o),
(271,499,q),
(271,0,l),
(121,0,l),
(121,445,l),
(39,445,l),
(39,486,l),
(121,486,l),
(121,489,l),
(121,597,o),
(183.5,656,q),
(246,715,o),
(353,715,q),
(460,715,o),
(506,682,q),
(552,649,o),
(552,597,q)
);
}
);
width = 655;
}
);
unicode = 223;
},
{
category = Letter;
glyphname = agrave;
kernLeft = a;
layers = (
{
layerId = "488cb3fc-7928-4381-9d20-07afbe5c7c4e";
name = Fore;
shapes = (
{
closed = 1;
nodes = (
(597,111,l),
(597,84,o),
(610,68.5,q),
(623,53,o),
(650,53,q),
(677,53,o),
(712,82,q),
(730,58,l),
(650,-15,o),
(570,-15,q),
(475,-15,o),
(453,74,q),
(401,-15,o),
(300,-15,q),
(185,-15,o),
(125,59.5,q),
(65,134,o),
(65,249.5,q),
(65,365,o),
(129.5,440,q),
(194,515,o),
(310,515,q),
(399,515,o),
(447,444,q),
(447,500,l),
(597,500,l)
);
},
{
closed = 1;
nodes = (
(220,154,o),
(248,98,q),
(276,42,o),
(333.5,42,q),
(391,42,o),
(421.5,98.5,q),
(452,155,o),
(452,250,q),
(452,345,o),
(421.5,401.5,q),
(391,458,o),
(333.5,458,q),
(276,458,o),
(248,402,q),
(220,346,o),
(220,250,q)
);
},
{
closed = 1;
nodes = (
(240,765,o),
(259.5,765,q),
(279,765,o),
(292.5,758,q),
(306,751,o),
(314.5,742.5,q),
(323,734,o),
(340,715,q),
(459,583,l),
(438,559,l),
(290,632,l),
(243,655,o),
(225,672.5,q),
(207,690,o),
(207,713,q),
(207,736,o),
(223.5,750.5,q)
);
}
);
width = 710;
}
);
unicode = 224;
},
{
category = Letter;
glyphname = aacute;
kernLeft = a;
layers = (
{
layerId = "488cb3fc-7928-4381-9d20-07afbe5c7c4e";
name = Fore;
shapes = (
{
closed = 1;
nodes = (
(582,111,l),
(582,84,o),
(595,68.5,q),
(608,53,o),
(635,53,q),
(662,53,o),
(697,82,q),
(715,58,l),
(635,-15,o),
(555,-15,q),
(460,-15,o),
(438,74,q),
(386,-15,o),
(285,-15,q),
(170,-15,o),
(110,59.5,q),
(50,134,o),
(50,249.5,q),
(50,365,o),
(114.5,440,q),
(179,515,o),
(295,515,q),
(384,515,o),
(432,444,q),
(432,500,l),
(582,500,l)
);
},
{
closed = 1;
nodes = (
(205,154,o),
(233,98,q),
(261,42,o),
(318.5,42,q),
(376,42,o),
(406.5,98.5,q),
(437,155,o),
(437,250,q),
(437,345,o),
(406.5,401.5,q),
(376,458,o),
(318.5,458,q),
(261,458,o),
(233,402,q),
(205,346,o),
(205,250,q)
);
},
{
closed = 1;
nodes = (
(439,765,o),
(458.5,765,q),
(478,765,o),
(494.5,750.5,q),
(511,736,o),
(511,713,q),
(511,690,o),
(493,672.5,q),
(475,655,o),
(428,632,q),
(280,559,l),
(259,583,l),
(378,715,l),
(395,734,o),
(403.5,742.5,q),
(412,751,o),
(425.5,758,q)
);
}
);
width = 695;
}
);
unicode = 225;
},
{
category = Letter;
glyphname = acircumflex;
kernLeft = a;
layers = (
{
layerId = "488cb3fc-7928-4381-9d20-07afbe5c7c4e";
name = Fore;
shapes = (
{
closed = 1;
nodes = (
(597,111,l),
(597,84,o),
(610,68.5,q),
(623,53,o),
(650,53,q),
(677,53,o),
(712,82,q),
(730,58,l),
(650,-15,o),
(570,-15,q),
(475,-15,o),
(453,74,q),
(401,-15,o),
(300,-15,q),
(185,-15,o),
(125,59.5,q),
(65,134,o),
(65,249.5,q),
(65,365,o),
(129.5,440,q),
(194,515,o),
(310,515,q),
(399,515,o),
(447,444,q),
(447,500,l),
(597,500,l)
);
},
{
closed = 1;
nodes = (
(220,154,o),
(248,98,q),
(276,42,o),
(333.5,42,q),
(391,42,o),
(421.5,98.5,q),
(452,155,o),
(452,250,q),
(452,345,o),
(421.5,401.5,q),
(391,458,o),
(333.5,458,q),
(276,458,o),
(248,402,q),
(220,346,o),
(220,250,q)
);
},
{
closed = 1;
nodes = (
(365,765,o),
(393,727,q),
(501,583,l),
(480,559,l),
(339,654,l),
(331,654,l),
(190,559,l),
(169,583,l),
(277,727,l),
(305,765,o),
(335,765,q)
);
}
);
width = 710;
}
);
unicode = 226;
},
{
category = Letter;
glyphname = atilde;
kernLeft = a;
layers = (
{
layerId = "488cb3fc-7928-4381-9d20-07afbe5c7c4e";
name = Fore;
shapes = (
{
closed = 1;
nodes = (
(582,111,l),
(582,84,o),
(595,68.5,q),
(608,53,o),
(635,53,q),
(662,53,o),
(697,82,q),
(715,58,l),
(635,-15,o),
(555,-15,q),
(460,-15,o),
(438,74,q),
(386,-15,o),
(285,-15,q),
(170,-15,o),
(110,59.5,q),
(50,134,o),
(50,249.5,q),
(50,365,o),
(114.5,440,q),
(179,515,o),
(295,515,q),
(384,515,o),
(432,444,q),
(432,500,l),
(582,500,l)
);
},
{
closed = 1;
nodes = (
(205,154,o),
(233,98,q),
(261,42,o),
(318.5,42,q),
(376,42,o),
(406.5,98.5,q),
(437,155,o),
(437,250,q),
(437,345,o),
(406.5,401.5,q),
(376,458,o),
(318.5,458,q),
(261,458,o),
(233,402,q),
(205,346,o),
(205,250,q)
);
},
{
closed = 1;
nodes = (
(460,624,l),
(460,663,o),
(432,663,q),
(420,663,o),
(409,656,q),
(324,608,l),
(292,589,o),
(264,589,q),
(236,589,o),
(213.5,615,q),
(191,641,o),
(191,675.5,q),
(191,710,o),
(199,742,q),
(235,742,l),
(235,727,l),
(235,688,o),
(263,688,q),
(275,688,o),
(286,695,q),
(371,743,l),
(403,762,o),
(431,762,q),
(459,762,o),
(481.5,736,q),
(504,710,o),
(504,675.5,q),
(504,641,o),
(496,609,q),
(460,609,l)
);
}
);
width = 695;
}
);
unicode = 227;
},
{
category = Letter;
glyphname = adieresis;
kernLeft = a;
layers = (
{
layerId = "488cb3fc-7928-4381-9d20-07afbe5c7c4e";
name = Fore;
shapes = (
{
closed = 1;
nodes = (
(582,111,l),
(582,84,o),
(595,68.5,q),
(608,53,o),
(635,53,q),
(662,53,o),
(697,82,q),
(715,58,l),
(635,-15,o),
(555,-15,q),
(460,-15,o),
(438,74,q),
(386,-15,o),
(285,-15,q),
(170,-15,o),
(110,59.5,q),
(50,134,o),
(50,249.5,q),
(50,365,o),
(114.5,440,q),
(179,515,o),
(295,515,q),
(384,515,o),
(432,444,q),
(432,500,l),
(582,500,l)
);
},
{
closed = 1;
nodes = (
(205,154,o),
(233,98,q),
(261,42,o),
(318.5,42,q),
(376,42,o),
(406.5,98.5,q),
(437,155,o),
(437,250,q),
(437,345,o),
(406.5,401.5,q),
(376,458,o),
(318.5,458,q),
(261,458,o),
(233,402,q),
(205,346,o),
(205,250,q)
);
},
{
closed = 1;
nodes = (
(156,702,o),
(178,724,q),
(200,746,o),
(232,746,q),
(264,746,o),
(286,724,q),
(308,702,o),
(308,670,q),
(308,638,o),
(286,616,q),
(264,594,o),
(232,594,q),
(200,594,o),
(178,616,q),
(156,638,o),
(156,670,q)
);
},
{
closed = 1;
nodes = (
(386,702,o),
(408,724,q),
(430,746,o),
(462,746,q),
(494,746,o),
(516,724,q),
(538,702,o),
(538,670,q),
(538,638,o),
(516,616,q),
(494,594,o),
(462,594,q),
(430,594,o),
(408,616,q),
(386,638,o),
(386,670,q)
);
}
);
width = 695;
}
);
unicode = 228;
},
{
category = Letter;
glyphname = aring;
kernLeft = a;
layers = (
{
layerId = "488cb3fc-7928-4381-9d20-07afbe5c7c4e";
name = Fore;
shapes = (
{
closed = 1;
nodes = (
(597,111,l),
(597,84,o),
(610,68.5,q),
(623,53,o),
(650,53,q),
(677,53,o),
(712,82,q),
(730,58,l),
(650,-15,o),
(570,-15,q),
(475,-15,o),
(453,74,q),
(401,-15,o),
(300,-15,q),
(185,-15,o),
(125,59.5,q),
(65,134,o),
(65,249.5,q),
(65,365,o),
(129.5,440,q),
(194,515,o),
(310,515,q),
(399,515,o),
(447,444,q),
(447,500,l),
(597,500,l)
);
},
{
closed = 1;
nodes = (
(220,154,o),
(248,98,q),
(276,42,o),
(333.5,42,q),
(391,42,o),
(421.5,98.5,q),
(452,155,o),
(452,250,q),
(452,345,o),
(421.5,401.5,q),
(391,458,o),
(333.5,458,q),
(276,458,o),
(248,402,q),
(220,346,o),
(220,250,q)
);
},
{
closed = 1;
nodes = (
(216,617,o),
(216,669.5,q),
(216,722,o),
(253,754.5,q),
(290,787,o),
(345,787,q),
(400,787,o),
(437,754.5,q),
(474,722,o),
(474,669.5,q),
(474,617,o),
(437,585,q),
(400,553,o),
(345,553,q),
(290,553,o),
(253,585,q)
);
},
{
closed = 1;
nodes = (
(300,586,o),
(344.5,586,q),
(389,586,o),
(389,669,q),
(389,752,o),
(344.5,752,q),
(300,752,o),
(300,669,q)
);
}
);
width = 710;
}
);
unicode = 229;
},
{
category = Letter;
glyphname = ae;
kernLeft = ae;
layers = (
{
layerId = "488cb3fc-7928-4381-9d20-07afbe5c7c4e";
name = Fore;
shapes = (
{
closed = 1;
nodes = (
(588,180,o),
(531,192,q),
(540,126,o),
(572.5,86.5,q),
(605,47,o),
(658,47,q),
(754,47,o),
(821,122,q),
(849,104,l),
(815,50,o),
(759,17.5,q),
(703,-15,o),
(630,-15,q),
(557,-15,o),
(501,21,q),
(445,57,o),
(413,117,q),
(394,59,o),
(347.5,22,q),
(301,-15,o),
(224,-15,q),
(147,-15,o),
(101,29,q),
(55,73,o),
(55,144.5,q),
(55,216,o),
(109,260.5,q),
(163,305,o),
(242,305,q),
(321,305,o),
(390,274,q),
(390,406,o),
(340,437,q),
(318,451,o),
(284,451,q),
(213,451,o),
(125,398,q),
(105,430,l),
(165,478,o),
(216.5,496.5,q),
(268,515,o),
(338,515,q),
(436,515,o),
(487,466,q),
(555,515,o),
(650,515,q),
(745,515,o),
(795,471,q),
(845,427,o),
(845,360,q),
(845,293,o),
(789.5,236.5,q),
(734,180,o),
(643,180,q)
);
},
{
closed = 1;
nodes = (
(527,226,l),
(560,219,o),
(581,219,q),
(648,219,o),
(682.5,263.5,q),
(717,308,o),
(717,357.5,q),
(717,407,o),
(697.5,434,q),
(678,461,o),
(636,461,q),
(594,461,o),
(560.5,406,q),
(527,351,o),
(527,250,q)
);
},
{
closed = 1;
nodes = (
(390,52,o),
(390,239,q),
(338,258,o),
(292.5,258,q),
(247,258,o),
(223.5,228,q),
(200,198,o),
(200,152,q),
(200,106,o),
(221,79,q),
(242,52,o),
(278,52,q)
);
}
);
width = 904;
}
);
unicode = 230;
},
{
category = Letter;
glyphname = ccedilla;
kernLeft = a;
layers = (
{
layerId = "488cb3fc-7928-4381-9d20-07afbe5c7c4e";
name = Fore;
shapes = (
{
closed = 1;
nodes = (
(317,-15,o),
(311,-14,q),
(280,-77,l),
(297,-70,o),
(321,-70,q),
(368,-70,o),
(397,-97,q),
(426,-124,o),
(426,-165,q),
(426,-206,o),
(391.5,-235.5,q),
(357,-265,o),
(308,-265,q),
(259,-265,o),
(227.5,-247,q),
(196,-229,o),
(196,-196,q),
(196,-179,o),
(208,-167,q),
(220,-155,o),
(236.5,-155,q),
(253,-155,o),
(265.5,-167.5,q),
(278,-180,o),
(278,-199,q),
(278,-218,o),
(260,-231,q),
(268,-233,o),
(275,-233,q),
(304,-233,o),
(321.5,-215,q),
(339,-197,o),
(339,-172.5,q),
(339,-148,o),
(320,-129,q),
(301,-110,o),
(266,-110,q),
(244,-93,l),
(282,-11,l),
(183,4,o),
(124,77,q),
(65,150,o),
(65,256,q),
(65,362,o),
(138.5,438.5,q),
(212,515,o),
(330,515,q),
(396,515,o),
(459,477,q),
(522,439,o),
(522,374,q),
(522,341,o),
(498.5,317.5,q),
(475,294,o),
(442,294,q),
(409,294,o),
(385.5,317.5,q),
(362,341,o),
(362,371,q),
(362,401,o),
(378,422,q),
(394,443,o),
(420,451,q),
(392,463,o),
(356,463,q),
(289,463,o),
(254.5,403.5,q),
(220,344,o),
(220,252.5,q),
(220,161,o),
(254.5,104,q),
(289,47,o),
(356,47,q),
(446,47,o),
(509,122,q),
(537,104,l),
(504,50,o),
(450.5,17.5,q),
(397,-15,o),
(331,-15,q)
);
}
);
width = 562;
}
);
unicode = 231;
},
{
category = Letter;
glyphname = egrave;
kernLeft = e;
layers = (
{
layerId = "488cb3fc-7928-4381-9d20-07afbe5c7c4e";
name = Fore;
shapes = (
{
closed = 1;
nodes = (
(410,324,o),
(410,368.5,q),
(410,413,o),
(390.5,437,q),
(371,461,o),
(331.5,461,q),
(292,461,o),
(256,405,q),
(220,349,o),
(220,255,q),
(220,161,o),
(254,104,q),
(288,47,o),
(351,47,q),
(447,47,o),
(514,122,q),
(542,104,l),
(508,50,o),
(452,17.5,q),
(396,-15,o),
(326,-15,q),
(207,-15,o),
(136,63.5,q),
(65,142,o),
(65,253,q),
(65,364,o),
(140.5,439.5,q),
(216,515,o),
(350,515,q),
(438,515,o),
(488,474,q),
(538,433,o),
(538,370,q),
(538,307,o),
(482.5,253.5,q),
(427,200,o),
(336,200,q),
(305,200,o),
(276,207,q),
(274,231,l),
(339,237,o),
(374.5,280.5,q)
);
},
{
closed = 1;
nodes = (
(225,765,o),
(244.5,765,q),
(264,765,o),
(277.5,758,q),
(291,751,o),
(299.5,742.5,q),
(308,734,o),
(325,715,q),
(444,583,l),
(423,559,l),
(275,632,l),
(228,655,o),
(210,672.5,q),
(192,690,o),
(192,713,q),
(192,736,o),
(208.5,750.5,q)
);
}
);
width = 597;
}
);
unicode = 232;
},
{
category = Letter;
glyphname = eacute;
kernLeft = e;
layers = (
{
layerId = "488cb3fc-7928-4381-9d20-07afbe5c7c4e";
name = Fore;
shapes = (
{
closed = 1;
nodes = (
(410,324,o),
(410,368.5,q),
(410,413,o),
(390.5,437,q),
(371,461,o),
(331.5,461,q),
(292,461,o),
(256,405,q),
(220,349,o),
(220,255,q),
(220,161,o),
(254,104,q),
(288,47,o),
(351,47,q),
(447,47,o),
(514,122,q),
(542,104,l),
(508,50,o),
(452,17.5,q),
(396,-15,o),
(326,-15,q),
(207,-15,o),
(136,63.5,q),
(65,142,o),
(65,253,q),
(65,364,o),
(140.5,439.5,q),
(216,515,o),
(350,515,q),
(438,515,o),
(488,474,q),
(538,433,o),
(538,370,q),
(538,307,o),
(482.5,253.5,q),
(427,200,o),
(336,200,q),
(305,200,o),
(276,207,q),
(274,231,l),
(339,237,o),
(374.5,280.5,q)
);
},
{
closed = 1;
nodes = (
(390,765,o),
(409.5,765,q),
(429,765,o),
(445.5,750.5,q),
(462,736,o),
(462,713,q),
(462,690,o),
(444,672.5,q),
(426,655,o),
(379,632,q),
(231,559,l),
(210,583,l),
(329,715,l),
(346,734,o),
(354.5,742.5,q),
(363,751,o),
(376.5,758,q)
);
}
);
width = 597;
}
);
unicode = 233;
},
{
category = Letter;
glyphname = ecircumflex;
kernLeft = e;
layers = (
{
layerId = "488cb3fc-7928-4381-9d20-07afbe5c7c4e";
name = Fore;
shapes = (
{
closed = 1;
nodes = (
(410,324,o),
(410,368.5,q),
(410,413,o),
(390.5,437,q),
(371,461,o),
(331.5,461,q),
(292,461,o),
(256,405,q),
(220,349,o),
(220,255,q),
(220,161,o),
(254,104,q),
(288,47,o),
(351,47,q),
(447,47,o),
(514,122,q),
(542,104,l),
(508,50,o),
(452,17.5,q),
(396,-15,o),
(326,-15,q),
(207,-15,o),
(136,63.5,q),
(65,142,o),
(65,253,q),
(65,364,o),
(140.5,439.5,q),
(216,515,o),
(350,515,q),
(438,515,o),
(488,474,q),
(538,433,o),
(538,370,q),
(538,307,o),
(482.5,253.5,q),
(427,200,o),
(336,200,q),
(305,200,o),
(276,207,q),
(274,231,l),
(339,237,o),
(374.5,280.5,q)
);
},
{
closed = 1;
nodes = (
(338,765,o),
(366,727,q),
(474,583,l),
(453,559,l),
(312,654,l),
(304,654,l),
(163,559,l),
(142,583,l),
(250,727,l),
(278,765,o),
(308,765,q)
);
}
);
width = 597;
}
);
unicode = 234;
},
{
category = Letter;
glyphname = edieresis;
kernLeft = e;
layers = (
{
layerId = "488cb3fc-7928-4381-9d20-07afbe5c7c4e";
name = Fore;
shapes = (
{
closed = 1;
nodes = (
(410,324,o),
(410,368.5,q),
(410,413,o),
(390.5,437,q),
(371,461,o),
(331.5,461,q),
(292,461,o),
(256,405,q),
(220,349,o),
(220,255,q),
(220,161,o),
(254,104,q),
(288,47,o),
(351,47,q),
(447,47,o),
(514,122,q),
(542,104,l),
(508,50,o),
(452,17.5,q),
(396,-15,o),
(326,-15,q),
(207,-15,o),
(136,63.5,q),
(65,142,o),
(65,253,q),
(65,364,o),
(140.5,439.5,q),
(216,515,o),
(350,515,q),
(438,515,o),
(488,474,q),
(538,433,o),
(538,370,q),
(538,307,o),
(482.5,253.5,q),
(427,200,o),
(336,200,q),
(305,200,o),
(276,207,q),
(274,231,l),
(339,237,o),
(374.5,280.5,q)
);
},
{
closed = 1;
nodes = (
(107,702,o),
(129.5,724,q),
(152,746,o),
(183,746,q),
(214,746,o),
(236.5,724,q),
(259,702,o),
(259,670,q),
(259,638,o),
(236.5,616,q),
(214,594,o),
(183,594,q),
(152,594,o),
(129.5,616,q),
(107,638,o),
(107,670,q)
);
},
{
closed = 1;
nodes = (
(337,702,o),
(359.5,724,q),
(382,746,o),
(413,746,q),
(444,746,o),
(466.5,724,q),
(489,702,o),
(489,670,q),
(489,638,o),
(466.5,616,q),
(444,594,o),
(413,594,q),
(382,594,o),
(359.5,616,q),
(337,638,o),
(337,670,q)
);
}
);
width = 597;
}
);
unicode = 235;
},
{
category = Letter;
glyphname = igrave;
layers = (
{
layerId = "488cb3fc-7928-4381-9d20-07afbe5c7c4e";
name = Fore;
shapes = (
{
closed = 1;
nodes = (
(286,515,o),
(286,434,q),
(286,111,l),
(286,84,o),
(299,68.5,q),
(312,53,o),
(339,53,q),
(366,53,o),
(401,82,q),
(419,58,l),
(339,-15,o),
(259,-15,q),
(136,-15,o),
(136,132,q),
(136,467,l),
(81,453,o),
(52,418,q),
(25,449,l),
(54,479,o),
(98.5,497,q),
(143,515,o),
(192,515,q)
);
},
{
closed = 1;
nodes = (
(106,765,o),
(125.5,765,q),
(145,765,o),
(158.5,758,q),
(172,751,o),
(180.5,742.5,q),
(189,734,o),
(206,715,q),
(325,583,l),
(304,559,l),
(156,632,l),
(109,655,o),
(91,672.5,q),
(73,690,o),
(73,713,q),
(73,736,o),
(89.5,750.5,q)
);
}
);
width = 399;
}
);
unicode = 236;
},
{
category = Letter;
glyphname = iacute;
layers = (
{
layerId = "488cb3fc-7928-4381-9d20-07afbe5c7c4e";
name = Fore;
shapes = (
{
closed = 1;
nodes = (
(286,515,o),
(286,434,q),
(286,111,l),
(286,84,o),
(299,68.5,q),
(312,53,o),
(339,53,q),
(366,53,o),
(401,82,q),
(419,58,l),
(339,-15,o),
(259,-15,q),
(136,-15,o),
(136,132,q),
(136,467,l),
(81,453,o),
(52,418,q),
(25,449,l),
(54,479,o),
(98.5,497,q),
(143,515,o),
(192,515,q)
);
},
{
closed = 1;
nodes = (
(254,765,o),
(273.5,765,q),
(293,765,o),
(309.5,750.5,q),
(326,736,o),
(326,713,q),
(326,690,o),
(308,672.5,q),
(290,655,o),
(243,632,q),
(95,559,l),
(74,583,l),
(193,715,l),
(210,734,o),
(218.5,742.5,q),
(227,751,o),
(240.5,758,q)
);
}
);
width = 399;
}
);
unicode = 237;
},
{
category = Letter;
glyphname = icircumflex;
layers = (
{
layerId = "488cb3fc-7928-4381-9d20-07afbe5c7c4e";
name = Fore;
shapes = (
{
closed = 1;
nodes = (
(286,515,o),
(286,434,q),
(286,111,l),
(286,84,o),
(299,68.5,q),
(312,53,o),
(339,53,q),
(366,53,o),
(401,82,q),
(419,58,l),
(339,-15,o),
(259,-15,q),
(136,-15,o),
(136,132,q),
(136,467,l),
(81,453,o),
(52,418,q),
(25,449,l),
(54,479,o),
(98.5,497,q),
(143,515,o),
(192,515,q)
);
},
{
closed = 1;
nodes = (
(229,765,o),
(257,727,q),
(365,583,l),
(344,559,l),
(203,654,l),
(195,654,l),
(54,559,l),
(33,583,l),
(141,727,l),
(169,765,o),
(199,765,q)
);
}
);
width = 399;
}
);
unicode = 238;
},
{
category = Letter;
glyphname = idieresis;
layers = (
{
layerId = "488cb3fc-7928-4381-9d20-07afbe5c7c4e";
name = Fore;
shapes = (
{
closed = 1;
nodes = (
(286,515,o),
(286,434,q),
(286,111,l),
(286,84,o),
(299,68.5,q),
(312,53,o),
(339,53,q),
(366,53,o),
(401,82,q),
(419,58,l),
(339,-15,o),
(259,-15,q),
(136,-15,o),
(136,132,q),
(136,467,l),
(81,453,o),
(52,418,q),
(25,449,l),
(54,479,o),
(98.5,497,q),
(143,515,o),
(192,515,q)
);
},
{
closed = 1;
nodes = (
(9,702,o),
(31.5,724,q),
(54,746,o),
(85,746,q),
(116,746,o),
(138.5,724,q),
(161,702,o),
(161,670,q),
(161,638,o),
(138.5,616,q),
(116,594,o),
(85,594,q),
(54,594,o),
(31.5,616,q),
(9,638,o),
(9,670,q)
);
},
{
closed = 1;
nodes = (
(239,702,o),
(261.5,724,q),
(284,746,o),
(315,746,q),
(346,746,o),
(368.5,724,q),
(391,702,o),
(391,670,q),
(391,638,o),
(368.5,616,q),
(346,594,o),
(315,594,q),
(284,594,o),
(261.5,616,q),
(239,638,o),
(239,670,q)
);
}
);
width = 399;
}
);
unicode = 239;
},
{
category = Letter;
glyphname = eth;
kernLeft = a;
layers = (
{
layerId = "488cb3fc-7928-4381-9d20-07afbe5c7c4e";
name = Fore;
shapes = (
{
closed = 1;
nodes = (
(194,705,o),
(133,647,q),
(108,721,l),
(186,765,o),
(271,765,q),
(380,765,o),
(459,689,q),
(579,750,l),
(598,712,l),
(488,656,l),
(590,524,o),
(590,293,q),
(590,146,o),
(520,65.5,q),
(450,-15,o),
(330.5,-15,q),
(211,-15,o),
(140.5,57,q),
(70,129,o),
(70,240,q),
(70,351,o),
(137.5,418,q),
(205,485,o),
(310,485,q),
(396,485,o),
(438,427,q),
(448,431,l),
(432,543,o),
(398,610,q),
(274,547,l),
(255,585,l),
(375,646,l),
(331,705,o),
(270,705,q)
);
},
{
closed = 1;
nodes = (
(215,324,o),
(215,233.5,q),
(215,143,o),
(243,85,q),
(271,27,o),
(328.5,27,q),
(386,27,o),
(416.5,85,q),
(447,143,o),
(447,233.5,q),
(447,324,o),
(416.5,381,q),
(386,438,o),
(328.5,438,q),
(271,438,o),
(243,381,q)
);
}
);
width = 673;
}
);
unicode = 240;
},
{
category = Letter;
glyphname = ntilde;
layers = (
{
layerId = "488cb3fc-7928-4381-9d20-07afbe5c7c4e";
name = Fore;
shapes = (
{
closed = 1;
nodes = (
(206,500,o),
(272,450,q),
(310,486,o),
(350,500.5,q),
(390,515,o),
(452.5,515,q),
(515,515,o),
(554.5,475.5,q),
(594,436,o),
(594,368,q),
(594,111,l),
(594,84,o),
(607,68.5,q),
(620,53,o),
(647,53,q),
(674,53,o),
(709,82,q),
(727,58,l),
(647,-15,o),
(567,-15,q),
(444,-15,o),
(444,132,q),
(444,389,l),
(444,420,o),
(425,437,q),
(406,454,o),
(372.5,454,q),
(339,454,o),
(306.5,427,q),
(274,400,o),
(274,357,q),
(274,0,l),
(124,0,l),
(124,460,l),
(79,460,o),
(44,445,q),
(30,482,l),
(73,500,o),
(124,500,q)
);
},
{
closed = 1;
nodes = (
(466,624,l),
(466,663,o),
(438,663,q),
(426,663,o),
(415,656,q),
(330,608,l),
(298,589,o),
(270,589,q),
(242,589,o),
(219.5,615,q),
(197,641,o),
(197,675.5,q),
(197,710,o),
(205,742,q),
(241,742,l),
(241,727,l),
(241,688,o),
(269,688,q),
(281,688,o),
(292,695,q),
(377,743,l),
(409,762,o),
(437,762,q),
(465,762,o),
(487.5,736,q),
(510,710,o),
(510,675.5,q),
(510,641,o),
(502,609,q),
(466,609,l)
);
}
);
width = 707;
}
);
unicode = 241;
},
{
category = Letter;
glyphname = ograve;
kernLeft = o;
layers = (
{
layerId = "488cb3fc-7928-4381-9d20-07afbe5c7c4e";
name = Fore;
shapes = (
{
closed = 1;
nodes = (
(65,362,o),
(138.5,438.5,q),
(212,515,o),
(330,515,q),
(448,515,o),
(521.5,438.5,q),
(595,362,o),
(595,250,q),
(595,138,o),
(521.5,61.5,q),
(448,-15,o),
(330,-15,q),
(212,-15,o),
(138.5,61.5,q),
(65,138,o),
(65,250,q)
);
},
{
closed = 1;
nodes = (
(220,152,o),
(248,89.5,q),
(276,27,o),
(331,27,q),
(386,27,o),
(414,89.5,q),
(442,152,o),
(442,250,q),
(442,348,o),
(414,410.5,q),
(386,473,o),
(331,473,q),
(276,473,o),
(248,410.5,q),
(220,348,o),
(220,250,q)
);
},
{
closed = 1;
nodes = (
(237,765,o),
(256.5,765,q),
(276,765,o),
(289.5,758,q),
(303,751,o),
(311.5,742.5,q),
(320,734,o),
(337,715,q),
(456,583,l),
(435,559,l),
(287,632,l),
(240,655,o),
(222,672.5,q),
(204,690,o),
(204,713,q),
(204,736,o),
(220.5,750.5,q)
);
}
);
width = 660;
}
);
unicode = 242;
},
{
category = Letter;
glyphname = oacute;
kernLeft = o;
layers = (
{
layerId = "488cb3fc-7928-4381-9d20-07afbe5c7c4e";
name = Fore;
shapes = (
{
closed = 1;
nodes = (
(65,362,o),
(138.5,438.5,q),
(212,515,o),
(330,515,q),
(448,515,o),
(521.5,438.5,q),
(595,362,o),
(595,250,q),
(595,138,o),
(521.5,61.5,q),
(448,-15,o),
(330,-15,q),
(212,-15,o),
(138.5,61.5,q),
(65,138,o),
(65,250,q)
);
},
{
closed = 1;
nodes = (
(220,152,o),
(248,89.5,q),
(276,27,o),
(331,27,q),
(386,27,o),
(414,89.5,q),
(442,152,o),
(442,250,q),
(442,348,o),
(414,410.5,q),
(386,473,o),
(331,473,q),
(276,473,o),
(248,410.5,q),
(220,348,o),
(220,250,q)
);
},
{
closed = 1;
nodes = (
(422,765,o),
(441.5,765,q),
(461,765,o),
(477.5,750.5,q),
(494,736,o),
(494,713,q),
(494,690,o),
(476,672.5,q),
(458,655,o),
(411,632,q),
(263,559,l),
(242,583,l),
(361,715,l),
(378,734,o),
(386.5,742.5,q),
(395,751,o),
(408.5,758,q)
);
}
);
width = 660;
}
);
unicode = 243;
},
{
category = Letter;
glyphname = ocircumflex;
kernLeft = o;
layers = (
{
layerId = "488cb3fc-7928-4381-9d20-07afbe5c7c4e";
name = Fore;
shapes = (
{
closed = 1;
nodes = (
(65,362,o),
(138.5,438.5,q),
(212,515,o),
(330,515,q),
(448,515,o),
(521.5,438.5,q),
(595,362,o),
(595,250,q),
(595,138,o),
(521.5,61.5,q),
(448,-15,o),
(330,-15,q),
(212,-15,o),
(138.5,61.5,q),
(65,138,o),
(65,250,q)
);
},
{
closed = 1;
nodes = (
(220,152,o),
(248,89.5,q),
(276,27,o),
(331,27,q),
(386,27,o),
(414,89.5,q),
(442,152,o),
(442,250,q),
(442,348,o),
(414,410.5,q),
(386,473,o),
(331,473,q),
(276,473,o),
(248,410.5,q),
(220,348,o),
(220,250,q)
);
},
{
closed = 1;
nodes = (
(360,765,o),
(388,727,q),
(496,583,l),
(475,559,l),
(334,654,l),
(326,654,l),
(185,559,l),
(164,583,l),
(272,727,l),
(300,765,o),
(330,765,q)
);
}
);
width = 660;
}
);
unicode = 244;
},
{
category = Letter;
glyphname = otilde;
kernLeft = o;
layers = (
{
layerId = "488cb3fc-7928-4381-9d20-07afbe5c7c4e";
name = Fore;
shapes = (
{
closed = 1;
nodes = (
(65,362,o),
(138.5,438.5,q),
(212,515,o),
(330,515,q),
(448,515,o),
(521.5,438.5,q),
(595,362,o),
(595,250,q),
(595,138,o),
(521.5,61.5,q),
(448,-15,o),
(330,-15,q),
(212,-15,o),
(138.5,61.5,q),
(65,138,o),
(65,250,q)
);
},
{
closed = 1;
nodes = (
(220,152,o),
(248,89.5,q),
(276,27,o),
(331,27,q),
(386,27,o),
(414,89.5,q),
(442,152,o),
(442,250,q),
(442,348,o),
(414,410.5,q),
(386,473,o),
(331,473,q),
(276,473,o),
(248,410.5,q),
(220,348,o),
(220,250,q)
);
},
{
closed = 1;
nodes = (
(442,624,l),
(442,663,o),
(414,663,q),
(402,663,o),
(391,656,q),
(306,608,l),
(274,589,o),
(246,589,q),
(218,589,o),
(195.5,615,q),
(173,641,o),
(173,675.5,q),
(173,710,o),
(181,742,q),
(217,742,l),
(217,727,l),
(217,688,o),
(245,688,q),
(257,688,o),
(268,695,q),
(353,743,l),
(385,762,o),
(413,762,q),
(441,762,o),
(463.5,736,q),
(486,710,o),
(486,675.5,q),
(486,641,o),
(478,609,q),
(442,609,l)
);
}
);
width = 660;
}
);
unicode = 245;
},
{
category = Letter;
glyphname = odieresis;
kernLeft = o;
layers = (
{
layerId = "488cb3fc-7928-4381-9d20-07afbe5c7c4e";
name = Fore;
shapes = (
{
closed = 1;
nodes = (
(65,362,o),
(138.5,438.5,q),
(212,515,o),
(330,515,q),
(448,515,o),
(521.5,438.5,q),
(595,362,o),
(595,250,q),
(595,138,o),
(521.5,61.5,q),
(448,-15,o),
(330,-15,q),
(212,-15,o),
(138.5,61.5,q),
(65,138,o),
(65,250,q)
);
},
{
closed = 1;
nodes = (
(220,152,o),
(248,89.5,q),
(276,27,o),
(331,27,q),
(386,27,o),
(414,89.5,q),
(442,152,o),
(442,250,q),
(442,348,o),
(414,410.5,q),
(386,473,o),
(331,473,q),
(276,473,o),
(248,410.5,q),
(220,348,o),
(220,250,q)
);
},
{
closed = 1;
nodes = (
(139,702,o),
(161.5,724,q),
(184,746,o),
(215,746,q),
(246,746,o),
(268.5,724,q),
(291,702,o),
(291,670,q),
(291,638,o),
(268.5,616,q),
(246,594,o),
(215,594,q),
(184,594,o),
(161.5,616,q),
(139,638,o),
(139,670,q)
);
},
{
closed = 1;
nodes = (
(369,702,o),
(391.5,724,q),
(414,746,o),
(445,746,q),
(476,746,o),
(498.5,724,q),
(521,702,o),
(521,670,q),
(521,638,o),
(498.5,616,q),
(476,594,o),
(445,594,q),
(414,594,o),
(391.5,616,q),
(369,638,o),
(369,670,q)
);
}
);
width = 660;
}
);
unicode = 246;
},
{
category = Letter;
glyphname = divide;
layers = (
{
layerId = "488cb3fc-7928-4381-9d20-07afbe5c7c4e";
name = Fore;
shapes = (
{
closed = 1;
nodes = (
(90,380,l),
(470,380,l),
(470,320,l),
(90,320,l)
);
},
{
closed = 1;
nodes = (
(218,548,o),
(236,565.5,q),
(254,583,o),
(280,583,q),
(306,583,o),
(323.5,565.5,q),
(341,548,o),
(341,522,q),
(341,496,o),
(323.5,478,q),
(306,460,o),
(280,460,q),
(254,460,o),
(236,478,q),
(218,496,o),
(218,522,q)
);
},
{
closed = 1;
nodes = (
(218,205,o),
(236,222.5,q),
(254,240,o),
(280,240,q),
(306,240,o),
(323.5,222,q),
(341,204,o),
(341,178.5,q),
(341,153,o),
(323.5,135,q),
(306,117,o),
(280,117,q),
(254,117,o),
(236,135,q),
(218,153,o),
(218,179,q)
);
}
);
width = 560;
}
);
unicode = 247;
},
{
category = Letter;
glyphname = oslash;
kernLeft = o;
layers = (
{
layerId = "488cb3fc-7928-4381-9d20-07afbe5c7c4e";
name = Fore;
shapes = (
{
closed = 1;
nodes = (
(595,138,o),
(521.5,61.5,q),
(448,-15,o),
(330,-15,q),
(314,-15,o),
(284,-11,q),
(238,-181,l),
(189,-181,l),
(237,0,l),
(157,26,o),
(111,94,q),
(65,162,o),
(65,250,q),
(65,362,o),
(138.5,438.5,q),
(212,515,o),
(330,515,q),
(346,515,o),
(376,511,q),
(421,678,l),
(471,678,l),
(422,500,l),
(502,473,o),
(548.5,405,q),
(595,337,o),
(595,250,q)
);
},
{
closed = 1;
nodes = (
(442,152,o),
(442,261.5,q),
(442,371,o),
(403,430,q),
(296,35,l),
(314,27,o),
(331,27,q),
(386,27,o),
(414,89.5,q)
);
},
{
closed = 1;
nodes = (
(220,348,o),
(220,239,q),
(220,130,o),
(257,72,q),
(363,466,l),
(346,473,o),
(331,473,q),
(276,473,o),
(248,410.5,q)
);
}
);
width = 660;
}
);
unicode = 248;
},
{
category = Letter;
glyphname = ugrave;
layers = (
{
layerId = "488cb3fc-7928-4381-9d20-07afbe5c7c4e";
name = Fore;
shapes = (
{
closed = 1;
nodes = (
(274,111,l),
(274,80,o),
(293,63,q),
(312,46,o),
(346,46,q),
(380,46,o),
(412,74,q),
(444,102,o),
(444,147,q),
(444,500,l),
(594,500,l),
(594,111,l),
(594,84,o),
(607,68.5,q),
(620,53,o),
(647,53,q),
(674,53,o),
(709,82,q),
(727,58,l),
(647,-15,o),
(564,-15,q),
(481,-15,o),
(454,59,q),
(415,18,o),
(373.5,1.5,q),
(332,-15,o),
(267.5,-15,q),
(203,-15,o),
(163.5,24.5,q),
(124,64,o),
(124,132,q),
(124,467,l),
(69,453,o),
(40,418,q),
(13,449,l),
(42,479,o),
(86.5,497,q),
(131,515,o),
(174.5,515,q),
(218,515,o),
(246,497.5,q),
(274,480,o),
(274,454,q)
);
},
{
closed = 1;
nodes = (
(240,765,o),
(259.5,765,q),
(279,765,o),
(292.5,758,q),
(306,751,o),
(314.5,742.5,q),
(323,734,o),
(340,715,q),
(459,583,l),
(438,559,l),
(290,632,l),
(243,655,o),
(225,672.5,q),
(207,690,o),
(207,713,q),
(207,736,o),
(223.5,750.5,q)
);
}
);
width = 707;
}
);
unicode = 249;
},
{
category = Letter;
glyphname = uacute;
layers = (
{
layerId = "488cb3fc-7928-4381-9d20-07afbe5c7c4e";
name = Fore;
shapes = (
{
closed = 1;
nodes = (
(274,111,l),
(274,80,o),
(293,63,q),
(312,46,o),
(346,46,q),
(380,46,o),
(412,74,q),
(444,102,o),
(444,147,q),
(444,500,l),
(594,500,l),
(594,111,l),
(594,84,o),
(607,68.5,q),
(620,53,o),
(647,53,q),
(674,53,o),
(709,82,q),
(727,58,l),
(647,-15,o),
(564,-15,q),
(481,-15,o),
(454,59,q),
(415,18,o),
(373.5,1.5,q),
(332,-15,o),
(267.5,-15,q),
(203,-15,o),
(163.5,24.5,q),
(124,64,o),
(124,132,q),
(124,467,l),
(69,453,o),
(40,418,q),
(13,449,l),
(42,479,o),
(86.5,497,q),
(131,515,o),
(174.5,515,q),
(218,515,o),
(246,497.5,q),
(274,480,o),
(274,454,q)
);
},
{
closed = 1;
nodes = (
(445,765,o),
(464.5,765,q),
(484,765,o),
(500.5,750.5,q),
(517,736,o),
(517,713,q),
(517,690,o),
(499,672.5,q),
(481,655,o),
(434,632,q),
(286,559,l),
(265,583,l),
(384,715,l),
(401,734,o),
(409.5,742.5,q),
(418,751,o),
(431.5,758,q)
);
}
);
width = 707;
}
);
unicode = 250;
},
{
category = Letter;
glyphname = ucircumflex;
layers = (
{
layerId = "488cb3fc-7928-4381-9d20-07afbe5c7c4e";
name = Fore;
shapes = (
{
closed = 1;
nodes = (
(274,111,l),
(274,80,o),
(293,63,q),
(312,46,o),
(346,46,q),
(380,46,o),
(412,74,q),
(444,102,o),
(444,147,q),
(444,500,l),
(594,500,l),
(594,111,l),
(594,84,o),
(607,68.5,q),
(620,53,o),
(647,53,q),
(674,53,o),
(709,82,q),
(727,58,l),
(647,-15,o),
(564,-15,q),
(481,-15,o),
(454,59,q),
(415,18,o),
(373.5,1.5,q),
(332,-15,o),
(267.5,-15,q),
(203,-15,o),
(163.5,24.5,q),
(124,64,o),
(124,132,q),
(124,467,l),
(69,453,o),
(40,418,q),
(13,449,l),
(42,479,o),
(86.5,497,q),
(131,515,o),
(174.5,515,q),
(218,515,o),
(246,497.5,q),
(274,480,o),
(274,454,q)
);
},
{
closed = 1;
nodes = (
(383,765,o),
(411,727,q),
(519,583,l),
(498,559,l),
(357,654,l),
(349,654,l),
(208,559,l),
(187,583,l),
(295,727,l),
(323,765,o),
(353,765,q)
);
}
);
width = 707;
}
);
unicode = 251;
},
{
category = Letter;
glyphname = udieresis;
layers = (
{
layerId = "488cb3fc-7928-4381-9d20-07afbe5c7c4e";
name = Fore;
shapes = (
{
closed = 1;
nodes = (
(274,111,l),
(274,80,o),
(293,63,q),
(312,46,o),
(346,46,q),
(380,46,o),
(412,74,q),
(444,102,o),
(444,147,q),
(444,500,l),
(594,500,l),
(594,111,l),
(594,84,o),
(607,68.5,q),
(620,53,o),
(647,53,q),
(674,53,o),
(709,82,q),
(727,58,l),
(647,-15,o),
(564,-15,q),
(481,-15,o),
(454,59,q),
(415,18,o),
(373.5,1.5,q),
(332,-15,o),
(267.5,-15,q),
(203,-15,o),
(163.5,24.5,q),
(124,64,o),
(124,132,q),
(124,467,l),
(69,453,o),
(40,418,q),
(13,449,l),
(42,479,o),
(86.5,497,q),
(131,515,o),
(174.5,515,q),
(218,515,o),
(246,497.5,q),
(274,480,o),
(274,454,q)
);
},
{
closed = 1;
nodes = (
(162,702,o),
(184,724,q),
(206,746,o),
(238,746,q),
(270,746,o),
(292,724,q),
(314,702,o),
(314,670,q),
(314,638,o),
(292,616,q),
(270,594,o),
(238,594,q),
(206,594,o),
(184,616,q),
(162,638,o),
(162,670,q)
);
},
{
closed = 1;
nodes = (
(392,702,o),
(414,724,q),
(436,746,o),
(468,746,q),
(500,746,o),
(522,724,q),
(544,702,o),
(544,670,q),
(544,638,o),
(522,616,q),
(500,594,o),
(468,594,q),
(436,594,o),
(414,616,q),
(392,638,o),
(392,670,q)
);
}
);
width = 707;
}
);
unicode = 252;
},
{
category = Letter;
glyphname = yacute;
layers = (
{
layerId = "488cb3fc-7928-4381-9d20-07afbe5c7c4e";
name = Fore;
shapes = (
{
closed = 1;
nodes = (
(131,515,o),
(174.5,515,q),
(218,515,o),
(246,497.5,q),
(274,480,o),
(274,454,q),
(274,151,l),
(274,119,o),
(294,102.5,q),
(314,86,o),
(344,86,q),
(408,86,o),
(453.5,141,q),
(499,196,o),
(499,282,q),
(499,330,o),
(480,383,q),
(462,371,o),
(434,371,q),
(406,371,o),
(383.5,393.5,q),
(361,416,o),
(361,448,q),
(361,480,o),
(383.5,502.5,q),
(406,525,o),
(440,525,q),
(474,525,o),
(498.5,499.5,q),
(523,474,o),
(534,432,q),
(552,359,o),
(552,270.5,q),
(552,182,o),
(531.5,93,q),
(511,4,o),
(477.5,-60,q),
(444,-124,o),
(402,-171,q),
(316,-265,o),
(227,-265,q),
(203,-265,o),
(187.5,-254.5,q),
(172,-244,o),
(152,-216,q),
(100,-144,l),
(126,-117,l),
(174,-125,o),
(210,-125,q),
(322,-125,o),
(393,-54,q),
(464,17,o),
(505,177,q),
(443,5,o),
(277,5,q),
(213,5,o),
(168.5,48.5,q),
(124,92,o),
(124,172,q),
(124,467,l),
(69,453,o),
(40,418,q),
(13,449,l),
(42,479,o),
(86.5,497,q)
);
},
{
closed = 1;
nodes = (
(386,765,o),
(405.5,765,q),
(425,765,o),
(441.5,750.5,q),
(458,736,o),
(458,713,q),
(458,690,o),
(440,672.5,q),
(422,655,o),
(375,632,q),
(227,559,l),
(206,583,l),
(325,715,l),
(342,734,o),
(350.5,742.5,q),
(359,751,o),
(372.5,758,q)
);
}
);
width = 627;
}
);
unicode = 253;
},
{
category = Letter;
glyphname = thorn;
layers = (
{
layerId = "488cb3fc-7928-4381-9d20-07afbe5c7c4e";
name = Fore;
shapes = (
{
closed = 1;
nodes = (
(524,515,o),
(584,440.5,q),
(644,366,o),
(644,250.5,q),
(644,135,o),
(579.5,60,q),
(515,-15,o),
(399,-15,q),
(313,-15,o),
(262,62,q),
(262,-250,l),
(111,-250,l),
(111,718,l),
(55,703,o),
(27,668,q),
(0,699,l),
(29,729,o),
(73.5,747,q),
(118,765,o),
(161.5,765,q),
(205,765,o),
(233,747.5,q),
(261,730,o),
(261,704,q),
(262,436,l),
(315,515,o),
(409,515,q)
);
},
{
closed = 1;
nodes = (
(489,346,o),
(461,402,q),
(433,458,o),
(375.5,458,q),
(318,458,o),
(287.5,401.5,q),
(257,345,o),
(257,250,q),
(257,155,o),
(287.5,98.5,q),
(318,42,o),
(375.5,42,q),
(433,42,o),
(461,98,q),
(489,154,o),
(489,250,q)
);
}
);
width = 709;
}
);
unicode = 254;
},
{
category = Letter;
glyphname = ydieresis;
layers = (
{
layerId = "488cb3fc-7928-4381-9d20-07afbe5c7c4e";
name = Fore;
shapes = (
{
closed = 1;
nodes = (
(131,515,o),
(174.5,515,q),
(218,515,o),
(246,497.5,q),
(274,480,o),
(274,454,q),
(274,151,l),
(274,119,o),
(294,102.5,q),
(314,86,o),
(344,86,q),
(408,86,o),
(453.5,141,q),
(499,196,o),
(499,282,q),
(499,330,o),
(480,383,q),
(462,371,o),
(434,371,q),
(406,371,o),
(383.5,393.5,q),
(361,416,o),
(361,448,q),
(361,480,o),
(383.5,502.5,q),
(406,525,o),
(440,525,q),
(474,525,o),
(498.5,499.5,q),
(523,474,o),
(534,432,q),
(552,359,o),
(552,270.5,q),
(552,182,o),
(531.5,93,q),
(511,4,o),
(477.5,-60,q),
(444,-124,o),
(402,-171,q),
(316,-265,o),
(227,-265,q),
(203,-265,o),
(187.5,-254.5,q),
(172,-244,o),
(152,-216,q),
(100,-144,l),
(126,-117,l),
(174,-125,o),
(210,-125,q),
(322,-125,o),
(393,-54,q),
(464,17,o),
(505,177,q),
(443,5,o),
(277,5,q),
(213,5,o),
(168.5,48.5,q),
(124,92,o),
(124,172,q),
(124,467,l),
(69,453,o),
(40,418,q),
(13,449,l),
(42,479,o),
(86.5,497,q)
);
},
{
closed = 1;
nodes = (
(121,702,o),
(143.5,724,q),
(166,746,o),
(197,746,q),
(228,746,o),
(250.5,724,q),
(273,702,o),
(273,670,q),
(273,638,o),
(250.5,616,q),
(228,594,o),
(197,594,q),
(166,594,o),
(143.5,616,q),
(121,638,o),
(121,670,q)
);
},
{
closed = 1;
nodes = (
(351,702,o),
(373.5,724,q),
(396,746,o),
(427,746,q),
(458,746,o),
(480.5,724,q),
(503,702,o),
(503,670,q),
(503,638,o),
(480.5,616,q),
(458,594,o),
(427,594,q),
(396,594,o),
(373.5,616,q),
(351,638,o),
(351,670,q)
);
}
);
width = 627;
}
);
unicode = 255;
},
{
category = Letter;
glyphname = Amacron;
kernLeft = A.2;
kernRight = A;
layers = (
{
layerId = "488cb3fc-7928-4381-9d20-07afbe5c7c4e";
name = Fore;
shapes = (
{
closed = 1;
nodes = (
(169,700,l),
(407,700,l),
(606,40,l),
(656,40,l),
(656,0,l),
(398,0,l),
(398,40,l),
(456,40,l),
(419,163,l),
(147,163,l),
(111,40,l),
(169,40,l),
(169,0,l),
(0,0,l),
(0,40,l),
(50,40,l),
(237,660,l),
(169,660,l)
);
},
{
closed = 1;
nodes = (
(161,208,l),
(405,208,l),
(282,617,l)
);
},
{
closed = 1;
nodes = (
(475,900,l),
(475,812,l),
(181,812,l),
(181,900,l)
);
}
);
width = 656;
}
);
unicode = 256;
},
{
category = Letter;
glyphname = amacron;
kernLeft = a;
layers = (
{
layerId = "488cb3fc-7928-4381-9d20-07afbe5c7c4e";
name = Fore;
shapes = (
{
closed = 1;
nodes = (
(597,111,l),
(597,84,o),
(610,68.5,q),
(623,53,o),
(650,53,q),
(677,53,o),
(712,82,q),
(730,58,l),
(650,-15,o),
(570,-15,q),
(475,-15,o),
(453,74,q),
(401,-15,o),
(300,-15,q),
(185,-15,o),
(125,59.5,q),
(65,134,o),
(65,249.5,q),
(65,365,o),
(129.5,440,q),
(194,515,o),
(310,515,q),
(399,515,o),
(447,444,q),
(447,500,l),
(597,500,l)
);
},
{
closed = 1;
nodes = (
(220,154,o),
(248,98,q),
(276,42,o),
(333.5,42,q),
(391,42,o),
(421.5,98.5,q),
(452,155,o),
(452,250,q),
(452,345,o),
(421.5,401.5,q),
(391,458,o),
(333.5,458,q),
(276,458,o),
(248,402,q),
(220,346,o),
(220,250,q)
);
},
{
closed = 1;
nodes = (
(502,700,l),
(502,612,l),
(208,612,l),
(208,700,l)
);
}
);
width = 710;
}
);
unicode = 257;
},
{
category = Letter;
glyphname = Abreve;
kernLeft = A.2;
kernRight = A;
layers = (
{
layerId = "488cb3fc-7928-4381-9d20-07afbe5c7c4e";
name = Fore;
shapes = (
{
closed = 1;
nodes = (
(169,700,l),
(407,700,l),
(606,40,l),
(656,40,l),
(656,0,l),
(398,0,l),
(398,40,l),
(456,40,l),
(419,163,l),
(147,163,l),
(111,40,l),
(169,40,l),
(169,0,l),
(0,0,l),
(0,40,l),
(50,40,l),
(237,660,l),
(169,660,l)
);
},
{
closed = 1;
nodes = (
(161,208,l),
(405,208,l),
(282,617,l)
);
},
{
closed = 1;
nodes = (
(307,870,o),
(330.5,870,q),
(354,870,o),
(380.5,888,q),
(407,906,o),
(419,920.5,q),
(431,935,o),
(449,960,q),
(494,931,l),
(444,840,o),
(407,804.5,q),
(370,769,o),
(328,769,q),
(286,769,o),
(249,804.5,q),
(212,840,o),
(162,931,q),
(206,960,l),
(255,893,o),
(288,878,q)
);
}
);
width = 656;
}
);
unicode = 258;
},
{
category = Letter;
glyphname = abreve;
kernLeft = a;
layers = (
{
layerId = "488cb3fc-7928-4381-9d20-07afbe5c7c4e";
name = Fore;
shapes = (
{
closed = 1;
nodes = (
(597,111,l),
(597,84,o),
(610,68.5,q),
(623,53,o),
(650,53,q),
(677,53,o),
(712,82,q),
(730,58,l),
(650,-15,o),
(570,-15,q),
(475,-15,o),
(453,74,q),
(401,-15,o),
(300,-15,q),
(185,-15,o),
(125,59.5,q),
(65,134,o),
(65,249.5,q),
(65,365,o),
(129.5,440,q),
(194,515,o),
(310,515,q),
(399,515,o),
(447,444,q),
(447,500,l),
(597,500,l)
);
},
{
closed = 1;
nodes = (
(220,154,o),
(248,98,q),
(276,42,o),
(333.5,42,q),
(391,42,o),
(421.5,98.5,q),
(452,155,o),
(452,250,q),
(452,345,o),
(421.5,401.5,q),
(391,458,o),
(333.5,458,q),
(276,458,o),
(248,402,q),
(220,346,o),
(220,250,q)
);
},
{
closed = 1;
nodes = (
(334,670,o),
(357.5,670,q),
(381,670,o),
(407.5,688,q),
(434,706,o),
(446,720.5,q),
(458,735,o),
(476,760,q),
(521,731,l),
(471,640,o),
(434,604.5,q),
(397,569,o),
(355,569,q),
(313,569,o),
(276,604.5,q),
(239,640,o),
(189,731,q),
(233,760,l),
(282,693,o),
(315,678,q)
);
}
);
width = 710;
}
);
unicode = 259;
},
{
category = Letter;
glyphname = Aogonek;
kernLeft = A.2;
kernRight = A;
layers = (
{
layerId = "488cb3fc-7928-4381-9d20-07afbe5c7c4e";
name = Fore;
shapes = (
{
closed = 1;
nodes = (
(398,40,l),
(456,40,l),
(419,163,l),
(147,163,l),
(111,40,l),
(169,40,l),
(169,0,l),
(0,0,l),
(0,40,l),
(50,40,l),
(237,660,l),
(169,660,l),
(169,700,l),
(407,700,l),
(606,40,l),
(656,40,l),
(656,0,l),
(608,0,l),
(600,-8,l),
(562,-46,o),
(550,-70.5,q),
(538,-95,o),
(538,-122.5,q),
(538,-150,o),
(554.5,-164.5,q),
(571,-179,o),
(602,-179,q),
(633,-179,o),
(663,-151,q),
(680,-180,l),
(632,-238,o),
(556,-238,q),
(509,-238,o),
(478,-214.5,q),
(447,-191,o),
(447,-143,q),
(447,-119,o),
(462,-94.5,q),
(477,-70,o),
(492,-56.5,q),
(507,-43,o),
(534,-21,q),
(560,0,l),
(398,0,l)
);
},
{
closed = 1;
nodes = (
(161,208,l),
(405,208,l),
(282,617,l)
);
}
);
width = 656;
}
);
unicode = 260;
},
{
category = Letter;
glyphname = aogonek;
kernLeft = a;
layers = (
{
layerId = "488cb3fc-7928-4381-9d20-07afbe5c7c4e";
name = Fore;
shapes = (
{
closed = 1;
nodes = (
(597,111,l),
(597,84,o),
(610,68.5,q),
(623,53,o),
(650,53,q),
(677,53,o),
(712,82,q),
(730,58,l),
(664,-8,l),
(626,-46,o),
(614,-70.5,q),
(602,-95,o),
(602,-122.5,q),
(602,-150,o),
(618.5,-164.5,q),
(635,-179,o),
(666,-179,q),
(697,-179,o),
(727,-151,q),
(744,-180,l),
(696,-238,o),
(620,-238,q),
(573,-238,o),
(542,-214.5,q),
(511,-191,o),
(511,-149.5,q),
(511,-108,o),
(531.5,-79.5,q),
(552,-51,o),
(588,-21,q),
(597,-13,l),
(579,-15,o),
(570,-15,q),
(475,-15,o),
(453,74,q),
(401,-15,o),
(300,-15,q),
(185,-15,o),
(125,59.5,q),
(65,134,o),
(65,249.5,q),
(65,365,o),
(129.5,440,q),
(194,515,o),
(310,515,q),
(399,515,o),
(447,444,q),
(447,500,l),
(597,500,l)
);
},
{
closed = 1;
nodes = (
(220,154,o),
(248,98,q),
(276,42,o),
(333.5,42,q),
(391,42,o),
(421.5,98.5,q),
(452,155,o),
(452,250,q),
(452,345,o),
(421.5,401.5,q),
(391,458,o),
(333.5,458,q),
(276,458,o),
(248,402,q),
(220,346,o),
(220,250,q)
);
}
);
width = 710;
}
);
unicode = 261;
},
{
category = Letter;
glyphname = Cacute;
layers = (
{
layerId = "488cb3fc-7928-4381-9d20-07afbe5c7c4e";
name = Fore;
shapes = (
{
closed = 1;
nodes = (
(295,668,o),
(250,578.5,q),
(205,489,o),
(205,355,q),
(205,221,o),
(252.5,136,q),
(300,51,o),
(389,51,q),
(439,51,o),
(481,72,q),
(523,93,o),
(544.5,116,q),
(566,139,o),
(590,174,q),
(625,149,l),
(577,72,o),
(517.5,28.5,q),
(458,-15,o),
(365,-15,q),
(226,-15,o),
(138,90,q),
(50,195,o),
(50,351,q),
(50,507,o),
(138,611,q),
(226,715,o),
(382,715,q),
(463,715,o),
(538,683,q),
(613,651,o),
(613,607,q),
(613,590,o),
(602,568,q),
(542,452,l),
(506,463,l),
(515,525,l),
(519,549,o),
(519,571,q),
(519,610,o),
(481,639,q),
(443,668,o),
(382,668,q)
);
},
{
closed = 1;
nodes = (
(429,965,o),
(448.5,965,q),
(468,965,o),
(484.5,950.5,q),
(501,936,o),
(501,913,q),
(501,890,o),
(483,872.5,q),
(465,855,o),
(418,832,q),
(270,759,l),
(249,783,l),
(368,915,l),
(385,934,o),
(393.5,942.5,q),
(402,951,o),
(415.5,958,q)
);
}
);
width = 650;
}
);
unicode = 262;
},
{
category = Letter;
glyphname = cacute;
kernLeft = a;
layers = (
{
layerId = "488cb3fc-7928-4381-9d20-07afbe5c7c4e";
name = Fore;
shapes = (
{
closed = 1;
nodes = (
(212,-15,o),
(138.5,61.5,q),
(65,138,o),
(65,250,q),
(65,362,o),
(138.5,438.5,q),
(212,515,o),
(330,515,q),
(396,515,o),
(459,477,q),
(522,439,o),
(522,374,q),
(522,341,o),
(498.5,317.5,q),
(475,294,o),
(442,294,q),
(409,294,o),
(385.5,317.5,q),
(362,341,o),
(362,371,q),
(362,401,o),
(378,422,q),
(394,443,o),
(420,451,q),
(392,463,o),
(356,463,q),
(289,463,o),
(254.5,403.5,q),
(220,344,o),
(220,252.5,q),
(220,161,o),
(254.5,104,q),
(289,47,o),
(356,47,q),
(446,47,o),
(509,122,q),
(537,104,l),
(504,50,o),
(450.5,17.5,q),
(397,-15,o),
(331,-15,q)
);
},
{
closed = 1;
nodes = (
(385,765,o),
(404.5,765,q),
(424,765,o),
(440.5,750.5,q),
(457,736,o),
(457,713,q),
(457,690,o),
(439,672.5,q),
(421,655,o),
(374,632,q),
(226,559,l),
(205,583,l),
(324,715,l),
(341,734,o),
(349.5,742.5,q),
(358,751,o),
(371.5,758,q)
);
}
);
width = 562;
}
);
unicode = 263;
},
{
category = Letter;
glyphname = Ccircumflex;
layers = (
{
layerId = "488cb3fc-7928-4381-9d20-07afbe5c7c4e";
name = Fore;
shapes = (
{
closed = 1;
nodes = (
(295,668,o),
(250,578.5,q),
(205,489,o),
(205,355,q),
(205,221,o),
(252.5,136,q),
(300,51,o),
(389,51,q),
(439,51,o),
(481,72,q),
(523,93,o),
(544.5,116,q),
(566,139,o),
(590,174,q),
(625,149,l),
(577,72,o),
(517.5,28.5,q),
(458,-15,o),
(365,-15,q),
(226,-15,o),
(138,90,q),
(50,195,o),
(50,351,q),
(50,507,o),
(138,611,q),
(226,715,o),
(382,715,q),
(463,715,o),
(538,683,q),
(613,651,o),
(613,607,q),
(613,590,o),
(602,568,q),
(542,452,l),
(506,463,l),
(515,525,l),
(519,549,o),
(519,571,q),
(519,610,o),
(481,639,q),
(443,668,o),
(382,668,q)
);
},
{
closed = 1;
nodes = (
(405,965,o),
(433,927,q),
(541,783,l),
(520,759,l),
(379,854,l),
(371,854,l),
(230,759,l),
(209,783,l),
(317,927,l),
(345,965,o),
(375,965,q)
);
}
);
width = 650;
}
);
unicode = 264;
},
{
category = Letter;
glyphname = ccircumflex;
kernLeft = a;
layers = (
{
layerId = "488cb3fc-7928-4381-9d20-07afbe5c7c4e";
name = Fore;
shapes = (
{
closed = 1;
nodes = (
(212,-15,o),
(138.5,61.5,q),
(65,138,o),
(65,250,q),
(65,362,o),
(138.5,438.5,q),
(212,515,o),
(330,515,q),
(396,515,o),
(459,477,q),
(522,439,o),
(522,374,q),
(522,341,o),
(498.5,317.5,q),
(475,294,o),
(442,294,q),
(409,294,o),
(385.5,317.5,q),
(362,341,o),
(362,371,q),
(362,401,o),
(378,422,q),
(394,443,o),
(420,451,q),
(392,463,o),
(356,463,q),
(289,463,o),
(254.5,403.5,q),
(220,344,o),
(220,252.5,q),
(220,161,o),
(254.5,104,q),
(289,47,o),
(356,47,q),
(446,47,o),
(509,122,q),
(537,104,l),
(504,50,o),
(450.5,17.5,q),
(397,-15,o),
(331,-15,q)
);
},
{
closed = 1;
nodes = (
(341,765,o),
(369,727,q),
(477,583,l),
(456,559,l),
(315,654,l),
(307,654,l),
(166,559,l),
(145,583,l),
(253,727,l),
(281,765,o),
(311,765,q)
);
}
);
width = 562;
}
);
unicode = 265;
},
{
category = Letter;
glyphname = Cdotaccent;
layers = (
{
layerId = "488cb3fc-7928-4381-9d20-07afbe5c7c4e";
name = Fore;
shapes = (
{
closed = 1;
nodes = (
(295,668,o),
(250,578.5,q),
(205,489,o),
(205,355,q),
(205,221,o),
(252.5,136,q),
(300,51,o),
(389,51,q),
(439,51,o),
(481,72,q),
(523,93,o),
(544.5,116,q),
(566,139,o),
(590,174,q),
(625,149,l),
(577,72,o),
(517.5,28.5,q),
(458,-15,o),
(365,-15,q),
(226,-15,o),
(138,90,q),
(50,195,o),
(50,351,q),
(50,507,o),
(138,611,q),
(226,715,o),
(382,715,q),
(463,715,o),
(538,683,q),
(613,651,o),
(613,607,q),
(613,590,o),
(602,568,q),
(542,452,l),
(506,463,l),
(515,525,l),
(519,549,o),
(519,571,q),
(519,610,o),
(481,639,q),
(443,668,o),
(382,668,q)
);
},
{
closed = 1;
nodes = (
(295,903,o),
(318.5,926.5,q),
(342,950,o),
(375,950,q),
(408,950,o),
(431.5,926.5,q),
(455,903,o),
(455,870,q),
(455,837,o),
(431.5,813.5,q),
(408,790,o),
(375,790,q),
(342,790,o),
(318.5,813.5,q),
(295,837,o),
(295,870,q)
);
}
);
width = 650;
}
);
unicode = 266;
},
{
category = Letter;
glyphname = cdotaccent;
kernLeft = a;
layers = (
{
layerId = "488cb3fc-7928-4381-9d20-07afbe5c7c4e";
name = Fore;
shapes = (
{
closed = 1;
nodes = (
(212,-15,o),
(138.5,61.5,q),
(65,138,o),
(65,250,q),
(65,362,o),
(138.5,438.5,q),
(212,515,o),
(330,515,q),
(396,515,o),
(459,477,q),
(522,439,o),
(522,374,q),
(522,341,o),
(498.5,317.5,q),
(475,294,o),
(442,294,q),
(409,294,o),
(385.5,317.5,q),
(362,341,o),
(362,371,q),
(362,401,o),
(378,422,q),
(394,443,o),
(420,451,q),
(392,463,o),
(356,463,q),
(289,463,o),
(254.5,403.5,q),
(220,344,o),
(220,252.5,q),
(220,161,o),
(254.5,104,q),
(289,47,o),
(356,47,q),
(446,47,o),
(509,122,q),
(537,104,l),
(504,50,o),
(450.5,17.5,q),
(397,-15,o),
(331,-15,q)
);
},
{
closed = 1;
nodes = (
(251,703,o),
(274.5,726.5,q),
(298,750,o),
(331,750,q),
(364,750,o),
(387.5,726.5,q),
(411,703,o),
(411,670,q),
(411,637,o),
(387.5,613.5,q),
(364,590,o),
(331,590,q),
(298,590,o),
(274.5,613.5,q),
(251,637,o),
(251,670,q)
);
}
);
width = 562;
}
);
unicode = 267;
},
{
category = Letter;
glyphname = Ccaron;
layers = (
{
layerId = "488cb3fc-7928-4381-9d20-07afbe5c7c4e";
name = Fore;
shapes = (
{
closed = 1;
nodes = (
(295,668,o),
(250,578.5,q),
(205,489,o),
(205,355,q),
(205,221,o),
(252.5,136,q),
(300,51,o),
(389,51,q),
(439,51,o),
(481,72,q),
(523,93,o),
(544.5,116,q),
(566,139,o),
(590,174,q),
(625,149,l),
(577,72,o),
(517.5,28.5,q),
(458,-15,o),
(365,-15,q),
(226,-15,o),
(138,90,q),
(50,195,o),
(50,351,q),
(50,507,o),
(138,611,q),
(226,715,o),
(382,715,q),
(463,715,o),
(538,683,q),
(613,651,o),
(613,607,q),
(613,590,o),
(602,568,q),
(542,452,l),
(506,463,l),
(515,525,l),
(519,549,o),
(519,571,q),
(519,610,o),
(481,639,q),
(443,668,o),
(382,668,q)
);
},
{
closed = 1;
nodes = (
(345,759,o),
(317,797,q),
(209,941,l),
(230,965,l),
(371,870,l),
(379,870,l),
(520,965,l),
(541,941,l),
(433,797,l),
(405,759,o),
(375,759,q)
);
}
);
width = 650;
}
);
unicode = 268;
},
{
category = Letter;
glyphname = ccaron;
kernLeft = a;
layers = (
{
layerId = "488cb3fc-7928-4381-9d20-07afbe5c7c4e";
name = Fore;
shapes = (
{
closed = 1;
nodes = (
(212,-15,o),
(138.5,61.5,q),
(65,138,o),
(65,250,q),
(65,362,o),
(138.5,438.5,q),
(212,515,o),
(330,515,q),
(396,515,o),
(459,477,q),
(522,439,o),
(522,374,q),
(522,341,o),
(498.5,317.5,q),
(475,294,o),
(442,294,q),
(409,294,o),
(385.5,317.5,q),
(362,341,o),
(362,371,q),
(362,401,o),
(378,422,q),
(394,443,o),
(420,451,q),
(392,463,o),
(356,463,q),
(289,463,o),
(254.5,403.5,q),
(220,344,o),
(220,252.5,q),
(220,161,o),
(254.5,104,q),
(289,47,o),
(356,47,q),
(446,47,o),
(509,122,q),
(537,104,l),
(504,50,o),
(450.5,17.5,q),
(397,-15,o),
(331,-15,q)
);
},
{
closed = 1;
nodes = (
(301,559,o),
(273,597,q),
(165,741,l),
(186,765,l),
(327,670,l),
(335,670,l),
(476,765,l),
(497,741,l),
(389,597,l),
(361,559,o),
(331,559,q)
);
}
);
width = 562;
}
);
unicode = 269;
},
{
category = Letter;
glyphname = Dcaron;
layers = (
{
layerId = "488cb3fc-7928-4381-9d20-07afbe5c7c4e";
name = Fore;
shapes = (
{
closed = 1;
nodes = (
(340,700,l),
(520,700,o),
(631,602.5,q),
(742,505,o),
(742,350.5,q),
(742,196,o),
(631,98,q),
(520,0,o),
(340,0,q),
(70,0,l),
(70,40,l),
(150,40,l),
(150,660,l),
(70,660,l),
(70,700,l)
);
},
{
closed = 1;
nodes = (
(300,660,l),
(300,40,l),
(340,40,l),
(456,40,o),
(521.5,123.5,q),
(587,207,o),
(587,350,q),
(587,493,o),
(521.5,576.5,q),
(456,660,o),
(340,660,q)
);
},
{
closed = 1;
nodes = (
(361,759,o),
(333,797,q),
(225,941,l),
(246,965,l),
(387,870,l),
(395,870,l),
(536,965,l),
(557,941,l),
(449,797,l),
(421,759,o),
(391,759,q)
);
}
);
width = 782;
}
);
unicode = 270;
},
{
category = Letter;
glyphname = dcaron;
kernLeft = a;
layers = (
{
layerId = "488cb3fc-7928-4381-9d20-07afbe5c7c4e";
name = Fore;
shapes = (
{
closed = 1;
nodes = (
(597,111,l),
(597,84,o),
(610,68.5,q),
(623,53,o),
(647.5,53,q),
(672,53,o),
(707,82,q),
(730,58,l),
(650,-15,o),
(570,-15,q),
(475,-15,o),
(453,74,q),
(401,-15,o),
(300,-15,q),
(185,-15,o),
(125,59.5,q),
(65,134,o),
(65,249.5,q),
(65,365,o),
(129.5,440,q),
(194,515,o),
(310,515,q),
(399,515,o),
(447,444,q),
(447,717,l),
(392,703,o),
(363,668,q),
(336,699,l),
(365,729,o),
(409.5,747,q),
(454,765,o),
(497.5,765,q),
(541,765,o),
(569,747.5,q),
(597,730,o),
(597,704,q)
);
},
{
closed = 1;
nodes = (
(220,154,o),
(248,98,q),
(276,42,o),
(333.5,42,q),
(391,42,o),
(421.5,98.5,q),
(452,155,o),
(452,250,q),
(452,345,o),
(421.5,401.5,q),
(391,458,o),
(333.5,458,q),
(276,458,o),
(248,402,q),
(220,346,o),
(220,250,q)
);
},
{
closed = 1;
nodes = (
(662,694,o),
(662,722.5,q),
(662,751,o),
(681.5,770.5,q),
(701,790,o),
(729.5,790,q),
(758,790,o),
(777,768,q),
(796,746,o),
(796,701,q),
(796,656,o),
(768.5,600.5,q),
(741,545,o),
(691,500,q),
(669,522,l),
(713,573,o),
(713,612,q),
(713,635,o),
(687.5,664.5,q)
);
}
);
width = 710;
}
);
unicode = 271;
},
{
category = Letter;
glyphname = Dcroat;
layers = (
{
layerId = "488cb3fc-7928-4381-9d20-07afbe5c7c4e";
name = Fore;
shapes = (
{
closed = 1;
nodes = (
(70,318,l),
(150,318,l),
(150,660,l),
(70,660,l),
(70,700,l),
(340,700,l),
(520,700,o),
(631,602.5,q),
(742,505,o),
(742,350.5,q),
(742,196,o),
(631,98,q),
(520,0,o),
(340,0,q),
(70,0,l),
(70,40,l),
(150,40,l),
(150,273,l),
(70,273,l)
);
},
{
closed = 1;
nodes = (
(300,660,l),
(300,318,l),
(450,318,l),
(450,273,l),
(300,273,l),
(300,40,l),
(340,40,l),
(456,40,o),
(521.5,123.5,q),
(587,207,o),
(587,350,q),
(587,493,o),
(521.5,576.5,q),
(456,660,o),
(340,660,q)
);
}
);
width = 782;
}
);
unicode = 272;
},
{
category = Letter;
glyphname = dcroat;
kernLeft = a;
layers = (
{
layerId = "488cb3fc-7928-4381-9d20-07afbe5c7c4e";
name = Fore;
shapes = (
{
closed = 1;
nodes = (
(330,613,l),
(447,613,l),
(447,717,l),
(392,703,o),
(363,668,q),
(336,699,l),
(365,729,o),
(409.5,747,q),
(454,765,o),
(497.5,765,q),
(541,765,o),
(569,747.5,q),
(597,730,o),
(597,704,q),
(597,613,l),
(710,613,l),
(710,568,l),
(597,568,l),
(597,111,l),
(597,84,o),
(610,68.5,q),
(623,53,o),
(647.5,53,q),
(672,53,o),
(707,82,q),
(730,58,l),
(650,-15,o),
(570,-15,q),
(475,-15,o),
(453,74,q),
(401,-15,o),
(300,-15,q),
(185,-15,o),
(125,59.5,q),
(65,134,o),
(65,249.5,q),
(65,365,o),
(129.5,440,q),
(194,515,o),
(310,515,q),
(399,515,o),
(447,444,q),
(447,568,l),
(330,568,l)
);
},
{
closed = 1;
nodes = (
(220,154,o),
(248,98,q),
(276,42,o),
(333.5,42,q),
(391,42,o),
(421.5,98.5,q),
(452,155,o),
(452,250,q),
(452,345,o),
(421.5,401.5,q),
(391,458,o),
(333.5,458,q),
(276,458,o),
(248,402,q),
(220,346,o),
(220,250,q)
);
}
);
width = 710;
}
);
unicode = 273;
},
{
category = Letter;
glyphname = Emacron;
layers = (
{
layerId = "488cb3fc-7928-4381-9d20-07afbe5c7c4e";
name = Fore;
shapes = (
{
closed = 1;
nodes = (
(70,0,l),
(70,40,l),
(130,40,l),
(130,660,l),
(70,660,l),
(70,700,l),
(499,700,l),
(521,700,o),
(531.5,698.5,q),
(542,697,o),
(551,687.5,q),
(560,678,o),
(560,658,q),
(533,490,l),
(494,490,l),
(474,589,l),
(465,634,o),
(440.5,647,q),
(416,660,o),
(350,660,q),
(280,660,l),
(280,318,l),
(510,318,l),
(510,273,l),
(280,273,l),
(280,40,l),
(370,40,l),
(435,40,o),
(459.5,53,q),
(484,66,o),
(494,111,q),
(514,200,l),
(553,200,l),
(580,42,l),
(580,22,o),
(571,12.5,q),
(562,3,o),
(551.5,1.5,q),
(541,0,o),
(519,0,q)
);
},
{
closed = 1;
nodes = (
(482,900,l),
(482,812,l),
(188,812,l),
(188,900,l)
);
}
);
width = 630;
}
);
unicode = 274;
},
{
category = Letter;
glyphname = emacron;
kernLeft = e;
layers = (
{
layerId = "488cb3fc-7928-4381-9d20-07afbe5c7c4e";
name = Fore;
shapes = (
{
closed = 1;
nodes = (
(410,324,o),
(410,368.5,q),
(410,413,o),
(390.5,437,q),
(371,461,o),
(331.5,461,q),
(292,461,o),
(256,405,q),
(220,349,o),
(220,255,q),
(220,161,o),
(254,104,q),
(288,47,o),
(351,47,q),
(447,47,o),
(514,122,q),
(542,104,l),
(508,50,o),
(452,17.5,q),
(396,-15,o),
(326,-15,q),
(207,-15,o),
(136,63.5,q),
(65,142,o),
(65,253,q),
(65,364,o),
(140.5,439.5,q),
(216,515,o),
(350,515,q),
(438,515,o),
(488,474,q),
(538,433,o),
(538,370,q),
(538,307,o),
(482.5,253.5,q),
(427,200,o),
(336,200,q),
(305,200,o),
(276,207,q),
(274,231,l),
(339,237,o),
(374.5,280.5,q)
);
},
{
closed = 1;
nodes = (
(475,700,l),
(475,612,l),
(181,612,l),
(181,700,l)
);
}
);
width = 597;
}
);
unicode = 275;
},
{
category = Letter;
glyphname = Ebreve;
layers = (
{
layerId = "488cb3fc-7928-4381-9d20-07afbe5c7c4e";
name = Fore;
shapes = (
{
closed = 1;
nodes = (
(70,0,l),
(70,40,l),
(130,40,l),
(130,660,l),
(70,660,l),
(70,700,l),
(499,700,l),
(521,700,o),
(531.5,698.5,q),
(542,697,o),
(551,687.5,q),
(560,678,o),
(560,658,q),
(533,490,l),
(494,490,l),
(474,589,l),
(465,634,o),
(440.5,647,q),
(416,660,o),
(350,660,q),
(280,660,l),
(280,318,l),
(510,318,l),
(510,273,l),
(280,273,l),
(280,40,l),
(370,40,l),
(435,40,o),
(459.5,53,q),
(484,66,o),
(494,111,q),
(514,200,l),
(553,200,l),
(580,42,l),
(580,22,o),
(571,12.5,q),
(562,3,o),
(551.5,1.5,q),
(541,0,o),
(519,0,q)
);
},
{
closed = 1;
nodes = (
(314,870,o),
(337.5,870,q),
(361,870,o),
(387.5,888,q),
(414,906,o),
(426,920.5,q),
(438,935,o),
(456,960,q),
(501,931,l),
(451,840,o),
(414,804.5,q),
(377,769,o),
(335,769,q),
(293,769,o),
(256,804.5,q),
(219,840,o),
(169,931,q),
(213,960,l),
(262,893,o),
(295,878,q)
);
}
);
width = 630;
}
);
unicode = 276;
},
{
category = Letter;
glyphname = ebreve;
kernLeft = e;
layers = (
{
layerId = "488cb3fc-7928-4381-9d20-07afbe5c7c4e";
name = Fore;
shapes = (
{
closed = 1;
nodes = (
(410,324,o),
(410,368.5,q),
(410,413,o),
(390.5,437,q),
(371,461,o),
(331.5,461,q),
(292,461,o),
(256,405,q),
(220,349,o),
(220,255,q),
(220,161,o),
(254,104,q),
(288,47,o),
(351,47,q),
(447,47,o),
(514,122,q),
(542,104,l),
(508,50,o),
(452,17.5,q),
(396,-15,o),
(326,-15,q),
(207,-15,o),
(136,63.5,q),
(65,142,o),
(65,253,q),
(65,364,o),
(140.5,439.5,q),
(216,515,o),
(350,515,q),
(438,515,o),
(488,474,q),
(538,433,o),
(538,370,q),
(538,307,o),
(482.5,253.5,q),
(427,200,o),
(336,200,q),
(305,200,o),
(276,207,q),
(274,231,l),
(339,237,o),
(374.5,280.5,q)
);
},
{
closed = 1;
nodes = (
(307,670,o),
(330.5,670,q),
(354,670,o),
(380.5,688,q),
(407,706,o),
(419,720.5,q),
(431,735,o),
(449,760,q),
(494,731,l),
(444,640,o),
(407,604.5,q),
(370,569,o),
(328,569,q),
(286,569,o),
(249,604.5,q),
(212,640,o),
(162,731,q),
(206,760,l),
(255,693,o),
(288,678,q)
);
}
);
width = 597;
}
);
unicode = 277;
},
{
category = Letter;
glyphname = Edotaccent;
layers = (
{
layerId = "488cb3fc-7928-4381-9d20-07afbe5c7c4e";
name = Fore;
shapes = (
{
closed = 1;
nodes = (
(70,0,l),
(70,40,l),
(130,40,l),
(130,660,l),
(70,660,l),
(70,700,l),
(499,700,l),
(521,700,o),
(531.5,698.5,q),
(542,697,o),
(551,687.5,q),
(560,678,o),
(560,658,q),
(533,490,l),
(494,490,l),
(474,589,l),
(465,634,o),
(440.5,647,q),
(416,660,o),
(350,660,q),
(280,660,l),
(280,318,l),
(510,318,l),
(510,273,l),
(280,273,l),
(280,40,l),
(370,40,l),
(435,40,o),
(459.5,53,q),
(484,66,o),
(494,111,q),
(514,200,l),
(553,200,l),
(580,42,l),
(580,22,o),
(571,12.5,q),
(562,3,o),
(551.5,1.5,q),
(541,0,o),
(519,0,q)
);
},
{
closed = 1;
nodes = (
(255,903,o),
(278.5,926.5,q),
(302,950,o),
(335,950,q),
(368,950,o),
(391.5,926.5,q),
(415,903,o),
(415,870,q),
(415,837,o),
(391.5,813.5,q),
(368,790,o),
(335,790,q),
(302,790,o),
(278.5,813.5,q),
(255,837,o),
(255,870,q)
);
}
);
width = 630;
}
);
unicode = 278;
},
{
category = Letter;
glyphname = edotaccent;
kernLeft = e;
layers = (
{
layerId = "488cb3fc-7928-4381-9d20-07afbe5c7c4e";
name = Fore;
shapes = (
{
closed = 1;
nodes = (
(410,324,o),
(410,368.5,q),
(410,413,o),
(390.5,437,q),
(371,461,o),
(331.5,461,q),
(292,461,o),
(256,405,q),
(220,349,o),
(220,255,q),
(220,161,o),
(254,104,q),
(288,47,o),
(351,47,q),
(447,47,o),
(514,122,q),
(542,104,l),
(508,50,o),
(452,17.5,q),
(396,-15,o),
(326,-15,q),
(207,-15,o),
(136,63.5,q),
(65,142,o),
(65,253,q),
(65,364,o),
(140.5,439.5,q),
(216,515,o),
(350,515,q),
(438,515,o),
(488,474,q),
(538,433,o),
(538,370,q),
(538,307,o),
(482.5,253.5,q),
(427,200,o),
(336,200,q),
(305,200,o),
(276,207,q),
(274,231,l),
(339,237,o),
(374.5,280.5,q)
);
},
{
closed = 1;
nodes = (
(248,703,o),
(271.5,726.5,q),
(295,750,o),
(328,750,q),
(361,750,o),
(384.5,726.5,q),
(408,703,o),
(408,670,q),
(408,637,o),
(384.5,613.5,q),
(361,590,o),
(328,590,q),
(295,590,o),
(271.5,613.5,q),
(248,637,o),
(248,670,q)
);
}
);
width = 597;
}
);
unicode = 279;
},
{
category = Letter;
glyphname = Eogonek;
layers = (
{
layerId = "488cb3fc-7928-4381-9d20-07afbe5c7c4e";
name = Fore;
shapes = (
{
closed = 1;
nodes = (
(508,0,l),
(500,-8,l),
(462,-46,o),
(450,-70.5,q),
(438,-95,o),
(438,-122.5,q),
(438,-150,o),
(454.5,-164.5,q),
(471,-179,o),
(502,-179,q),
(533,-179,o),
(563,-151,q),
(580,-180,l),
(532,-238,o),
(456,-238,q),
(409,-238,o),
(378,-214.5,q),
(347,-191,o),
(347,-149.5,q),
(347,-108,o),
(367.5,-79.5,q),
(388,-51,o),
(424,-21,q),
(449,0,l),
(70,0,l),
(70,40,l),
(130,40,l),
(130,660,l),
(70,660,l),
(70,700,l),
(499,700,l),
(521,700,o),
(531.5,698.5,q),
(542,697,o),
(551,687.5,q),
(560,678,o),
(560,658,q),
(533,490,l),
(494,490,l),
(474,589,l),
(465,634,o),
(440.5,647,q),
(416,660,o),
(350,660,q),
(280,660,l),
(280,318,l),
(510,318,l),
(510,273,l),
(280,273,l),
(280,40,l),
(370,40,l),
(435,40,o),
(459.5,53,q),
(484,66,o),
(494,111,q),
(514,200,l),
(553,200,l),
(580,42,l),
(580,22,o),
(571,12.5,q),
(562,3,o),
(551.5,1.5,q),
(541,0,o),
(519,0,q)
);
}
);
width = 630;
}
);
unicode = 280;
},
{
category = Letter;
glyphname = eogonek;
kernLeft = e;
layers = (
{
layerId = "488cb3fc-7928-4381-9d20-07afbe5c7c4e";
name = Fore;
shapes = (
{
closed = 1;
nodes = (
(410,324,o),
(410,368.5,q),
(410,413,o),
(390.5,437,q),
(371,461,o),
(331.5,461,q),
(292,461,o),
(256,405,q),
(220,349,o),
(220,255,q),
(220,161,o),
(254,104,q),
(288,47,o),
(351,47,q),
(447,47,o),
(514,122,q),
(542,104,l),
(524,76,o),
(499,52,q),
(439,-8,l),
(401,-46,o),
(389,-70.5,q),
(377,-95,o),
(377,-122.5,q),
(377,-150,o),
(393.5,-164.5,q),
(410,-179,o),
(441,-179,q),
(472,-179,o),
(502,-151,q),
(519,-180,l),
(471,-238,o),
(395,-238,q),
(348,-238,o),
(317,-214.5,q),
(286,-191,o),
(286,-149.5,q),
(286,-108,o),
(306.5,-79.5,q),
(327,-51,o),
(363,-21,q),
(376,-10,l),
(349,-15,o),
(326,-15,q),
(207,-15,o),
(136,63.5,q),
(65,142,o),
(65,253,q),
(65,364,o),
(140.5,439.5,q),
(216,515,o),
(350,515,q),
(438,515,o),
(488,474,q),
(538,433,o),
(538,370,q),
(538,307,o),
(482.5,253.5,q),
(427,200,o),
(336,200,q),
(305,200,o),
(276,207,q),
(274,231,l),
(339,237,o),
(374.5,280.5,q)
);
}
);
width = 597;
}
);
unicode = 281;
},
{
category = Letter;
glyphname = Ecaron;
layers = (
{
layerId = "488cb3fc-7928-4381-9d20-07afbe5c7c4e";
name = Fore;
shapes = (
{
closed = 1;
nodes = (
(70,0,l),
(70,40,l),
(130,40,l),
(130,660,l),
(70,660,l),
(70,700,l),
(499,700,l),
(521,700,o),
(531.5,698.5,q),
(542,697,o),
(551,687.5,q),
(560,678,o),
(560,658,q),
(533,490,l),
(494,490,l),
(474,589,l),
(465,634,o),
(440.5,647,q),
(416,660,o),
(350,660,q),
(280,660,l),
(280,318,l),
(510,318,l),
(510,273,l),
(280,273,l),
(280,40,l),
(370,40,l),
(435,40,o),
(459.5,53,q),
(484,66,o),
(494,111,q),
(514,200,l),
(553,200,l),
(580,42,l),
(580,22,o),
(571,12.5,q),
(562,3,o),
(551.5,1.5,q),
(541,0,o),
(519,0,q)
);
},
{
closed = 1;
nodes = (
(305,759,o),
(277,797,q),
(169,941,l),
(190,965,l),
(331,870,l),
(339,870,l),
(480,965,l),
(501,941,l),
(393,797,l),
(365,759,o),
(335,759,q)
);
}
);
width = 630;
}
);
unicode = 282;
},
{
category = Letter;
glyphname = ecaron;
kernLeft = e;
layers = (
{
layerId = "488cb3fc-7928-4381-9d20-07afbe5c7c4e";
name = Fore;
shapes = (
{
closed = 1;
nodes = (
(410,324,o),
(410,368.5,q),
(410,413,o),
(390.5,437,q),
(371,461,o),
(331.5,461,q),
(292,461,o),
(256,405,q),
(220,349,o),
(220,255,q),
(220,161,o),
(254,104,q),
(288,47,o),
(351,47,q),
(447,47,o),
(514,122,q),
(542,104,l),
(508,50,o),
(452,17.5,q),
(396,-15,o),
(326,-15,q),
(207,-15,o),
(136,63.5,q),
(65,142,o),
(65,253,q),
(65,364,o),
(140.5,439.5,q),
(216,515,o),
(350,515,q),
(438,515,o),
(488,474,q),
(538,433,o),
(538,370,q),
(538,307,o),
(482.5,253.5,q),
(427,200,o),
(336,200,q),
(305,200,o),
(276,207,q),
(274,231,l),
(339,237,o),
(374.5,280.5,q)
);
},
{
closed = 1;
nodes = (
(298,559,o),
(270,597,q),
(162,741,l),
(183,765,l),
(324,670,l),
(332,670,l),
(473,765,l),
(494,741,l),
(386,597,l),
(358,559,o),
(328,559,q)
);
}
);
width = 597;
}
);
unicode = 283;
},
{
category = Letter;
glyphname = Gcircumflex;
layers = (
{
layerId = "488cb3fc-7928-4381-9d20-07afbe5c7c4e";
name = Fore;
shapes = (
{
closed = 1;
nodes = (
(350,318,l),
(635,318,l),
(635,-22,l),
(635,-132,o),
(569,-184.5,q),
(503,-237,o),
(391,-237,q),
(325,-237,o),
(264.5,-203.5,q),
(204,-170,o),
(204,-112,q),
(204,-101,o),
(211,-80,q),
(245,8,l),
(157,47,o),
(103.5,140,q),
(50,233,o),
(50,349,q),
(50,507,o),
(140.5,611,q),
(231,715,o),
(392,715,q),
(473,715,o),
(548,683,q),
(623,651,o),
(623,607,q),
(623,590,o),
(612,568,q),
(556,476,l),
(520,488,l),
(525,525,l),
(529,549,o),
(529,571,q),
(529,610,o),
(491,639,q),
(453,668,o),
(392,668,q),
(300,668,o),
(252.5,578.5,q),
(205,489,o),
(205,354.5,q),
(205,220,o),
(256.5,135.5,q),
(308,51,o),
(407,51,q),
(447,51,o),
(485,67,q),
(485,273,l),
(350,273,l)
);
},
{
closed = 1;
nodes = (
(320,-15,o),
(288,-6,q),
(288,-37,l),
(288,-151,o),
(336,-178,q),
(358,-190,o),
(396.5,-190,q),
(435,-190,o),
(460,-162.5,q),
(485,-135,o),
(485,-80,q),
(485,11,l),
(425,-15,o),
(355,-15,q)
);
},
{
closed = 1;
nodes = (
(410,965,o),
(438,927,q),
(546,783,l),
(525,759,l),
(384,854,l),
(376,854,l),
(235,759,l),
(214,783,l),
(322,927,l),
(350,965,o),
(380,965,q)
);
}
);
width = 700;
}
);
unicode = 284;
},
{
category = Letter;
glyphname = gcircumflex;
kernLeft = g;
layers = (
{
layerId = "488cb3fc-7928-4381-9d20-07afbe5c7c4e";
name = Fore;
shapes = (
{
closed = 1;
nodes = (
(234,-132,l),
(87,-132,o),
(87,-9,q),
(87,58,o),
(161,142,q),
(80,201,o),
(80,305,q),
(80,394,o),
(145,454.5,q),
(210,515,o),
(315,515,q),
(391,515,o),
(450,480,q),
(493,519,o),
(509,582,q),
(548,572,l),
(530,502,o),
(482,456,q),
(550,394,o),
(550,305,q),
(550,216,o),
(485,155.5,q),
(420,95,o),
(315,95,q),
(243,95,o),
(190,124,q),
(155,75,o),
(155,50,q),
(155,0,o),
(213,0,q),
(398,0,l),
(545,0,o),
(545,-108,q),
(545,-185,o),
(472,-265,q),
(448,-242,l),
(477,-207,o),
(477,-182.5,q),
(477,-158,o),
(461.5,-145,q),
(446,-132,o),
(419,-132,q)
);
},
{
closed = 1;
nodes = (
(235,231,o),
(255.5,184,q),
(276,137,o),
(316,137,q),
(356,137,o),
(376.5,184,q),
(397,231,o),
(397,305,q),
(397,379,o),
(376.5,426,q),
(356,473,o),
(316,473,q),
(276,473,o),
(255.5,426,q),
(235,379,o),
(235,305,q)
);
},
{
closed = 1;
nodes = (
(350,765,o),
(378,727,q),
(486,583,l),
(465,559,l),
(324,654,l),
(316,654,l),
(175,559,l),
(154,583,l),
(262,727,l),
(290,765,o),
(320,765,q)
);
}
);
width = 620;
}
);
unicode = 285;
},
{
category = Letter;
glyphname = Gbreve;
layers = (
{
layerId = "488cb3fc-7928-4381-9d20-07afbe5c7c4e";
name = Fore;
shapes = (
{
closed = 1;
nodes = (
(350,318,l),
(635,318,l),
(635,-22,l),
(635,-132,o),
(569,-184.5,q),
(503,-237,o),
(391,-237,q),
(325,-237,o),
(264.5,-203.5,q),
(204,-170,o),
(204,-112,q),
(204,-101,o),
(211,-80,q),
(245,8,l),
(157,47,o),
(103.5,140,q),
(50,233,o),
(50,349,q),
(50,507,o),
(140.5,611,q),
(231,715,o),
(392,715,q),
(473,715,o),
(548,683,q),
(623,651,o),
(623,607,q),
(623,590,o),
(612,568,q),
(556,476,l),
(520,488,l),
(525,525,l),
(529,549,o),
(529,571,q),
(529,610,o),
(491,639,q),
(453,668,o),
(392,668,q),
(300,668,o),
(252.5,578.5,q),
(205,489,o),
(205,354.5,q),
(205,220,o),
(256.5,135.5,q),
(308,51,o),
(407,51,q),
(447,51,o),
(485,67,q),
(485,273,l),
(350,273,l)
);
},
{
closed = 1;
nodes = (
(320,-15,o),
(288,-6,q),
(288,-37,l),
(288,-151,o),
(336,-178,q),
(358,-190,o),
(396.5,-190,q),
(435,-190,o),
(460,-162.5,q),
(485,-135,o),
(485,-80,q),
(485,11,l),
(425,-15,o),
(355,-15,q)
);
},
{
closed = 1;
nodes = (
(359,870,o),
(382.5,870,q),
(406,870,o),
(432.5,888,q),
(459,906,o),
(471,920.5,q),
(483,935,o),
(501,960,q),
(546,931,l),
(496,840,o),
(459,804.5,q),
(422,769,o),
(380,769,q),
(338,769,o),
(301,804.5,q),
(264,840,o),
(214,931,q),
(258,960,l),
(307,893,o),
(340,878,q)
);
}
);
width = 700;
}
);
unicode = 286;
},
{
category = Letter;
glyphname = gbreve;
kernLeft = g;
layers = (
{
layerId = "488cb3fc-7928-4381-9d20-07afbe5c7c4e";
name = Fore;
shapes = (
{
closed = 1;
nodes = (
(234,-132,l),
(87,-132,o),
(87,-9,q),
(87,58,o),
(161,142,q),
(80,201,o),
(80,305,q),
(80,394,o),
(145,454.5,q),
(210,515,o),
(315,515,q),
(391,515,o),
(450,480,q),
(493,519,o),
(509,582,q),
(548,572,l),
(530,502,o),
(482,456,q),
(550,394,o),
(550,305,q),
(550,216,o),
(485,155.5,q),
(420,95,o),
(315,95,q),
(243,95,o),
(190,124,q),
(155,75,o),
(155,50,q),
(155,0,o),
(213,0,q),
(398,0,l),
(545,0,o),
(545,-108,q),
(545,-185,o),
(472,-265,q),
(448,-242,l),
(477,-207,o),
(477,-182.5,q),
(477,-158,o),
(461.5,-145,q),
(446,-132,o),
(419,-132,q)
);
},
{
closed = 1;
nodes = (
(235,231,o),
(255.5,184,q),
(276,137,o),
(316,137,q),
(356,137,o),
(376.5,184,q),
(397,231,o),
(397,305,q),
(397,379,o),
(376.5,426,q),
(356,473,o),
(316,473,q),
(276,473,o),
(255.5,426,q),
(235,379,o),
(235,305,q)
);
},
{
closed = 1;
nodes = (
(299,670,o),
(322.5,670,q),
(346,670,o),
(372.5,688,q),
(399,706,o),
(411,720.5,q),
(423,735,o),
(441,760,q),
(486,731,l),
(436,640,o),
(399,604.5,q),
(362,569,o),
(320,569,q),
(278,569,o),
(241,604.5,q),
(204,640,o),
(154,731,q),
(198,760,l),
(247,693,o),
(280,678,q)
);
}
);
width = 620;
}
);
unicode = 287;
},
{
category = Letter;
glyphname = Gdotaccent;
layers = (
{
layerId = "488cb3fc-7928-4381-9d20-07afbe5c7c4e";
name = Fore;
shapes = (
{
closed = 1;
nodes = (
(350,318,l),
(635,318,l),
(635,-22,l),
(635,-132,o),
(569,-184.5,q),
(503,-237,o),
(391,-237,q),
(325,-237,o),
(264.5,-203.5,q),
(204,-170,o),
(204,-112,q),
(204,-101,o),
(211,-80,q),
(245,8,l),
(157,47,o),
(103.5,140,q),
(50,233,o),
(50,349,q),
(50,507,o),
(140.5,611,q),
(231,715,o),
(392,715,q),
(473,715,o),
(548,683,q),
(623,651,o),
(623,607,q),
(623,590,o),
(612,568,q),
(556,476,l),
(520,488,l),
(525,525,l),
(529,549,o),
(529,571,q),
(529,610,o),
(491,639,q),
(453,668,o),
(392,668,q),
(300,668,o),
(252.5,578.5,q),
(205,489,o),
(205,354.5,q),
(205,220,o),
(256.5,135.5,q),
(308,51,o),
(407,51,q),
(447,51,o),
(485,67,q),
(485,273,l),
(350,273,l)
);
},
{
closed = 1;
nodes = (
(320,-15,o),
(288,-6,q),
(288,-37,l),
(288,-151,o),
(336,-178,q),
(358,-190,o),
(396.5,-190,q),
(435,-190,o),
(460,-162.5,q),
(485,-135,o),
(485,-80,q),
(485,11,l),
(425,-15,o),
(355,-15,q)
);
},
{
closed = 1;
nodes = (
(300,903,o),
(323.5,926.5,q),
(347,950,o),
(380,950,q),
(413,950,o),
(436.5,926.5,q),
(460,903,o),
(460,870,q),
(460,837,o),
(436.5,813.5,q),
(413,790,o),
(380,790,q),
(347,790,o),
(323.5,813.5,q),
(300,837,o),
(300,870,q)
);
}
);
width = 700;
}
);
unicode = 288;
},
{
category = Letter;
glyphname = gdotaccent;
kernLeft = g;
layers = (
{
layerId = "488cb3fc-7928-4381-9d20-07afbe5c7c4e";
name = Fore;
shapes = (
{
closed = 1;
nodes = (
(234,-132,l),
(87,-132,o),
(87,-9,q),
(87,58,o),
(161,142,q),
(80,201,o),
(80,305,q),
(80,394,o),
(145,454.5,q),
(210,515,o),
(315,515,q),
(391,515,o),
(450,480,q),
(493,519,o),
(509,582,q),
(548,572,l),
(530,502,o),
(482,456,q),
(550,394,o),
(550,305,q),
(550,216,o),
(485,155.5,q),
(420,95,o),
(315,95,q),
(243,95,o),
(190,124,q),
(155,75,o),
(155,50,q),
(155,0,o),
(213,0,q),
(398,0,l),
(545,0,o),
(545,-108,q),
(545,-185,o),
(472,-265,q),
(448,-242,l),
(477,-207,o),
(477,-182.5,q),
(477,-158,o),
(461.5,-145,q),
(446,-132,o),
(419,-132,q)
);
},
{
closed = 1;
nodes = (
(235,231,o),
(255.5,184,q),
(276,137,o),
(316,137,q),
(356,137,o),
(376.5,184,q),
(397,231,o),
(397,305,q),
(397,379,o),
(376.5,426,q),
(356,473,o),
(316,473,q),
(276,473,o),
(255.5,426,q),
(235,379,o),
(235,305,q)
);
},
{
closed = 1;
nodes = (
(240,703,o),
(263.5,726.5,q),
(287,750,o),
(320,750,q),
(353,750,o),
(376.5,726.5,q),
(400,703,o),
(400,670,q),
(400,637,o),
(376.5,613.5,q),
(353,590,o),
(320,590,q),
(287,590,o),
(263.5,613.5,q),
(240,637,o),
(240,670,q)
);
}
);
width = 620;
}
);
unicode = 289;
},
{
category = Letter;
glyphname = uni0122;
layers = (
{
layerId = "488cb3fc-7928-4381-9d20-07afbe5c7c4e";
name = Fore;
shapes = (
{
closed = 1;
nodes = (
(350,318,l),
(635,318,l),
(635,0,l),
(580,0,l),
(544,49,l),
(469,-15,o),
(355,-15,q),
(225,-15,o),
(137.5,91,q),
(50,197,o),
(50,352,q),
(50,507,o),
(140.5,611,q),
(231,715,o),
(392,715,q),
(473,715,o),
(548,683,q),
(623,651,o),
(623,607,q),
(623,590,o),
(612,568,q),
(556,476,l),
(520,488,l),
(525,525,l),
(529,549,o),
(529,571,q),
(529,610,o),
(491,639,q),
(453,668,o),
(392,668,q),
(300,668,o),
(252.5,578.5,q),
(205,489,o),
(205,354.5,q),
(205,220,o),
(256.5,135.5,q),
(308,51,o),
(407,51,q),
(447,51,o),
(485,67,q),
(485,273,l),
(350,273,l)
);
},
{
closed = 1;
nodes = (
(283,-150,o),
(283,-121.5,q),
(283,-93,o),
(302.5,-73.5,q),
(322,-54,o),
(350.5,-54,q),
(379,-54,o),
(398,-76,q),
(417,-98,o),
(417,-143,q),
(417,-188,o),
(389.5,-243.5,q),
(362,-299,o),
(312,-344,q),
(290,-322,l),
(334,-271,o),
(334,-232,q),
(334,-209,o),
(308.5,-179.5,q)
);
}
);
width = 700;
}
);
unicode = 290;
},
{
category = Letter;
glyphname = uni0123;
kernLeft = g;
layers = (
{
layerId = "488cb3fc-7928-4381-9d20-07afbe5c7c4e";
name = Fore;
shapes = (
{
closed = 1;
nodes = (
(234,-132,l),
(87,-132,o),
(87,-9,q),
(87,58,o),
(161,142,q),
(80,201,o),
(80,305,q),
(80,394,o),
(145,454.5,q),
(210,515,o),
(315,515,q),
(391,515,o),
(450,480,q),
(493,519,o),
(509,582,q),
(548,572,l),
(530,502,o),
(482,456,q),
(550,394,o),
(550,305,q),
(550,216,o),
(485,155.5,q),
(420,95,o),
(315,95,q),
(243,95,o),
(190,124,q),
(155,75,o),
(155,50,q),
(155,0,o),
(213,0,q),
(398,0,l),
(545,0,o),
(545,-108,q),
(545,-185,o),
(472,-265,q),
(448,-242,l),
(477,-207,o),
(477,-182.5,q),
(477,-158,o),
(461.5,-145,q),
(446,-132,o),
(419,-132,q)
);
},
{
closed = 1;
nodes = (
(235,231,o),
(255.5,184,q),
(276,137,o),
(316,137,q),
(356,137,o),
(376.5,184,q),
(397,231,o),
(397,305,q),
(397,379,o),
(376.5,426,q),
(356,473,o),
(316,473,q),
(276,473,o),
(255.5,426,q),
(235,379,o),
(235,305,q)
);
},
{
closed = 1;
nodes = (
(377,678,o),
(377,649.5,q),
(377,621,o),
(357.5,601.5,q),
(338,582,o),
(309.5,582,q),
(281,582,o),
(262,604,q),
(243,626,o),
(243,671,q),
(243,716,o),
(270.5,771.5,q),
(298,827,o),
(348,872,q),
(370,850,l),
(326,799,o),
(326,760,q),
(326,737,o),
(351.5,707.5,q)
);
}
);
width = 620;
}
);
unicode = 291;
},
{
category = Letter;
glyphname = Hcircumflex;
layers = (
{
layerId = "488cb3fc-7928-4381-9d20-07afbe5c7c4e";
name = Fore;
shapes = (
{
closed = 1;
nodes = (
(680,40,l),
(740,40,l),
(740,0,l),
(470,0,l),
(470,40,l),
(530,40,l),
(530,273,l),
(280,273,l),
(280,40,l),
(340,40,l),
(340,0,l),
(70,0,l),
(70,40,l),
(130,40,l),
(130,660,l),
(70,660,l),
(70,700,l),
(340,700,l),
(340,660,l),
(280,660,l),
(280,318,l),
(530,318,l),
(530,660,l),
(470,660,l),
(470,700,l),
(740,700,l),
(740,660,l),
(680,660,l)
);
},
{
closed = 1;
nodes = (
(435,965,o),
(463,927,q),
(571,783,l),
(550,759,l),
(409,854,l),
(401,854,l),
(260,759,l),
(239,783,l),
(347,927,l),
(375,965,o),
(405,965,q)
);
}
);
width = 810;
}
);
unicode = 292;
},
{
category = Letter;
glyphname = hcircumflex;
layers = (
{
layerId = "488cb3fc-7928-4381-9d20-07afbe5c7c4e";
name = Fore;
shapes = (
{
closed = 1;
nodes = (
(261,447,l),
(296,485,o),
(336.5,500,q),
(377,515,o),
(439.5,515,q),
(502,515,o),
(541.5,475.5,q),
(581,436,o),
(581,368,q),
(581,111,l),
(581,84,o),
(594,68.5,q),
(607,53,o),
(634,53,q),
(661,53,o),
(696,82,q),
(714,58,l),
(634,-15,o),
(554,-15,q),
(431,-15,o),
(431,132,q),
(431,389,l),
(431,420,o),
(412,437,q),
(393,454,o),
(359,454,q),
(325,454,o),
(293,426,q),
(261,398,o),
(261,353,q),
(261,0,l),
(111,0,l),
(111,717,l),
(56,703,o),
(27,668,q),
(0,699,l),
(29,729,o),
(73.5,747,q),
(118,765,o),
(161.5,765,q),
(205,765,o),
(233,747.5,q),
(261,730,o),
(261,704,q)
);
},
{
closed = 1;
nodes = (
(215,995,o),
(243,957,q),
(351,813,l),
(330,789,l),
(189,884,l),
(181,884,l),
(40,789,l),
(19,813,l),
(127,957,l),
(155,995,o),
(185,995,q)
);
}
);
width = 694;
}
);
unicode = 293;
},
{
category = Letter;
glyphname = Hbar;
layers = (
{
layerId = "488cb3fc-7928-4381-9d20-07afbe5c7c4e";
name = Fore;
shapes = (
{
closed = 1;
nodes = (
(25,500,l),
(130,500,l),
(130,660,l),
(70,660,l),
(70,700,l),
(340,700,l),
(340,660,l),
(280,660,l),
(280,500,l),
(530,500,l),
(530,660,l),
(470,660,l),
(470,700,l),
(740,700,l),
(740,660,l),
(680,660,l),
(680,500,l),
(775,500,l),
(775,455,l),
(680,455,l),
(680,40,l),
(740,40,l),
(740,0,l),
(470,0,l),
(470,40,l),
(530,40,l),
(530,273,l),
(280,273,l),
(280,40,l),
(340,40,l),
(340,0,l),
(70,0,l),
(70,40,l),
(130,40,l),
(130,455,l),
(25,455,l)
);
},
{
closed = 1;
nodes = (
(530,318,l),
(530,455,l),
(280,455,l),
(280,318,l)
);
}
);
width = 810;
}
);
unicode = 294;
},
{
category = Letter;
glyphname = hbar;
layers = (
{
layerId = "488cb3fc-7928-4381-9d20-07afbe5c7c4e";
name = Fore;
shapes = (
{
closed = 1;
nodes = (
(1,613,l),
(111,613,l),
(111,717,l),
(56,703,o),
(27,668,q),
(0,699,l),
(29,729,o),
(73.5,747,q),
(118,765,o),
(161.5,765,q),
(205,765,o),
(233,747.5,q),
(261,730,o),
(261,704,q),
(261,613,l),
(381,613,l),
(381,568,l),
(261,568,l),
(261,447,l),
(296,485,o),
(336.5,500,q),
(377,515,o),
(439.5,515,q),
(502,515,o),
(541.5,475.5,q),
(581,436,o),
(581,368,q),
(581,111,l),
(581,84,o),
(594,68.5,q),
(607,53,o),
(634,53,q),
(661,53,o),
(696,82,q),
(714,58,l),
(634,-15,o),
(554,-15,q),
(431,-15,o),
(431,132,q),
(431,389,l),
(431,420,o),
(412,437,q),
(393,454,o),
(359,454,q),
(325,454,o),
(293,426,q),
(261,398,o),
(261,353,q),
(261,0,l),
(111,0,l),
(111,568,l),
(1,568,l)
);
}
);
width = 694;
}
);
unicode = 295;
},
{
category = Letter;
glyphname = Itilde;
layers = (
{
layerId = "488cb3fc-7928-4381-9d20-07afbe5c7c4e";
name = Fore;
shapes = (
{
closed = 1;
nodes = (
(60,700,l),
(350,700,l),
(350,660,l),
(280,660,l),
(280,40,l),
(350,40,l),
(350,0,l),
(60,0,l),
(60,40,l),
(130,40,l),
(130,660,l),
(60,660,l)
);
},
{
closed = 1;
nodes = (
(318,824,l),
(318,863,o),
(290,863,q),
(278,863,o),
(267,856,q),
(182,808,l),
(150,789,o),
(122,789,q),
(94,789,o),
(71.5,815,q),
(49,841,o),
(49,875.5,q),
(49,910,o),
(57,942,q),
(93,942,l),
(93,927,l),
(93,888,o),
(121,888,q),
(133,888,o),
(144,895,q),
(229,943,l),
(261,962,o),
(289,962,q),
(317,962,o),
(339.5,936,q),
(362,910,o),
(362,875.5,q),
(362,841,o),
(354,809,q),
(318,809,l)
);
}
);
width = 410;
}
);
unicode = 296;
},
{
category = Letter;
glyphname = itilde;
layers = (
{
layerId = "488cb3fc-7928-4381-9d20-07afbe5c7c4e";
name = Fore;
shapes = (
{
closed = 1;
nodes = (
(286,515,o),
(286,434,q),
(286,111,l),
(286,84,o),
(299,68.5,q),
(312,53,o),
(339,53,q),
(366,53,o),
(401,82,q),
(419,58,l),
(339,-15,o),
(259,-15,q),
(136,-15,o),
(136,132,q),
(136,467,l),
(81,453,o),
(52,418,q),
(25,449,l),
(54,479,o),
(98.5,497,q),
(143,515,o),
(192,515,q)
);
},
{
closed = 1;
nodes = (
(312,624,l),
(312,663,o),
(284,663,q),
(272,663,o),
(261,656,q),
(176,608,l),
(144,589,o),
(116,589,q),
(88,589,o),
(65.5,615,q),
(43,641,o),
(43,675.5,q),
(43,710,o),
(51,742,q),
(87,742,l),
(87,727,l),
(87,688,o),
(115,688,q),
(127,688,o),
(138,695,q),
(223,743,l),
(255,762,o),
(283,762,q),
(311,762,o),
(333.5,736,q),
(356,710,o),
(356,675.5,q),
(356,641,o),
(348,609,q),
(312,609,l)
);
}
);
width = 399;
}
);
unicode = 297;
},
{
category = Letter;
glyphname = Imacron;
layers = (
{
layerId = "488cb3fc-7928-4381-9d20-07afbe5c7c4e";
name = Fore;
shapes = (
{
closed = 1;
nodes = (
(60,700,l),
(350,700,l),
(350,660,l),
(280,660,l),
(280,40,l),
(350,40,l),
(350,0,l),
(60,0,l),
(60,40,l),
(130,40,l),
(130,660,l),
(60,660,l)
);
},
{
closed = 1;
nodes = (
(352,900,l),
(352,812,l),
(58,812,l),
(58,900,l)
);
}
);
width = 410;
}
);
unicode = 298;
},
{
category = Letter;
glyphname = imacron;
layers = (
{
layerId = "488cb3fc-7928-4381-9d20-07afbe5c7c4e";
name = Fore;
shapes = (
{
closed = 1;
nodes = (
(286,515,o),
(286,434,q),
(286,111,l),
(286,84,o),
(299,68.5,q),
(312,53,o),
(339,53,q),
(366,53,o),
(401,82,q),
(419,58,l),
(339,-15,o),
(259,-15,q),
(136,-15,o),
(136,132,q),
(136,467,l),
(81,453,o),
(52,418,q),
(25,449,l),
(54,479,o),
(98.5,497,q),
(143,515,o),
(192,515,q)
);
},
{
closed = 1;
nodes = (
(319,700,l),
(319,612,l),
(25,612,l),
(25,700,l)
);
}
);
width = 246;
}
);
unicode = 299;
},
{
category = Letter;
glyphname = Ibreve;
layers = (
{
layerId = "488cb3fc-7928-4381-9d20-07afbe5c7c4e";
name = Fore;
shapes = (
{
closed = 1;
nodes = (
(60,700,l),
(350,700,l),
(350,660,l),
(280,660,l),
(280,40,l),
(350,40,l),
(350,0,l),
(60,0,l),
(60,40,l),
(130,40,l),
(130,660,l),
(60,660,l)
);
},
{
closed = 1;
nodes = (
(184,870,o),
(207.5,870,q),
(231,870,o),
(257.5,888,q),
(284,906,o),
(296,920.5,q),
(308,935,o),
(326,960,q),
(371,931,l),
(321,840,o),
(284,804.5,q),
(247,769,o),
(205,769,q),
(163,769,o),
(126,804.5,q),
(89,840,o),
(39,931,q),
(83,960,l),
(132,893,o),
(165,878,q)
);
}
);
width = 410;
}
);
unicode = 300;
},
{
category = Letter;
glyphname = ibreve;
layers = (
{
layerId = "488cb3fc-7928-4381-9d20-07afbe5c7c4e";
name = Fore;
shapes = (
{
closed = 1;
nodes = (
(286,515,o),
(286,434,q),
(286,111,l),
(286,84,o),
(299,68.5,q),
(312,53,o),
(339,53,q),
(366,53,o),
(401,82,q),
(419,58,l),
(339,-15,o),
(259,-15,q),
(136,-15,o),
(136,132,q),
(136,467,l),
(81,453,o),
(52,418,q),
(25,449,l),
(54,479,o),
(98.5,497,q),
(143,515,o),
(192,515,q)
);
},
{
closed = 1;
nodes = (
(178,670,o),
(201.5,670,q),
(225,670,o),
(251.5,688,q),
(278,706,o),
(290,720.5,q),
(302,735,o),
(320,760,q),
(365,731,l),
(315,640,o),
(278,604.5,q),
(241,569,o),
(199,569,q),
(157,569,o),
(120,604.5,q),
(83,640,o),
(33,731,q),
(77,760,l),
(126,693,o),
(159,678,q)
);
}
);
width = 399;
}
);
unicode = 301;
},
{
category = Letter;
glyphname = Iogonek;
layers = (
{
layerId = "488cb3fc-7928-4381-9d20-07afbe5c7c4e";
name = Fore;
shapes = (
{
closed = 1;
nodes = (
(60,40,l),
(130,40,l),
(130,660,l),
(60,660,l),
(60,700,l),
(350,700,l),
(350,660,l),
(280,660,l),
(280,40,l),
(350,40,l),
(350,0,l),
(261,0,l),
(253,-8,l),
(215,-46,o),
(203,-70.5,q),
(191,-95,o),
(191,-122.5,q),
(191,-150,o),
(207.5,-164.5,q),
(224,-179,o),
(255,-179,q),
(286,-179,o),
(316,-151,q),
(333,-180,l),
(285,-238,o),
(209,-238,q),
(162,-238,o),
(131,-214.5,q),
(100,-191,o),
(100,-143,q),
(100,-119,o),
(115,-94.5,q),
(130,-70,o),
(145,-56.5,q),
(160,-43,o),
(187,-21,q),
(213,0,l),
(60,0,l)
);
}
);
width = 410;
}
);
unicode = 302;
},
{
category = Letter;
glyphname = iogonek;
layers = (
{
layerId = "488cb3fc-7928-4381-9d20-07afbe5c7c4e";
name = Fore;
shapes = (
{
closed = 1;
nodes = (
(286,515,o),
(286,434,q),
(286,111,l),
(286,84,o),
(299,68.5,q),
(312,53,o),
(339,53,q),
(366,53,o),
(401,82,q),
(419,58,l),
(353,-8,l),
(315,-46,o),
(303,-70.5,q),
(291,-95,o),
(291,-122.5,q),
(291,-150,o),
(307.5,-164.5,q),
(324,-179,o),
(355,-179,q),
(386,-179,o),
(416,-151,q),
(433,-180,l),
(385,-238,o),
(309,-238,q),
(262,-238,o),
(231,-214.5,q),
(200,-191,o),
(200,-149.5,q),
(200,-108,o),
(220.5,-79.5,q),
(241,-51,o),
(277,-21,q),
(286,-13,l),
(268,-15,o),
(259,-15,q),
(136,-15,o),
(136,132,q),
(136,467,l),
(81,453,o),
(52,418,q),
(25,449,l),
(54,479,o),
(98.5,497,q),
(143,515,o),
(192,515,q)
);
},
{
closed = 1;
nodes = (
(131,703,o),
(154.5,726.5,q),
(178,750,o),
(211,750,q),
(244,750,o),
(267.5,726.5,q),
(291,703,o),
(291,670,q),
(291,637,o),
(267.5,613.5,q),
(244,590,o),
(211,590,q),
(178,590,o),
(154.5,613.5,q),
(131,637,o),
(131,670,q)
);
}
);
width = 399;
}
);
unicode = 303;
},
{
category = Letter;
glyphname = Idotaccent;
layers = (
{
layerId = "488cb3fc-7928-4381-9d20-07afbe5c7c4e";
name = Fore;
shapes = (
{
closed = 1;
nodes = (
(60,700,l),
(350,700,l),
(350,660,l),
(280,660,l),
(280,40,l),
(350,40,l),
(350,0,l),
(60,0,l),
(60,40,l),
(130,40,l),
(130,660,l),
(60,660,l)
);
},
{
closed = 1;
nodes = (
(125,903,o),
(148.5,926.5,q),
(172,950,o),
(205,950,q),
(238,950,o),
(261.5,926.5,q),
(285,903,o),
(285,870,q),
(285,837,o),
(261.5,813.5,q),
(238,790,o),
(205,790,q),
(172,790,o),
(148.5,813.5,q),
(125,837,o),
(125,870,q)
);
}
);
width = 410;
}
);
unicode = 304;
},
{
category = Letter;
glyphname = dotlessi;
layers = (
{
layerId = "488cb3fc-7928-4381-9d20-07afbe5c7c4e";
name = Fore;
shapes = (
{
closed = 1;
nodes = (
(286,515,o),
(286,434,q),
(286,111,l),
(286,84,o),
(299,68.5,q),
(312,53,o),
(339,53,q),
(366,53,o),
(401,82,q),
(419,58,l),
(339,-15,o),
(259,-15,q),
(136,-15,o),
(136,132,q),
(136,467,l),
(81,453,o),
(52,418,q),
(25,449,l),
(54,479,o),
(98.5,497,q),
(143,515,o),
(192,515,q)
);
}
);
width = 399;
}
);
unicode = 305;
},
{
category = Letter;
glyphname = IJ;
layers = (
{
layerId = "488cb3fc-7928-4381-9d20-07afbe5c7c4e";
name = Fore;
shapes = (
{
closed = 1;
nodes = (
(60,700,l),
(350,700,l),
(350,660,l),
(280,660,l),
(280,40,l),
(350,40,l),
(350,0,l),
(60,0,l),
(60,40,l),
(130,40,l),
(130,660,l),
(60,660,l)
);
},
{
closed = 1;
nodes = (
(825,190,l),
(825,85,o),
(761.5,35,q),
(698,-15,o),
(591,-15,q),
(530,-15,o),
(475,17,q),
(420,49,o),
(420,93,q),
(420,110,o),
(431,132,q),
(491,248,l),
(527,237,l),
(518,175,l),
(514,140,o),
(514,109,q),
(514,78,o),
(535.5,55,q),
(557,32,o),
(593.5,32,q),
(630,32,o),
(652.5,57,q),
(675,82,o),
(675,132,q),
(675,660,l),
(580,660,l),
(580,700,l),
(885,700,l),
(885,660,l),
(825,660,l)
);
}
);
width = 945;
}
);
unicode = 306;
},
{
category = Letter;
glyphname = ij;
layers = (
{
layerId = "488cb3fc-7928-4381-9d20-07afbe5c7c4e";
name = Fore;
shapes = (
{
closed = 1;
nodes = (
(131,703,o),
(154.5,726.5,q),
(178,750,o),
(211,750,q),
(244,750,o),
(267.5,726.5,q),
(291,703,o),
(291,670,q),
(291,637,o),
(267.5,613.5,q),
(244,590,o),
(211,590,q),
(178,590,o),
(154.5,613.5,q),
(131,637,o),
(131,670,q)
);
},
{
closed = 1;
nodes = (
(286,515,o),
(286,434,q),
(286,111,l),
(286,84,o),
(299,68.5,q),
(312,53,o),
(339,53,q),
(366,53,o),
(401,82,q),
(419,58,l),
(339,-15,o),
(259,-15,q),
(136,-15,o),
(136,132,q),
(136,467,l),
(81,453,o),
(52,418,q),
(25,449,l),
(54,479,o),
(98.5,497,q),
(143,515,o),
(192,515,q)
);
},
{
closed = 1;
nodes = (
(689,-87,l),
(689,-166,o),
(644,-215.5,q),
(599,-265,o),
(499,-265,q),
(450,-265,o),
(405.5,-247,q),
(361,-229,o),
(332,-199,q),
(354,-168,l),
(397,-205,o),
(455,-205,q),
(539,-205,o),
(539,-95,q),
(539,467,l),
(484,453,o),
(455,418,q),
(428,449,l),
(457,479,o),
(501.5,497,q),
(546,515,o),
(589.5,515,q),
(633,515,o),
(661,497.5,q),
(689,480,o),
(689,454,q)
);
},
{
closed = 1;
nodes = (
(534,703,o),
(557.5,726.5,q),
(581,750,o),
(614,750,q),
(647,750,o),
(670.5,726.5,q),
(694,703,o),
(694,670,q),
(694,637,o),
(670.5,613.5,q),
(647,590,o),
(614,590,q),
(581,590,o),
(557.5,613.5,q),
(534,637,o),
(534,670,q)
);
}
);
width = 782;
}
);
unicode = 307;
},
{
category = Letter;
glyphname = Jcircumflex;
kernLeft = J;
layers = (
{
layerId = "488cb3fc-7928-4381-9d20-07afbe5c7c4e";
name = Fore;
shapes = (
{
closed = 1;
nodes = (
(415,190,l),
(415,85,o),
(351.5,35,q),
(288,-15,o),
(181,-15,q),
(120,-15,o),
(65,17,q),
(10,49,o),
(10,93,q),
(10,110,o),
(21,132,q),
(81,248,l),
(117,237,l),
(108,175,l),
(104,140,o),
(104,109,q),
(104,78,o),
(125.5,55,q),
(147,32,o),
(183.5,32,q),
(220,32,o),
(242.5,57,q),
(265,82,o),
(265,132,q),
(265,660,l),
(170,660,l),
(170,700,l),
(475,700,l),
(475,660,l),
(415,660,l)
);
},
{
closed = 1;
nodes = (
(353,965,o),
(381,927,q),
(489,783,l),
(468,759,l),
(327,854,l),
(319,854,l),
(178,759,l),
(157,783,l),
(265,927,l),
(293,965,o),
(323,965,q)
);
}
);
width = 535;
}
);
unicode = 308;
},
{
category = Letter;
glyphname = jcircumflex;
layers = (
{
layerId = "488cb3fc-7928-4381-9d20-07afbe5c7c4e";
name = Fore;
shapes = (
{
closed = 1;
nodes = (
(222,765,o),
(250,727,q),
(358,583,l),
(337,559,l),
(196,654,l),
(188,654,l),
(47,559,l),
(26,583,l),
(134,727,l),
(162,765,o),
(192,765,q)
);
},
{
closed = 1;
nodes = (
(290,-87,l),
(290,-166,o),
(245,-215.5,q),
(200,-265,o),
(100,-265,q),
(51,-265,o),
(6.5,-247,q),
(-38,-229,o),
(-67,-199,q),
(-45,-168,l),
(-2,-205,o),
(56,-205,q),
(140,-205,o),
(140,-95,q),
(140,467,l),
(85,453,o),
(56,418,q),
(29,449,l),
(58,479,o),
(102.5,497,q),
(147,515,o),
(190.5,515,q),
(234,515,o),
(262,497.5,q),
(290,480,o),
(290,454,q)
);
}
);
width = 383;
}
);
unicode = 309;
},
